<mxfile host="app.diagrams.net" agent="Mozilla/5.0 (Macintosh; Intel Mac OS X 10_15_7) AppleWebKit/605.1.15 (KHTML, like Gecko) Version/18.3.1 Safari/605.1.15" version="27.0.9">
  <diagram name="Page-1" id="cPnGOLD_0odli8-QZEaZ">
    <mxGraphModel dx="1900" dy="1129" grid="1" gridSize="10" guides="1" tooltips="1" connect="1" arrows="1" fold="1" page="1" pageScale="1" pageWidth="827" pageHeight="1169" math="0" shadow="0">
      <root>
        <mxCell id="0" />
        <mxCell id="1" parent="0" />
        <mxCell id="NiiU2VCiYCkFJVUC2qcE-47" value="" style="rounded=1;whiteSpace=wrap;html=1;fillColor=none;strokeWidth=2;strokeColor=#F0A30A;arcSize=19;" parent="1" vertex="1">
          <mxGeometry x="800" y="660" width="222.2" height="550" as="geometry" />
        </mxCell>
        <mxCell id="NiiU2VCiYCkFJVUC2qcE-31" value="" style="rounded=1;whiteSpace=wrap;html=1;glass=0;fillColor=none;strokeWidth=2;strokeColor=#60A917;fontColor=#ffffff;fillStyle=auto;perimeterSpacing=0;arcSize=15;" parent="1" vertex="1">
          <mxGeometry x="90" y="80" width="680" height="530" as="geometry" />
        </mxCell>
        <mxCell id="NiiU2VCiYCkFJVUC2qcE-7" value="" style="shape=image;verticalLabelPosition=bottom;labelBackgroundColor=default;verticalAlign=top;aspect=fixed;imageAspect=0;image=data:image/webp,UklGRuw0AABXRUJQVlA4WAoAAAAoAAAA3wEA3wEASUNDUKgBAAAAAAGobGNtcwIQAABtbnRyUkdCIFhZWiAH3AABABkAAwApADlhY3NwQVBQTAAAAAAAAAAAAAAAAAAAAAAAAAAAAAAAAAAA9tYAAQAAAADTLWxjbXMAAAAAAAAAAAAAAAAAAAAAAAAAAAAAAAAAAAAAAAAAAAAAAAAAAAAAAAAAAAAAAAlkZXNjAAAA8AAAAF9jcHJ0AAABTAAAAAx3dHB0AAABWAAAABRyWFlaAAABbAAAABRnWFlaAAABgAAAABRiWFlaAAABlAAAABRyVFJDAAABDAAAAEBnVFJDAAABDAAAAEBiVFJDAAABDAAAAEBkZXNjAAAAAAAAAAVjMmNpAAAAAAAAAAAAAAAAY3VydgAAAAAAAAAaAAAAywHJA2MFkghrC/YQPxVRGzQh8SmQMhg7kkYFUXdd7WtwegWJsZp8rGm/fdPD6TD//3RleHQAAAAAQ0MwAFhZWiAAAAAAAAD21gABAAAAANMtWFlaIAAAAAAAAG+iAAA49QAAA5BYWVogAAAAAAAAYpkAALeFAAAY2lhZWiAAAAAAAAAkoAAAD4QAALbPVlA4IFwyAAAQwwCdASrgAeABPjkcjEQiIaGSGjz8IAOEpu4XXuK9gAeNFS/rf5B+JllboX99/V/+of+v/Q/M/wfz29jPpP5x/sn/n/zfy58ZusPOe8e/JP7x/Zv8Z/xv8B/////98/8//UPyu/mf0h/R/929wH+J/xz/G/2P/Kf9b/B//////Uj/nfYv/aPtm+AH9J/pn/B/wv78/LZ/fv9N/aPcP/Wv7z/zv8N/gPkA/nH9c/5X54/Gf7C3+L/7/sB/y7+7f978//lw/0f/n/0P+2////m+yL9lv/h/ov9r///oP/mn9u/7n7R////efQB6AH/N///ug/wD9//c/6e/2f8qPBv+9/2nz18s/ljxo52nXnml/G/s3+h/tv9//6fxi/g/+D4N/I7UC/HP5p/ov7d+0H9u4dAAH1t/4H+C9Xr7PzV+zHsAfmt7Ef8zwWvwP/I9gT9K+hP/5f6f0E/VX7XfAv/PP7n6Yvsr9Icg4wNt9p0KfY6flwobXG09gbb7ToU+x0/LhQ2uNp7A232nQp9jaX+ZYmf/g+RlsjH1nJs0ljaewNt9p0KfY6epaDID4IePxswUmq/qnR10puMAqb+Qp9jp+XChtcbTI57+D35NdpsmWfxU/hLA+o8r1pDa98EpPtOhT7HT8uFBoCK6E3qw7ZkGP/78hv/3UGj+RfiuggaoiynFunS4ViODK2I2lRt9p0KfY6flhQVCzJt3LMRw5D051qY6IkR9KYGRuwwoaiQx3IaY4MOdNXShT58INCfCOlIzgbb7ToU+x0b15OEWyRca4Ac3e8NDTGmuT9W0tJJpoLlIyAoi/B5Xou64qUsbT2BtvtF3p/UySLajDaebpu6yqMaxjKEzpJfHo8B6inQp9jp+FXv1swxng+h+th0S74CE+wRPhSEvMvME2zSpAODcqLnK7Oj7ToU1EYoyVmM5UF2zo+F5bWgATTo9x8F1p99kJaXbmmCutzPXEV0aKtDIqTwnxRjp+XCVNj8b4gJ7fzz4TdILy/IJydadMtbIz0PLXvYptmWuNaG1qR5T1IAx2XhcQAnLU2hHY2nsCQM+ojrhu4GdgmlZ590uWQEuvlEtGaHDa3V+V3IpyWKNU3hcFyLs1la5ltNNJuDWaZEO98uUutp0KfY18bd4vAknNnArtBFDrieUaxuRrvPPf0AV0DgyR8FJOtj6BynfhnYUWwsj72FRYt75ptvtOhT4xTGGapsy1YVOnA6oCLClTTAIBpAM1p58fabXNHQScnCavfuYM/kKfY6fiO1/kkT164RABvcOdBWVZi/L4DjWzSNaAcj+1m2CqG1xtPYG27xqf/2ZjReyCW+nfex73gvzgN4whQyFDnhvQTCw/dks/kKfY6flwlO8eJDpmqAeLdAhx/1GnXFfzRf9s1g/Rjk38RMGRGTT39G3QgPT2BtvtOhT5Hz1VY4lz2lXpkIng3vW3pWfdq9vkRiWNgDtt2rf+XAcztYJgpgewNt9p0KfY6NqRB4qGYnw8ZMNAYnsKfnbARgnv3AvcdOhT7HT8uFDa4yBbRVZ1K7JHMaEAXhsdjaewNt9p0KfY6Pb5bxOmq2OESnzx8kKn2vtrx8nX9u7RXnzKjLm4kgaGlPsdPy4UNrjaewOKp6lBB7A232nQp9jp+XChtcbT2BtvtOhTdPrNxBw43WHaOojI/ClRa4cbrDtHURkfhSotcON1h2jqJRI/CDGUTIg9sfCvh4gFL1XdOWYMnMk3BoRzI7bW9VMGaWIuVpErAq+qWnlkJ/610pYymeYKPYG2+03UU968lPaPMxXzqiS/ptThE7li043hUvPdN/jy68s3ADU39ACHMCaf0eXKV6/X1GePHIFx9vpxBjRxV+74zaX04x++0iyOnQp9jpDb16PFgRFmf2F/KwMczipjCfNYD2Kfxi0k9CUuwKu9ESefOcfTYUgUikoYwj84rT+2vWTC3wzNbJGNOXhy4UNrjY0KRnIoONwtufh7nh++310cpp3iJD/jh+b0moMcSeM1ZiA9NgXOn1pOIs7Okm1uDZDDF2y0uDSAOJU3x5iDRMM67SibBlZ7MtpLG09gbcIwTWOk+Z+XHoYdH2m6AAA/uxM7AFcfQyr8+gnlE8nzVAAAAAAAAEYAeE3CTfdPnupuXCPY0Xpi8WB/W/tZtJ0zV+N4fDE+ab8uV5ire2n1BaBm9l4GGjJPCJUQ5mJlbXZug/qQ214gw72cmOwTpA/gdimzZGeTy1h0p83dpKsJqCtak8C5j10ceXEdgT8yVT5vsN8h0KuONpvP0vRjx1ccMAfBQt+eU/PTysQgoleSl44PhzL58u5IZutBYBwd5pL5Pjgesha+Uu5GiXlHsx1fDZmqed0ifdXTrRosDiqMbZ7LJGsfOUkG10sJwD2kWWo0LOxkfcsWfDh703zAk13mOjJAAF3tWlpP0XBSVdZ2G3BHNyn+6hN0Fj0noIpc+NCs5pORl2c7T9MpGeQFCn6sfq+X6RssmxC6E738aSQ0CaE2ffwDK4bGKjCyRIqUIZoOvZhgCx0X4qLGPR6C8EfTto7+hlZNtTTL4StuFuDL2c/LMt+N+j16GSYxH1AyqgH8JprVuyK1/OrCcyKCQnG4ZL39PWCZyhN2Z+qCwn4q6F9wvN+632LJiyJLOMdXRo65HwgrtOgZJOIob2Laz3zWgr9nlStJCdMg1PnKCClv5cVMg5USS77MVBW1WqlXsIjsdzvpnSUBWN0BhJzyTDU7U9UVYAth7nQwPSMyasuEynsVIgh8vcci23W+AmxHDxv264oFCG96KZFSDP6x6TKzbi+Ijatb8W6Xk4S2uz24mEABBCOy2NKl/TmLh1JDSNWgAi2I0TZctr8aJ+ci1zkxv+cutRaRwAtp71y13HqhlryZsT1co8YALbR/2fvX4OubjntZA+fZNEMdzCtffHyH7ZxrDlT0YkUrkKGhnt2iIxAXuabG5TqJ7DOvKtFyBK3XU4Eh7FmoZNP6PtbFMFKIboKFLuoO5nrp3OjcSx0Z1VnYnmsVr9VpzGGKxEg4pz3f2MWSd2h8KtlUHIXjSW15vMBpStIbRUADqQaDHqs7iOedHgMOLbxCPHc0lJhMkkRoeFjKUXj/Rx5iiwEu+afWoYrc3ssBBlnNqlstkdjt9Uk/V0Z5aOVW2zO46X71PR7OqxiLjaL4twsRYFnRNjHouhSZQMQOfWo5JclD2u6xLAMBAN/iOQPrwenrLGRIJo+egh3/GMl073kGs3aIxYI5kP0hHm5Yv/fmd8bgAVt6dHrv282cOkiZCLaN/HIn8ZtX/p6pWHoRduqmXVTV7lhtcmO5bmNkYY/XhRgFjhq2o5zcPp+VkOENqBw5SXK2r9zByo4EftrC94qKTo/+cX6ttU0U1Gm68+s9FSStvmupExzoOExaRE2bY/tKyDXYaoI5WBETW8UCehmCUWGQIxSTUbAcxkiWtZ9WyAZREuOUYsy4PTa7XgOEmGB0hPRP6zIJoOzMXpKz2DXdNUCRp07FLLnO9ESpQqrL7qf/sunXtF3K+38EvDFKzwAj2a5D910g8t2orNjz/MEpV9TkZDhbMVoq+c8S1Fd6SW5aM0B636/YFkmlZ5u5ZQTr+FRvJ07jUw1nNUDINIjy3x0lcVnFN9/VxLshtrimjfvdk1gGeHT/GuNdYEo2ag2KleBO/UxzTU+AzcTKS1GJ6Vvl21V6saiQQkX2m8Ilk1V1f5M9EXiP3UD/6yNCzFZz9Z/Rv+UWO22f/lKnyrMtUyXcupJNfhHPe7tEdPHS3Qyobe6iOsnFCWfmNAGkkpx8mBgyMoAxvdrEdSc4w0O8v95sfeLM8uGyA/2CB5mA4tqj4ekadWwWPdH400hkrAGzYBbLejMvY6/niRF914hdgektrhusNyflvEUUrV8mVwLlMh9mpaPfYLkAdS/fQCckF+t4DLreVqCGSSOnOwHJqsZaI0O3CY9rupYPGrkmdw7w92RQcABQO7/V+XKzo7RbvqZTy3PgIAs1tY4ofxIlrS/CrsQoA7MTREwmJR7JxQArTV8S0Qu4tCvuF2ARsvrm/TzvxE8w3qmt7WV3XSsXum/ugJe/xti8wxat/DDI5biOKjC7cL5mdDjrPoHe8c0UHRDUHFP+PpRgaveQmV6RupbMn9Eympy+hX5df1pLUmWVboMtfPfC6DLz8+wdo67MU6jEuWQy5vSmCtjgfjC3ZHGirL9Ghp2kQDiZVBIpTM3QqinH1Jg65n3GuTBBVd539USY1aOI3QaVxOHo29N0G1r6NwEAASr3gaFTH3quGzBWQUqVU9HW6MgPpm4R/Jnvw6u0xqb9TGSspCq2OIBWj8P7Y5jqKLW5KTO1LaErZi9tDYyuxnwyOYogCD8HYQMeo/lalNFtVeJePqMt58hv9TcJXG1QJIO0duIM0RrGnqc+In/Ng/puwmuRKKV6oOUFs/22P+Ok7EGnyllMjbu7cAQDRM+MK9Blzsebtskd50PH4MeFitfnYVwI8eV8y1mf+BlTdjBQrGi0OHE7j1ebBfeKfyJBKo70GfJ4c47j9iESSOyLpr/rOYYaRr1lKrnoegRl6zKxBWybFTCMpMZjVDQSzQsyb0qXhKnLS6axX1rTInNByXYg0/Eu5TyQZs4ke/REBQM+pfNGm4g04RWJZClbPPML6QMpEUZIjS1onAlu+U0JbLhtE9tQyuV66Ielvm9XaNLYMaUBMd5rbP3deMtrCysoG92+Yf1twhYoIE1dq1pvb+18hhX2Zyi4RTQK3b8r6pXyPwdwdxKY5M9pBq3kqdHMF+7W2+OU2+8X899DV28OaKcnJ2rWUmZxf3QtF3iEZllTzxF8wyEteA8UV3ZWSy/6RLY7Zcio6eD0QcBYy7k1AEHAggea94oiNAu9Z64vi4b7+4sBic8So9SJ0l3udY3rcXAmYYynclO6EnWNj4jhfVmJCwOc35rXJe8SO92mdKyVd4/dAkAq6qTPOpvxtTpSM/YAvuQwbrjOrbs5DEUxQlaITzJWYDx4qlTMblVT7/2pDFJzHjlwKlxvq29y4XAWIy7pwmzacWlt5C0/9esQcFR+1yI2JQxfVy0YhARV6uRNLrIfEJ154gaR5BvbRrbZye0dxOqAvXotq5xDmeYHsbuBF0JmWgFo6xojHxAozzoz+H3sblrjeJRwYcKNmxn0KnooR7Aw5bSS2UZeXDstWtQE/yov26yhFrnQDC4xYk8l96aELSdPjgB1QAcz3r/xT1CZQR+r1zANfzNglaeENFAevlrXw0zKwF2euILc6WXTO+mQNAPOR6PUouALEuU6m2v+bDkgdTvIBmCIevM7MoG7vwadiDGjGninKAQ8sGVSIcZ405Y7RgdP/oy2Rn0rgSIBRR0TVSnKMx9mTJjELOJ23WsLUUgFK2g3Ub7uSUxe4LFbWFT7DmADAl5N0lxsYQ8/P31en/fM1cgZJtDm/iis2JZtXBNRM4ZlY30gD6y5UMc/7nWlPCKAASNUuNSYf6mteH3Wah82OScI046xR+HJ6rivMm0uRAf3TQPdToKKRHZx6D/iMTEBq/+MTHx12Wb2enjxId/muyWRvGDfsBNP1KBybMILO3/yJEJOm4f0REK67uwMi7icMLCPoACranADHH2INpVm4CjDgGKwTOszMj9X7sdmZ07upL5bpKINTXLjeBLrWHPh6fYzpPnLaP4cLNAmzzQ9nE2HM39bo6rZjLtfXcjpbFs42NEiBSJXkB53OCQoKRa1smS6w3PaHRf7LVBqx6JnYL258rPycrR1qkmRXMRi4JyEYgWT4kgrGsEx2bLOH3+BvWRMEUT748Wg3e5t9I0ljSNpVIN01RhWNSY/uE1AqW9YOshJKvMau51WZcYCtNc0lJcsdnwuvfYsnZ4FjNHWSE52Y/+47xQVU3pGwlhVhOa9Y9kIzFLI/JRPXsubRpLPFxqBDkesW74OXaFW8dnat4+rCoe4oyXbfSrcwbVUPGqq0dz5YyU2w0moSR8Sq66SO7G6X4WrJLjNq8/9467X6Flx3E4A/HLsUijS7BtXXoJdF67medicwejoR8LbIoYVYmxzMT7Nvhw9u0NUE6ko78OXExOV2YP1eFuBbQPxi/KJ3zDlZuF9bf87PChT4gq3ZFGwXsYc5QRTCrxxCUfkXluMRUjr1OyT2t4AJkgWm01RW6tnXBS7ZdnCd3ZSFXhZuK4V1+fdCuB00tbR+w5YX8faSxrY7A6fKXtICW2xfOMeSJzoLDSsIVUUl2LFRG8CC0iOh56HNtK1NSDtnQb9ZZStGg5G1jI3MQmIiEbAIXTy8XxLHnPGEUDwQuFozou6ZTdXq0JxbhBhsuDshY0RWVsvHq6jaksIvZsWIYxaWSW2G8L+Be27V+nBgxy+T2sZu1a+bIzfX9kC0f8+mQgFxx3Q3dNDN5fChCD+6qmPdRoNWHO4XX4nOYhIuPFZ8D+qwDHl9PA8PS7k0PKqwFVJxuz/8+XapPJg6L5yhJDokK7zrxBKhw9KO5/UUOuglvqDk9jQDqbr6exAtGlsbQ6yzXG1MH0b+S/JUlnwrTsLzhinnkafPtriT3mz7rXhchOK0F1fxq0JYUkFN/McVZ2XIUoRCjAgnLWlUFFzEFtzqkKU4lGR352CCp/sOH3Yw7wmgdMr23lpgAZxdI172ohx1DsowC85XL0x9H59cA1iJRouRzJ5YCmfQcizbdXwdI0cMQFFABIxjSBxS5hfyeAFWhKs6Lsw9e40y9merKPPXOIV+05ll8YFkGzBrRNExkebH2JpxpuZtTy4lh7NuQpXPZnPLVQExrV2vvb/GttoDe37xtinz4MDsOOSe+9wmtR8koiWS8ToFZRqbdWwbc4wu53NS0/+lrvt2AJj4zl/6/3CtmN1dL76difEw9CPmhQnjuoyturmIRfyW5pwG3XiPMFUNGcYXhecsYhzqtNbMVkQvAj421yZbY8VSSBIIIP0PdwIMOROn57uYePJu+h9c0x+qMx1u9XG0B6A//1UPAjjdY559nB0bfobD7KOMU8JEqn9KmT16lW4FYaj39MkWO5nWtSG2YoQOs4VaBnMTLqDJ9l+xDB4cu9Q6hBJpa/0D3Byavc4IYkakIBK0HkqHi51XBtv5jzirvasX54nX4S3CPNqCTU7zgJtOQkvYNZ+hjh5Gsx7QkMi32tvpisxjRmTbmvUnidtpZsrMt1g1DZQNlIjjDceIUzRjDYBxb0fH94iDq9u/jGoebLrAnv8pq1gdiPEUJJ1ORCkw80tDBOq4H5AptTHPvYQr6hnjM7IPFB16ESHh5SphqsyiO+zrBbLl4+21mCr5M6502GEa4nImN0PqUPObS3ZFpwkkBWOHlqlKNql3r4Hw7CpM5lmZu5uD9rppM1NRw/RdGHZf+51IcSP3+aUmmN7tk9Mvz9I2I1zWHf8gCchlnk9lEi+LauA8coCiRb5K5Q+Y55AfzM6mis1CmNA2Emg1YbXdBE5U446idwwTW6PJr6xQTnJYIOnhEHwo+swkf5Wnk3BJ2HM01FwKWawShuBQUGzy2Aqogf7e4qR1esXxCDVenOJW4ZK2oMQ/ZKIpJt+d7onjhhcMJG3VKz9+5ilw6UDzpgAR3QirERKmPrQ8mKzNmmwujdgB7/MaSdP6RDF8xuhzguVNK5PXzV9OzuxCuGs8wDeAT2rMJ1g7KVNK4agdCP2ygQFGsBV0aQ0X2HaCKqeOb5byU9uhcShMALR1raL/l+uxi3jIRQUjLqKWiaK4yIFjfDhDTxzQ+DSuw0ieCEJEgCiN+lDQvt5UgGGnW2WuIlfvRTRBQmxjbH53/RPspATunBftBWoCk92ZyAkRubTl/jQhcl6WdrhqUsMzcHWFXO8+tOJWSaTSw/Iazkt7gczxboc4cbQLEilRzHsh1nzbAgpRqD8EA5dcxTwahxJur4VFEVrOCmaDvY7DUa1G29jRb/ZJQ2BYk2rjY2IEJcxp6yFuYBLbtQ6FBSWGiNDkLzqjzIXBYdRBCX/+b72L3f6Tcv46Re0n6EodIlcXI5St4Kl9x4ib4jMUasq/wthkP9c8fvsCUU51EJl1vVjzIEFchu08tBCuqGX5wuYMNcdtvftH0i9CWqiZETqj7tu+RHiXFf8SFVqfDjEC5MvBzvUKGeN7JRAdmQ9U5HREZGuv+Ubn2GeHlshTdsT91z5spL8GKvyzL8BN4PkVLDweHsQEk7mBjJZUotux6lb4jouwS11SBDQaUi/SMVo4awaLJFZOe2NN6Fp/YDMI33LJRmjPTUSLpDWKh7vDcxxpk8zyvxAAnh/y6t0GtvF+vo2NJxHzvz4VCWXU9Ao9gU2fFbfAXt/qyRsqFr4aXk7T/A9kkJkGMGmnldhSU9qPVX979ArvI1qgTMaq6+ZMJwx+Y6/TIMfpSu54ZNTVu28jlbTQMbeOUhdJM4w7a+OBDNROrHwfJLFI/iIWtXsZMLpNpzoQYOBwURTuwwR5HOVFZJ/cNT2SpMf+7a89JhSOoBAEC9/QAsQPyki+FmAuR3veGdnre289j2KmA8GyCqlmZoRLa2EEpLyTOKfave27aYuWIw++1KCAVVAkI7jKd2eG+DIRbc/wY3BxI2sXEcKjHidUFhL+YWSyV6/3kd4hmXoc+oKC9NZd66dddJRjcyz5gFcwQqNJEhjvcDZBPF1jmXGQILGv4M2pDdtjaC80JzmtvQMce23pnloUA96Urn5/cgR8UhXRoilR3iImvbIrTjySJTu/FYtZIBkx1M/dyR+1zHPTjTxwiMiUw9nYosGFaThgcox8OlMrQP0K/XHZW/fDPJhQSy5AO6LghwYwJs1moOq2TO3yTPSWQzPQee7xCX9l2O5iRJH+ZJaF1cu4GMiIZzvMApq93+QSkmBBmvkJ1ehhupwxfeHBXqsUAAdfoulNsONlP1HHhZHFFUnLHbPDEruZK80dSs8LCEO16SUPwtl9Rz5UoCpAyCX2o3zeyBclOq1IN8YnuVfvF14mgCLnRuEpp1Sku0S1oI+4W5wxVFR5Hu1aqd66siT59omNL2Susez5yb9UX7ziJIvmH5jIlnZmgyW9KRxX9TEpNw9Sw/H2muW8LMxAi+qi6o2YmhBHUZg4vL7vgnyOcRB0CpKXSuHtnWAI0+ry+OfcASZiN0dZ51VgXn6t73DBByD38kLdidGMD1fuXH57oPiL/zuHbkRk5whoCQ6mf2V4XTl63HbHH1fw0hLlvAO27nvV1hEYWfiMBeNQX0s9yIGKriyarTNfmLGUImBUvETZ1YldEA/b104rSgJ4WPCm1Jdbm8+OEfl3jZJNwNxhx/cM0MFTQnJKxWwyio3fe23KmhiO7HwRNQUqPF08Xg6E6IjIxMJyNlONXcI7OMkIhSDQHyuT4d62AGRtHfblR2R6LQw6M+DeoIVnZ1GPUhCdZlL/vSeZwq/dI6djQduPiKSYn0mwHSLyl5it1y75637zFBKuWuTzQENkdLhXXoGyZRGI8kISzYUq8pxEZ4QxhSBk7RKMkUT3iCC1Na5rGKfwsJpBkjhTos6B13+XbbNmqok0Ro/Qi68ZUK/5RfwJ9Zn0fw5moZZxyNuIlnG4M98O6M6nQGHHFJ4wBx80Gc7YosztECP34F2CuZ/X/sXCSEqh+cEU9J4yFysFXFyk8b1uSIhxdsAoSSu5rUG9dA1dUjt3JfNYxV+BQxP3RSeJeVumUiT6Uw4l50AZ+L7Ims77yVbNauKpNcvXYEwsUgGmPupuPeIw1kXBa98GiAtKXal68WsIn1c+N9l3UnqNH2SRebEoj4ABn5/O1SQY1n3IqvZlq4cveKkVn74rTHXnCe9k0qCOQn4xc/M7il5ehKc/Px71/jOUzWRiQb1zFruyxGTR+aiJ3xYKxBancZETMozDBeuUhd7tz9uQyTUA5IYZS4O0AayMI6tTpRV2/tjI7a6MDVHuVqkr8b8cY5A7FAy7PWEqWiYSN6rYIPI3RgjWsXxlv06tam3ybNkcEl3yLOXbtNlmv2/ApMvvdZ5XcJDDlYC6NKLBM9dxCzwSWEB7t04xKwVXzuOf0Va05vCdSwOnIPqvoYR3+rZHULpubzsJ4Y+xzlmGXS+O+ym2NY9p8X8Wk6ftImUZ0VSCH1PAm+ZjDx4pcVasccOLbevjGqD6TZmDIfRhi/0gWkNgABV3VlgnSikPdP++HsGNcerfy+Ds2Wk2I3BypeW0u4rHgvqsx9Tr5Zml1q1Q/mE1xy+FKHX0+9Iv5HN/7LKDayfHKnsQq1AZXPEeQvZe9qSF7z5n4mTCX/lyH+Pz9bUhXSPY1SakrPfdMizOOJlESaWdsRR/c/0VhanJpp7UM4nfRHhzuW3eJGYeHYshYppIkI0u7OlAGA1u0W/ya/6UGioVO4C5WvDvPS0MC2E/H3a22fgcl998LN1nzYfpiMuOYr4/g82Adt826413suLgdrLU3bxklnlnz7ELlodpIPYL9GpIW27DTahpZJkpeEHYJclT9+1h4g2DLFUE8APZoQW0UyNlH+/pZkFJ1P6OxgkppCU+IVyaHPAM2cJiuDfeKZpQaTiAYCqh+Lq/fiWW0ni74nob5zsZDToqqRjFX+I/Nr5YveqJxMUm7xJJ4fV2e+Wq6srC+SgAAOibecysXH61TB7fMUwWhu57cGDEmJBMKN5l+2+S+sBsWB5cAyEuufLVQBHVj839Ju6OBUMwqsYbJkH6olyTKl5eQo8dnj2LZQfYq6+jL7pXO0+lEY5g7r6sUMwofQEykLuaorOkDj4EMtSJwm0hY1PauqJcizVTJt2oMNejq/My8PNrdEtm5B46TsuLwceFna5X39+3F3bfO1D8tAmlO9O6vXprn9s6Aeynhsz2b1BUqFNojAkefLnDPhIB93TZ55vY5X52EGxvHrdnTAhd1an7uV7/oDnVVnU5g10kylxcJM3ss5ZJfhKPdPX4Rlxv8CzlPsCytykkDcp/8FXMCHz51zZ7Ig0s9oPHQRr2Y4bSNx2uYg8O8Lwy9d0sSTb5MSRaWhzZaQGqG+fkKs7I1kcJEPtBDO1kudj1LTIFxdYikqAY66pz6qHTCG93DZYpSL5gks9cp5A3GFDBSX26sRcYrDJDtMSa/klDLbxQ0iDMjJ4e4vlYTQg5MZgAAhUYCRJz4Q9/D7+9ZhtqhUxF0vxIOozzzfZ7mVukJ7lF7UlDe/KUHrQWOrHbQA15uc0srlFxP9hL7duCo2xYejCeJ68JWT4Ln5FnVsaPn2VKAxV84lI0JCas531POGZuTKSPQ9zG54ssLGgpN1dkBNjXitl7DXzCaMbPu4pdgsLWy7g3PHo9hnplZgcDOvYVyCvgxCwW1qEkHqDiLVOqRQ5cTwR325bJxGPavrMmeteZc5ZzZ784XfEFOHJ4szRDr6cIpnsA1qwTvZTFluHsuFZTvijkHUb28BYEN+oDg2DLpV1v/m0efIiLN3Gv5MHnmw/xVADFLTGrgPKuUmp8XVdQQ1KSQeCP6NPlmW8TJ9QlAgTDYdHDLsm1/nvR7PcI+c244lmfoOFsoq5+7ZjYdTOJJsTWhx2S8xPuL+voZmWAJIlDIllbyvH5lPP4js17FnTAgkgk1Y5eUdoIDjUfHWR3Dec8V8blcZ+9OokY/ZlxOQXSkI00GbhWgbUrKU5MCwYzagNVywBOgbAAACkrcPpCVoY4fqnLZ6G0wFjjTIV8o6qZvadc8dSZkju2MMoKoAxa5tEcbgnV79+z1x8w0pYfzn+WuHSnsWI1k+/60/FTevXhlDXjj/Xx6bbIXgIwn0Jdz2qvnjjzJ3S/1TQBoqGwGM2uWdUn4p2Odil1ECPSXmb2HyMAu7ABCU64qL/g2oDrDaWpP5BkHXXwq6F5znOnQQiOq9vOrW9VTOwmm0tzy1YUr5J1Q1Xcq8IzW7vQx57fUGUG+RhP+IL2qwTDAx5ioAtFG/Othet1hxgJ3Jmqnj8c1UIJwtwio6gM+89BPC0Rs/2WoU75hJAqpi8nBhgAtPNavOrQ9k1YmiyGzFrPLsoQnMDm7LFDfGBAbY6RUXQmGAAABEyO9L+nBCiRx1sqNmiNnqsDbDvw2gYCjBauT/tq2Vq/mrxIFniCah4ocJcNDGC+Cz2NjQDOqO/eEsaBBcbZ06N2gxzeVIhLg/cKgFRNK/EF2MIpzfAAECaKg+uYaqoyZGwIQcCsc/Cq9DnecCOnDZlmerBqgYzCm5T56Je/elyAcTPVwUdyPUYhmCRStlvCGBT9ojh7LO3xkKuanydjVt3n7EekIDaFdB0uiGKWN9AaXC3Hy+khBXJeCioAR0x+YgniNxBioA0DJCkr+OhJG6DYegrjzZARYv4RiFKWVQGAFiuKU/HIKs87+Qjd0xmNSEOlpiIp90P69eeeeswkMlh3ffm3Gwa9T6sVt162tWnfDa98hux6/5ssjoRjq3hkDi3SqxfsbgrdcUBlUV/xlPhrUI0YmWlLcD738uf8Cucy6bh0d89/xY9TahAOOcRxxCgTKjNe0lus8GM+qIfPiBbLPd1HA+xLw7OfmzLMprptXNvqtKoH387KG5ZzX8oOkqSec0EOZRkAAAAAAAAAAAT05//6r5l/gBC6GWn8KiLqKbtRfLMyQrbJPfFLvEb+yT3xP7L/cnyAq0XN3wtVcI5y1YQnIx6CtB2IDW5Wk1Ps5xO/1Ps5xO/1Ps5xO/1Ps5xO/1Ps5xO/1Ps5xO/1Ps5xO/1Ps5xO/1Ps5xO/1Ps5xPCyEAABTTv7HX63mP3DJetXubOX21ExGWwlqeDuQB2IfWQU/045O0F3Vbt6fon/pSszkkSGuRF991CUCN5uEOnAcHag7OIA7vwENoxZUm9ck25Pe3pw66wbO0n4ZQammJqlNNkEcjf+TaOWWuaAbbobGdmDJ9aQmY/iGQwbi0mzsyLzZnkHtVsoXXf6uvx/zYnNunAfAC2HJSUCZnGoY8CrRswnCwcfmhnvLGIQ//YaQNc3kdlhgaLsSZjXTIvJWsQq5bOiYGtZ/dp9LtV5iUnDEI6IK8yiDinUVo7mfe7x9AjDvD4N65PNTXtt+B7r1YLhizh5e70Hv8mv10pEFdovk8/aebzA0Q8167nqRlpHECJnijeKiHZaPvUJTJ1wsa0hpwO+lCRzvsPgmX2hTMc+PGKR/WMfWEDnXDb2jExLqkJ09uu+pm3y4g3cV2ShlypBxubBzZ6VGJL4EZWSHqIBdsWXqOpv95g+G7pnJNOD/QHo7IgtJ9Y9o6jQ3dkFQkzY/0sl320mtuwyClVJ3aOBcNv7LUu4qpb+9RAz5qYDPtaehG2KM9nt8DivmHjqqHxR1ukCaOrBxpuCdpOOFzz0cng/nULoSiywFXFngwDyxUQAmgySFbM/miJQvqaVF14jgCxypp/J/8wZmyCVe7Is2qVyUMVysSXk32hvCycmofLiSTO2C/4180tFRjnbnpjDHkJeV8KXSlLa0dWtQq4PRamF/8j/KT9HzYc4Gt80i9ae6cTZkPx72ORFKHaw2RTQq65ugQBBSIdAAAAPgZI3SbEQeEBAU2b9Zy38AEVsJa85kRmBJ0uWWfaTMWVv3LHEJ++qoGewNnHhPEP9DF6Fl8kTiLlJoeV6SulCocGMoO1KM34gnWnwdLD1w7gZoou/QNWEC/Bt4bTraEPYu2Tpy6qinz2gYOpewhEFzd7IJq8cN36vJ181GTed2iU64dEPwGj1+0IHd2yKBsRXV8BnuA00Zc6w+TZcb+KjI9WSB+DjLFsriNT8sxhtpGa+KdoKzNUjQ2Cjih72Rnmi+pZ7fZWhUm9zyfVK//IYuuETpdmAotNKACeH9pSSgWK+yNHyiaMqXNgmbqEzNaK/gLbxYbCGqJAADV8QSzRJ5aBboFf9eGyVXBkzpzt39ztjIDZfhGaZDc5w4RpPL/oue4FkcMnKMTQeLa1+xSGfcZ5ULsg9bMnDW/E5pKWPvxBRHT9AfNWcdxEvR2jzfszwPInsnOwfXW1jh6R3UHQUTssNw9eBm4J3637//VYCwiI77FS/kxllNwudt4nagqbtnvT2gO3oB81hBctVytrg6AAsw5qrkeD3GrdvgAZlTbvvarOdMklk5bd7zJpYQvqxmmXLwYKPRXvM+lO98DLVZGL4as012R30rFwYHISmi/bd0F+SN4b2KMIqjejWSpYz6xp3nHl/IRY1I4t6EhxuRddNZt8ch5Wr95x0LlRkKJNGRYo9V3fwo3sxGRYTnPKMZpWbYf8P+mqovs8P7p1L4eijXJ7gGIdzaFiQC7Vhf1pTrPVHMVBmyHPaFJ72k358pwpk/zdlg7T+A7hyNYUYklb2dGbnquEZwAjxap57gaf2TQlQVGbFCp19Jk7/rKCuLT68hlf08U8NGdKd21knFyQjQhQU0Jyw/HPU97AUPkYlePD+xPBYcgqX5TVTSisiahH79rdEKe9lv/RIvwIKN1fDxhvVMZZYL1IZEVEDafcB0ZRRK3ExGwuNz1yrDs0u2r0CSJ0cVcMF5o2PcY5PHu8zEuv2AWbINn0Gr4vvddGRw6dBBk59wirtLaZjE5wbv0TeRMktvHPGxhTNuf58w19srWrEzEyoVi/+nrvmld5wDVTT2IuElPp4hiO9/+FL/OYam7e4RqQciSj0xlmYLqBv1zYYSWoAd3XSrCUIW6X0td3EBHUXzKWek9qZ/eYhUQnD1z3aZkYzrsr1MYc7nUlE+ZlhQ5Shwc5qFa5QoAKdfx7NUSXrG5HCj6Xr4LmF+RviU3Oe6MLqJ9OULJknrrf/PHSmKvCXsIchjf3wYQfPL36XOAhrMsOobaB0POQpyG+bsPgoOcfBaVA0xx+7WNqARvZM9za7lyG24jDAS0Wd6QwMxHnSTrjvpefP/cc4or8R91AYRwFdVJvcVgkAGN67M2I2axwNRf4RnOvMgzjb1GXauTKhLKSeYkQzQnJ+4oDp2u57c+/T5EZoyHfZFAfqr0b8POF8T0ywa7tFDH/wBpU5CyI/WHZ4d3uXljvxev97C3qVGiMFXv9bPHGT9Dx+AqMZuv2lLABT8yz5a9Ru5PJcyZfTuMFJfaR4M6Z1JyFwXpSxpI4/CNzh3PinhGol2rMUDRJrefitEUrY5fTQa2oKsaZdfp8d12NKWGcmi2ne2WLQV00tFdKTbWuj1xGElWIJtivndvFjiksphGyLYCGDg8kXnyxZlSRoudf+6Ut2Ne9NGzUZD7CXNYOnPRuTIgqEUwfc2RxcWgKPbvHOz8dofma23xQk8qKvUGETwhfYwFBSMvPFRQ5e6r0TbI7eGRTcth3Wnh/4RsfezUWAhDh1ck+1EDgpJ1Z5HsLuUUU8XcJuaoal+AG4I8ortzXnx1g148oICHmQunqbM+PxE49F2sLMfUnF0m6dgp259aseNNIPuDldZZe3ajLJYieJzM/E7cj96hU2PLinz//P0McU+Pnwh+NVzsDjanT4fy7HtRCfPHy7T3IKDv2ucBdNm9ApwOyd7u0Ula0zcYNGPF2cr1OjEgiX1PrzLC5WL/pf8Y5nS9rO/edCb6hH35ptg943My/pMu3hNWzn3n3OmgM+i35MURbSlieEzM8XSX8oU7gSTjsP4ilu79S/447Kodr1eX+r2znX6YgXxEbUZ8rfUoPY1Jwx4LNNoLhJLolix2Q0m5nYLEboA8AuJUInfLfgzIqGc/JfUOfqQOh/UYj/bDQSbHQzAVCqYh1lT5d88xJPOzMr41YZwGhsyjVP2hNgFr05kAOSSxkSsY82D5U3MLqPRZuGhaHH68iQBi8VU2FO/k3G6Z2gJl504uv0nrm9QyI7AklcU/tof97fyqd1lmT4+3CHBpBZDBeqwzEof4H2L9SMsEOTLnOsGRiz6JRsPya3hkR9kS2NAVx/IQexaMcluuYJOQoLgixwbSuoi/fxN7X8PkmoDgnqgmMPGbsb8esSXLRMK1FoK/WXyY/xgoNRNjW4IG4tVOEa6Vd7hc7bVRrGC/Q+FiO7qdt7cW2grCr5+HglYpKpvAYsxCDfXTLyyZ9o1eadjuYyGoeoFJ9Rfde2IgTgLsqMdyBehgApVi1KwdsAAkc2vBHJ+eAz1H4+xop8bZR/vKvvJNxUOoWhK31Xi/h3vRDVNNFkL044qrAM7aE5hTEOagCJKWchWv3G8GCMeUKNkuwuSg9dHVOMdxyrj7QZ2SkmEcMjGV0IVmq8J7vyIy//TBw3RSDYS4Wkuo30xK/2qMS/I2B7P7ZI+LlAdkq4F1FiPQJG0sMr0ZTYta4y3bOB8FktB0aPejhZWlb/IZegBqZbgoV5H7Lo1NyfFulZ+FyqHccGasPV6EbvHoE1x6Aqiq8uf2CXIWm7Bu4Zf1nnCqt52L+sOA8Sv/ACbmXF0qPcYwMUbLv+32JTjbiawW3VvxPMmP8bHHAvoZL5DkRdG56Q/bh9SN3a0iH3CgLcWpKBothCOPFeHE0ZSPQhToCaK0I9LDfXEHBy6jFTkXAzqWXrDYiHzzgyAYc6NS/Syo7rmthVlGklQ0WgQhe34SzGmoYUktxp+UGkh9X9Tgjb17upj9SNvv48noRTkUMZYKMGIFfBoy/k8aU3g5I0dwq5NFPB1U0pseZtVCL4LYo/oF0t5P9aSVviO3Jgb2rI1wJYExTERqSuf5JdqvUETtT/VWB51J9eysFmVat0q4k42C7G/05fKsZrfjeIh4kwXAtbhMFSufQBcNnofrP84NsQZADJIQNbCLmS07+5u2IThrchYfSTJGG7oB1tJ3ZagKK48rhxWW6b+P8u7At21pAtIf6wvlNil55k1JCWH0XY8oeTuV1BJSSdMIFs+Umo0EFxLr/Glft4/jg6cxGbiY9ucuDHR26wJqMsNzlubK8m0HnjlAbENOzGKzCk2sYbmV5EmFYkv+byXa+5M5bDM42r1K1/tgUTvm8l6BKA7lC2MG7GqKmGTMBjcUcrzqbO0MBGW0hMv71DlLNkQfshb7aaKePOUURnuTgzf8dfQ0tSXclnYZmbRiMOcUqpdDwq4mpDfA2/iCcVwvMLWNjiU0lQ/JlZGzZDV9iBKPP2GTPYP2Fv5bVI+WxkaN0KedOSzrqYDqJqHS1jM+ruWPBpuHaaO37vhrIM1XKwgCbvcdZdJw0VfxiWA4352BT5qeZPnNgL0Z9MwhwmqJ2Mgjszg1cc8y60BfBv7sjW867HUBex/vMYDIzinuSgoeL4TToBRn8NFv0C/gFQZ4lQZu2vA1xi6z0AAAAEXuAAAAAAAARVhJRroAAABFeGlmAABJSSoACAAAAAYAEgEDAAEAAAABAAAAGgEFAAEAAABWAAAAGwEFAAEAAABeAAAAKAEDAAEAAAACAAAAEwIDAAEAAAABAAAAaYcEAAEAAABmAAAAAAAAAC8ZAQDoAwAALxkBAOgDAAAGAACQBwAEAAAAMDIxMAGRBwAEAAAAAQIDAACgBwAEAAAAMDEwMAGgAwABAAAA//8AAAKgBAABAAAA4AEAAAOgBAABAAAA4AEAAAAAAAA=;" parent="1" vertex="1">
          <mxGeometry x="866.1" y="700" width="90" height="90" as="geometry" />
        </mxCell>
        <mxCell id="NiiU2VCiYCkFJVUC2qcE-8" value="" style="shape=image;verticalLabelPosition=bottom;labelBackgroundColor=default;verticalAlign=top;aspect=fixed;imageAspect=0;image=https://assets.allcode.com/wp-content/uploads/2021/07/lambda.png;" parent="1" vertex="1">
          <mxGeometry x="820.2700000000001" y="825" width="167.63" height="110" as="geometry" />
        </mxCell>
        <mxCell id="NiiU2VCiYCkFJVUC2qcE-10" value="" style="shape=image;verticalLabelPosition=bottom;labelBackgroundColor=default;verticalAlign=top;aspect=fixed;imageAspect=0;image=https://cdn.prod.website-files.com/601064f495f4b4967f921aa9/635884ad45bd4b4723f4bc39_202210-rds-logo.png;" parent="1" vertex="1">
          <mxGeometry x="842" y="974" width="138.2" height="60" as="geometry" />
        </mxCell>
        <mxCell id="NiiU2VCiYCkFJVUC2qcE-11" value="" style="shape=image;verticalLabelPosition=bottom;labelBackgroundColor=default;verticalAlign=top;aspect=fixed;imageAspect=0;image=https://mm.digikey.com/Volume0/opasdata/d220001/medias/images/3705/ESP32-C3-DEVKITM-1.jpg;clipPath=inset(14.33% 8.67% 11.33% 9.67%);" parent="1" vertex="1">
          <mxGeometry x="597.52" y="253.37" width="153.82" height="140" as="geometry" />
        </mxCell>
        <mxCell id="NiiU2VCiYCkFJVUC2qcE-14" value="ESP32-C3" style="text;html=1;align=center;verticalAlign=middle;resizable=0;points=[];autosize=1;strokeColor=none;fillColor=none;" parent="1" vertex="1">
          <mxGeometry x="634.4299999999998" y="393.37" width="80" height="30" as="geometry" />
        </mxCell>
        <mxCell id="NiiU2VCiYCkFJVUC2qcE-19" value="" style="shape=image;verticalLabelPosition=bottom;labelBackgroundColor=default;verticalAlign=top;aspect=fixed;imageAspect=0;image=data:image/webp,UklGRvIIAQBXRUJQVlA4IOYIAQAwvAWdASpABisEPpFEnUulo7MqIrKKKmASCWdu2DUw8+q/x5fHpvp1bBlpJ/Aufp5WM+2nLAjyPe7+9cg0aP+36c3470tPF2PSkvkH8J/V7qnhD6X8e/3D6Bs6ftbNz6xP7nrF/6Xr6/Qn/Y/P/6BP1k/YX3M/9r9yvgf/a/+v6kv6b/l/2o96n/h/t97z/9T6hn91/yPW4/3r/h///3IP5f/mv//7TX/d/cz4hf7f/x/3R9s3////Dt4uj38x/5H/M9Lfzj+c/5ni3+ZfeP7n84Pj6/is5fzH+p5t/cn+j/l/bL/heDP6z/If+r/PewX+ff1f/a/4Dvt/EB3P/gf/P/c+w17o/cf+x/oPy/+S78T/yf6v1k/m/9B/3PcD/XT/r/4r3S/8/jm/fP+v7A381/wX/r/zvvIf6//4/3//C9hX69/vf/t/s/gb/on+I/Zr26f//7u/3k///uyft3//x3mZmZmZmZmZmZmZmZmZmZmZmZmZmZmZmZmZmZmZmZmZmZmZmZmZmZmZmZmZmZmZmZmZmZmZmZmZmZmZmZmZmZmZmZmZmZI7QsS9Cs8k+EzDMzMzMzMzMzMzMzMzMzMzMzMzMzMzMzMzMzMzMzMzMzMzMzMzMzMzMzMzMzMy7nx2Tc4k38oQgxceg/UkNTrscKeGlDemdt0QZf/AyEkn1mTCHEhtu7u7u7u7u7u7u7u7u7u7u7u7u7u7u7u7u7u7u7u7u7u7u7u7u7u7u7u7u7QjLRH6dPetMrUswpfMu6VHibkXZz+z7E7ygBDUzfkPHp/UkXkLBFaGeG7ItnJEREREREREREREREREREREREREREREREREREREREREREREREREREREREREQ45mG1ybQgxWpcgRFzUSLlbexifY0FW88wAHWMq8vFglESf2Uv0yM8Avj/zFCnG181cZmZlyKuKnQi7Z5UhaDO5rMefXmGLIZTc+qqqqqqqqqqqqqqqqqqqqqqqqqqqqqqqqqqqqqqqqqqqKlfoOc93ANrlWTO8euhXTdfaanaPNFOsHQNtBap9fiNqesRJ1IvzAqQB48MsMQcfh9ehX4TESBYm1LyTVKZmZmKL0/a5N/5nXE6/A2zMbWix/Jd1f//Dz/GVNOdNrcUF1SGwXe9hhN+TF1ttAGdIjH5Q1jThBmQaxiOtnbuqqqqqqqqqqqqqqqqqqqqqqqqqqqqqqqqqqqqlU2qMGAL9yJs2Ik+4TfVdYuaXi5WbjGqzYjXbKiuHLo1UN+Nf476saQk1oj0PqihV6MMuw5ZT1+/8RvMeHJrl0zPvM6ztqB1pOszuV48bOc5b5Ajl8zikUU2B870IZIazGZNnvQzTrN+VZkFUwFZwr5cqXKhJdy5ouSpdizOV3cRdbB+PT6Q0B/RqRds5czMzMzMzMzMzMzMzMzMzMzMzMzMzMzMwj8pkM3eA25vZdnzNNW1lgCRBTznxsotoPG6rf4H3pT+IWaggh5CgLsFYTl3vdmaBrTxP7xvxHhf/rAnrExh/wjWq25rKSkOVCIz3dBvu9UTkSjoBs/OuzjBfHmoUjKN2p1dRR+i2NxAJbxghfBaBpawvRxkKirq1unaXtERlhhz5j/M9DjUiP/2xbs1Xld+JvnjRZdJwgjU8W/XfKtyZ34zpgf8eoThKYlvXD4Qq7GcGhYTGHe053EMLu7u7u7u7u7u7u7u7u7u7u7u7u7u7u7fj207PbZF6XO1xK4pJsTEymyfeMTmoitol9W3kkgMPIi6KphML7BSbKylkT7u0/7If6LCe4+SDVPYaqC4/5nu5hxbeXafKg2WYpzhVSCIfVIdLH1X4Ux6hXRmg2+dJgsmsoE5XwkjXqflZ9lm/ebrs0MCy7LhIMyk7cpdQrYCC5HpeZf+nhn6tAIqtk78s3W19+68eaCwOJoGQOsmi2JDagQ3ErUJ7PUxLcXEOaXyejoq/Q4I6H4iJb60unzxsJt6Zj+2BvMk0iJH1G3JCfdRgMXobd3d3d3d3d3d3d3d3d3d3d3d3d3d3dkZU+EZLoIgQA57qVLUpt0lJbH/FOgKhWgxLuQopQt3Y0MXv6XVd2GzyFclj9Z9azfydV0Zw9FqdVIfHKCiPzn2YfIBx5z7/gQ/bWkZh1a8Eira2v2iQcd17NYBaBR1tYrlEX45iTJx6vKkZOtP2TZGzp7wt9mee+TwXJ0pXNaTb6zlXA/hckrwfL/Ijcf/xOEw//c1v4qHJ/YjO8pxD3YFgihbsi5RZm4VBGTQCiujIwIZf1axD6F3umX9PRqNEEfqZlwP1rQVlDNs0X0UACoE1fV4FWflDf++W35AVggzGbMypZ6tPEQ1hwojT5eblyIiIiIiIiIiIiIiIiIiIiIiIiIiIiId4uG6tR1Bl1N6J8clOEBtZBIe2hk0n/jrrur6D1yatmyrQUO7BNu1KF6Lc5C9jdavL6NGfBvV++4gvu9lTUezXD9tTxS6jsyjehMODD85GESSBAnWjTD1sZ4FLMzFeZvLBO2y5lIHgT0HiCje1p1OruA9Dz90TL6PTH/31q2qvN3CV1Erm7pZJNDgSUoSWDppt+L7hW/INe+REGxOUFjKC6sCjY3LnKNQxIm2Ryjxd/yy4sncKVMr0jn+Mf/1QYnerWEDqxbHMhpiKcSnVV6ckCmxij4I8LlVVVVVVVVVVVVVVVVVVVVVVVVVVVVVUWad7jWw6cJVWkVlphcSZr+kBcj5/w2Cz3oe0HgVqp/vBnXvD96SEJtWiyyD0OELN73i/b/NEmztpa4dWIYW0rtMCyu8J/McuJixuv+fKm9mJwnC6TrMowWKS76mcd7aekXGOofTnB2dpxNxmmyCVHfdxqxNY79cmrmsA52Rycou4PjPY+ibQqpHvgJYSSt79djE+gq+z4j1uo9lpsQea+Xd2h5sYqffIXrSDP9Z+8zPFd2sOzdG4vfzMydy6sLGYH/u998wMLg2djaFwN0FOQ2S6OpmZmZmZmZmZmZmZmZmZmZmZmZmZmZmZGmJio6nvlkkwOz1Kq+WOwg9Pqd9LUTIARr9HzZpVaBdZ32CoZxqcxNT7xwPp3WTK0mKXZgjYPFaMP6yG3PMLdCJhT1cNF4QYSOn4Y9AD2Hy8xK4EbxAC6PhjASRaSrSQnYOMSiakYt0wHUpB4zVlOteV3Om9gs2ujGECsVhjoqyVi6sjBz/nKenAhMpUjv0+f9jFQwKD9+jT0MORVqJkq66G9LDMzMzMzMzMzMzMzMzMzMzMzMzMzMzMu/QUCqu08kUSCxmlMfrZP/piUdGp6dWzrC+5xlQYgd32LF6fS2tnVFpYJ/cAgvKVNXZvXQB6atUiIB+oHBKCXmWuJZs8GhMnccFVdVznSu7qqqlTcGssb7eOuLCGZslyxZSbRZAzx0MseeuRPCRoKWdM3sXwJGJHd3d3d3d3d3d3d3d3d3d3d3d3d3d3d2iqdOInWsaqpDHyWEKSNLFQ+n91H8+UUoGhG0V0UP+sd6IR+LiKjtPC9RsVvVocStxkuem91Ck5oF3hlIIeAH1WuN6PN01lBozgccR8zMzECnHU46fAFAtQDKqqrVFAtcylfhaXzUOqAREREREREREREREREREREREREREREREPmysSkTBoMBy+/DwwTH5jcRQ/VOWXuzWFTKYc7H/7KAdWtCPq761t1qVKzu/RA9LMoDMyKe2LTDB5dbC4Hnyl2fsrJghefUGYHSYcqNIwCvHdoXTDMy/ssSEnYkfYaYu2qqqqddzFaPA0bqqqqqqqqqqqqqqqqqqqqqqqqqqqqqqpnwHavPaMN4sU+KAM7f7fine/KHQNJfe3sUzDMF1JCLODmqyLDS4D5dzHoI93dzdtLy0FAcXsSVekStiAy7Zcxo8WQkh2z8t3d3az21flc/B5ERERA8BtZFqIgmREREREREREREREREREREREREREREREPSzqfJK9vSDHdm0V62BBWWFnBk+Q0hDmhGdFjKb4/JT3zOZE1IY81XVux/kqke27smlMlo1kaMvjBR3YvUx/3aB3d0Xs5mPbd3d2TN0HPDbUMu/5mDu7u7u7u7u7u7u7u7u7u7u7u7u7u7u7RWENgiZe3HxHAl/WZ/m3pcliR67DOv3pGItIhuk3r6QSsSV9+ZNQGZmZjKZieF9TfMB7m9uJKj+aO7PGt3d3csV9wy5EREQ7UjXe2yAM47aqqqqqqqqqqqqqqqqqqqqqqqqqqqqqgAV+egXV5k+pj/+VEMhT98DHPNxr5gUUNcuYgJwxhYIXC9I/ZiIiIcoIg7mSAcGBIMAKro6qLH6HsAZmZmXWZcHoeSdtVVVU66AwSWOb8cMPomVVVVVVVVVVVVVVVVVVVVVVVVVVVVVUVkc7J7kqtminsiEe+UxcK22yjARJTuQ+XmDlLB0qlEUe5HYes+lLDMy4V7MRTJUbozWmYL+pE4Nbc77zp58f+oA6yQw0W7MzMx06FfhkdxmZmZignaB4Th3d3d3d3d3d3d3d3d3d3d3d3d3d3d3d2+3Gi+xxH5bOu1YMG+bkjCRMG0whjG2AxzMCFvHnLLjTZ4Lw4ht3X2qAs+WuQgz6KUr8jIhwcLoG5Af41qi/6TpCCzLINeJjzapDtwfvfd3d3EJ3ih8QnJULH+Wca3rzq6mVVVVVHVIEsmLCNhwcsZmZmZmZmZmZmZmZmZmZmZmZmZmZmZULqnuUa4U0K0+yDOmMyRO9nPbFCkCzfxHaPnOW94eHSIiBVm1/hgCaPZBsgV+gBFc+y3juDePoOuKl4X2UI9qov+Onl/xmZmVIwmk6IM569jbKocdXF/MqqqqqoP4R6lkt3rlVVVVVVVVVVVVVVVVVVVVVVVVVVVVVUkqkKv0Od7wQbR5UIc9jY8lBRPFGgUO1e9XIh1uJQH/vldF3fy5cz9zvrv+nz1pDBujyJ//0AWMszn0OppSsGd3Ol1ksNu7s7scxZ+i55JCAV+3RLIIVHYu6NFNFucmo/OeQghUO7tH+/IDMAZ7jMzMzMzMzMzMzMzMzMzMzMzMzMzMzMvTIVdwgcH2IB5aKzZyxvuFeQ641M/rUtLgIwYw57jLfGY0czSb+eoFi+wfk4ehIavOmSyPHzo2Afl+onn4ihYDc8HbuZQYO7u7Gen6wbmtFD/+vH0Y9eVq1m0FPvHf2pjfSxLMj+kjoVIyamK0/qSn+ohZurPVVU79U+DNOmUTlVIiIiIiIiIiIiIiIiIiIiIiIiIiIiIiHfpcvK25MM/2/nShTkEFPLjDRvL0T3zMXfdbPn5BUdqexMW0XHaBt+IqnPweqR21xd9muZik2sYUNxaHJ9pjHMHTaZsgSabrwOpngMzMzKo10y3f/+0xVayyObfaAdGwoAY8D+FIE/B405PTe21DAfcC8/rzHLvgtQbTMFUIJaZmQRB/rFYXh7lFp93d3d3d3d3d3d3d3d3d3d3d3d3d3X0L9J+b3+EBOCTqY6zA8P3V1z3+q51mr1zvUkHu5oQoAc6F3AoOvFWM66tjBmyZj2lvbaHzAi2AKSQt6GpSNolMLEuhNjOQ0q77IjA6Lnpna93KQSQZd3cHk2Gju7s6SxwoOyR1Y3l981eyCm/c06j9gjKw1qJQwOmvTR49ol21Cba3VQn3ECg7Tu7dCOMG/ebL45Vz9pR+l3d3d3d3d3d3d3d3d3d3d3d3d3dxdu6K7sXX+kV8nqTta3PDbwQtt8tqcMaDWej8/5A3YSqIj9HvdQFca+WHlP+D/spTyBjF1bdW7zbQTbwK7786kUmYHKshF3xZP7+EaPWjP79lNLjieg5cj8lMbMzMe3Nn2k6jrnT3EoTWSytNdmbyyqOyz9pHKLw883/R76YC0fq62/6IYKFC/dD4uRDvKd65HvwpJcsZmZmZmZmZmZmZmZmZmZmZmZmZk1HFQL7jmdihwWWmRv/LLmIFIQfyqD4GAy3T/Bz2VFp/J9vwEV3De3X/lHyoBT1R9xoFMDRvD4RJtg7u7GZWEIGPlB4oICL78zlRDrz2sA0PV6/jP9Tikngc/k4T+MVknE+TnyR01iHSOA93dwD9l1Omu5mZmZmZmZmZmZmZmZmZmZmZmZmZgwy3/+bpaAfyGzCwwZ3V079O67nXc1/QDZmQFU7OSmCC/54TkUY33769QPfNrqsOMzx8dQ7VdZjydeP9oZeD9RYTnvI5rpbkt+PyJJP3d3Vfz3UBtYBCOhguUodeEOsbzWx7PlU/iegVGi/60dS9HUcRAL+X/l0JqFntq+crDIxGqqoopzmPHZFqj39mZmZmZmZmZmZmZmZmZmZmZmZmMbtMuV8bbMjhB3tOTLFV+2hMsnJNw9pHESk0Hw/V1YPsngKIiFPSv6xvDseGNuMwjkdIn+BlmdRtjb26YQVpr2mP1b3xIoP9y4s+Es2/db5mZk17GJV1OgS+fp9FRaBEz/ycaNyD4Zn7zwL5xPA6jTw0kJfhbR24Qug/KcYn+Tt3do3Oh+KMPKZc+REREREREREREREREREREREREREPQQnVTFBB7BuyhATEL9CowTbZTso6czvNH2uD47F0ixeFL+v7ipKrcX4A/lSWvi2b0qanlbQKMs3VytYsj97WTtPDWZVOJ3vIqF6J82KRc3oGLNQTwZFUze7kucXEWr0luIpMKuFGAHUN80ACWZogDDOT0+mHHwuhsB1dFLwnbybNZODT9TAGTMzMgDDe9c+weiffU7vg/szMzMzMzMzMzMzMzMzMzMzMzMxRVHRZdBx9La3rf/e0DtxW331d019feEnBYQGOPVwr2v7v0w7qMDgxqzSQLQNW+8wolz/9K1M8TIFiQKX/z9kaaOrEjcnDGG9Ky2/8Eb8qyYvcXfC0vTGWMF+UoKQQxv/kis7YVx9P+N1JrGs7kHrJq8dFW2bb10/iULA83FzZUILsTLDK+ix2WoDdHe739igtXZNp2cVNfcpNTJAKiIiIiIiIiIiIiIiIiIiIiIiIiIh36fZBq2HJJ+VM9whHsayAfQCK2fkoWNhwGLoQ6iaQirUsyg3iQJzXaeDtpUVCrzDjFDf/YUwIDLyCWpQqCaxOhuSOzpgFbgCN4RTCEUShifvucUcGX7uYpGGz+f0KSg+/5eJO5PNAewAVT8BZX9yUGYAt+KyiiBIDS8wL6QXczja/c407R1HgvHo7pmBKqjga1NHZq1zpRINH//ReL8lpnJHZNRr1NDX6/VA5aAGd3W6UKcHxlZJ6B9lM6J717fjMzMzMzMzMzMzMzMzMzMzMzMy9SO11S4gacRb3tVnXJjVfvkh+UqufRpQJWJ2FsBVZYyXryhErhA6VfOHPMNwJ/h4Bn9V0f6y4pUHHbXgiU7NFedfIN18HqqZZG1xtqx2CSDibpB0nUC9JUK7t/0ZoTBoqUlSwwSE670S4jiNhAAQ6qXd06zcLxX/Wt5DdRGkcsn4EbgH7ETomww58B3+6bBIhMq5qjlOTLk9lLy107/Uobs5A2cOXMKkBEdN7gY49H0eKnQrl2+Or7+mmsLp+1uDe6rIku7u7u7u7u7u7u7u7u7u7u7u7liux+cgOY+sMe9+P2fAZV0G2C+ry4BMHeyIlpsTNI5esk5ZZxVXGAV+9hFSvX/0p8pvitCiig2L/zu0ENP8/nPjDmGzyOvYyz7SYDiYYL6LlBmcbmGCh/pbTBNa5yp9i8OTcbVrq+Z6waWeIHqUiJtPKTt6ebZODg7UcRjWU4JmVk4xInWoCvOf2+5+teIXrKca0mDKuL2lMMRgN39VuzKFF1TwkYdl7iQsTXFTVagkpjH08J7B6eVG3l3YRUX4TZudqjO2W6AbcR5hp8lDOgn51f5eQeK8wr/P2/MNQy6UBOVJmZmZmZmZmZmZmZmZmZmZmZmYFBhfmkydcO+gviqxN9VLwRZD6jWf6kZVNLl1Os+A03FB6Ds0WgYszXwWm32udjrdIldoOf1GT1WE7zcB6xNduz6wznaf89DQt+BhmdMx3FB+M96JsxMWes4yE8uyveudZmiukUIM9xEg1eGI4FNIruLZDHsc8FkH01WxF8mfZI3N0JOJBOM5286VHtuyJ0VJ5xOv++gIrzfTj0lCrqoaI4CX6IUYOJXVmTwbxqXrluaYCCvG/xLos0Vwyp/PF5fOaz5qL0duRlYA0hV3ZWWiilahpPcn52qR0FXTnyHm1qK10TEREREREREREREREREREREREPQQ46GiKfow2bV1UNtPb+638OneYI2nYYne+9CFDuFhthvaMxr8c1cK1UbUAupnV61j6fS2pInFVmioMTvVs8a/2zko7qV6ko2TyHp4VaVP1ONitBYSu3Nw8BxxrofjDPzVZwcy2aaqqWZUOOsk1suo9OLHc65tgHvFH4ekKdiZDha2CL4V9yOhQDz6whKru7wjLd2+5t1Azur/BbitHH3ktGBmXBWTsyI0lZr89gE+yf7jFZ15W4tGHWzpFhmfBoYbumLV2AMvZTB1vfgqNCqKr8r6/cRfXkW5Fd/PBhb/ItHC9oSBRZ1t/P7WSR7zM2RSMvDoun2OQd3d3d3d3d3d3d3d3d3d3d3c5sRLbzFkg8QogCmszLKRhJhQ8Y2c/oNoELEU8oAv4SYXt0OgqJEtfNa4zmWHKzsWi57bCHZO11MUfA7Bq3b5t+XJ5NWL+OmLju8O00DlKPRecTGqt8gigbZItqFD1EDCunCV2DKxuNm7WrV56B82y4xl45V3bdyayc9sBKO2Q0VaVTanjo5j6JwYbTWohhBYCh8O3AjRZDnO32FB8X+/qgXb3omg1JPn2eQgmkhiUQBFV8mAruWNa4Mb//4FGckRs34oFPQ7Tw3OhobXeE/PNTwiY2oG8G5Wy0Y9YLaLmC0whNbob/V9sdg/IcW90YgYiT1lLGXdFN5FHs0MRnkbd3d3d3d3d3d3d3d3d3d3d3Y2iFZXky/BLohgmixdSSbzNEtgXfLOCAHCwVn0IgYLOvCjJkj7lBZubeOLNciZqUqc4nABi0gyFQVociqg5Pz9QK3WsXZvETZnPR9arimKBWRO1/o9fZA4533DcDxePgtDPEqDI1DIVqjoznUJ8NQ/ibaeA5Y9qqwYS5B/GG5PJJ7C7/TtXuMPKK7/B5Hn+ADC9/4SragUz9ni9BjBxdK5m9+Y78D86ljtWnDiKf3siLEdquCLSgKnPeEgfMUBsTYheENlDQ4J9CQXMiQgalkREREREREREREREREREREREQSXxikE5/TE+giznIUlnIYVvt+LzAPKMYEnqokygRul0IGyZJpNqpo9VSdujzG6XKMk0r+9CXAQzfPn5ij+TL9Bv4cH/af55pdoLu07bfkvv9nbgKYxX+SInHkQdmBeE8sHGzARu0gy/UMJDu3e1r6uD6eyeolp7pjmfQs3ZWZsxk+lg9MJgC9+WFGx4IaiUgFxPkEoNaKjJaphOMDAzoTuDuxe82YJwmxbKT8eICNZejJ/5pvqR9mp8c0EiO7Xn/XNIxpyZc2u8KEiIiIiIiIiIiIiIiIiIiIiIh29kywlqHnZSmxiL0/+wrhEl6nbwd+QVr8BdEe8OF/v5dlucX2ZTE7yakqNXL6JoaPBqotg/RpJycVvJMlR+rkFH3yr+xu0sWq5bGQ+bFRhqy8SOxKs7Ehh33BHV1ye2KMYSafBKjqgrHXOc96mmk29rnYvG6O5HBC6aHkgDFhgqLizXn8vBJ8pAPHtg95c60zz0Rr5+BmCf0AmclT7oqV6V92IUjsOWU8FM+orHXUSTU4OvdIitrpHUmVVVVVVVVVVVVVVVVVVVVVVVRnz/Z37idjwnVJ3xtlyEeqEyWA6QlOUNJe0zBjUuEd5ZZovxAg++tDeIHSns5for6qE5LOrmTHArt7UymHZe02iFBkQrA6RYdRI3sENBabzoWASvI8L9j/9ki442NPPFWvtx6ZOoiIr6i4CYCAoyc/YZxhDUFqctn37d790+DMOxZTBo/ZNtafe0AJQIWlJtYU/+0gY8VBbNfeIK36H//oCt7uT/ss4flDVjUV/7LGZmZmZmZmZmZmZmZmZmZmZlC7yOVSy8zwLlO69b6XtpONoJlODUZSl2BNterhiGkmTF7NWoqvpkFON/aPNWwUM+a9pUCrVkarhrEGpDgbts6DnJoa+j0v8G+Dx8MFzas/baWhIhcu7Y82YCftvoNv/W9F4ati7T78LLgX/1D9558F3gYae2yEP908yYmL+7wcr8t+ed6Ya/84d91sLD3m3+7WG3G4sjc6jlmZx7gyZmZmZmZmZmZmZmZmZmZmZmZkwBDW2WySgs6Xe2qInfg+tQkBvE6AiRNx/Ej/pycfCYH9DdQfD5LeTSDhiMcSAafEdsteF/JddE4oKslBbYf6BvSIOMbjIowuG3i4+3dC+lTsNGCuR09sfFcbuPOECNjFI/QaYVX1XlC7Uh5EukVFiXf/5OGfowPv5Yy1nmW0U5z02ajHyFBFXKrwA3HNVK0GcPfdO7u7u7u7u7u7u7u7u7u7u7u4Eu8heT7C4BsOevZkXfFmBOd/rgWzGnXMqRXg+VWUfC5b3fJmtr97vppukhCoIcXPErGddhd8jLe4GIIsQzoIXHfBz/kn7n6EXo0Qbn/Dccm/WnOeJC3+98OSwdzDgF0xIf6LCYpQ2Cjd1RhRDU+48rRnNmFqzRi0n8FmfaF0G0nrNmwKnv0R2f5AEPW2HxqCRTU+ajm08oQzSuUzcxXIrXGZpRRCkVx9KJ3ZFhxQxHiipC7tV1Z+iFCyeZf4QZmZmZmZmZmZmZmZmZmZmZmZLgxSm1mtNbp4bWE1LxTtJ81RJHQBJFTTBQ+EjERdLnDsBrJ2lFJNAwn1A7HhzfIe40v+34EaJVhZGXiYUfzKdJFQHVcYJzooSNPO/uAuQ6xfM/5h0KHNZHDp3gnVj8fl1tO9AR0Bb4kJV9pmYl/va86JV1YbqmgYMM5GHYq6xShHIaIDm2y7lZboVztXgonS2V6qZqYK3ESjImLJ+Ypml6QnAFz2T5p8ZpCeLGOQ3KP7ZsBAXTkureLVkio99xflEkRqfbQzacs/NRzQyqqqqqqqqqqqqqqqqqqqqqqqoOpzicI/Mrqq3iMYtmFVUvueENhdukWXBoLa0lLwnR3bsaZ46a51sS0hMaCCLzxzBQw3k8QbWo4YkdZAhqVRdYA3NzbBpPRRBy0nihSwDPEQMLQvkklyADXMYEAYEKnge4KAs3WtJRmdVDhMvjQt6cErWujajrdzgC2ssrHSNQfVzGPVkJ4eKQe6oWMtMZugRuj01vLYhnHRU9Z8wqk5f6BDuIHby40UFsb1iqqqqqqqqqqqqqqqqqqqqqqqL4Rj3/d4I2q/Lw46AHQD+frlPY/T0YPg9nLCBztcgU83dItStPXYH6BDbexeLpe44wgo5l0DsU24D9LeGxe7/IXN7hL0ebWU6Geynx/Ay0ddD5dSasXWiR4Um6PFZo+pBrmvJonZNDvCVKLcdFctVLUgcfqqz14x/Zic91uIVYJ9XXVYnPVeiQDRiILsh1vBpjXZCzMKINKMw7FdJggaVjIJecL9d3d3d3d3d3d3d3d3d3d3d3d2Mo4UGSzyliqVQNwcveTOiFkUYE06QeQvku0pIpZv918QL2O6CplfoaA59ST5t5x5ETzr45jxAz4cCE+G5+gef3mNBbj4nB3j4KXa9nQtwenqMjeA2rSzypY0NHUoT4tXZHLeupdcwoXl1DsZA0Wy0H3RG4sLtIhUCQnQl6sjhP9ML5DF6b/Yv55vtx3+zuDmZmZmZmZmZmZmZmZmZmZmZmYHIBjRP5if2Q32CzQiN2IC98THTm9no4hIg329sEALX4iHUvGhz8uPB4mMFwYuRFMqiP/vpqj6WjFNcO7+iwfJoiaHxAs4XmlNKge7KaXH9etHQ7NTsG610oY8q9ugc82H8MFoaWMXUShCEr5aMk6zL18QuAQcB6oHewzAHul0baO1Jvxi4nMTwkLndMtMsT0mFBQGvRWI1f/uGG5TS4J8LVrom4I2q8CQVG+JUyz27y02h4qqqqqqqqqqqqqqqqqqqqqqilbZdVccBaeyHtHv9GeTAoRiMh3E0Od4E8HBNy6a0x8jF43bT7bBg5INTvmlklEW/Qwf3oY7ULR2lKvItoZIIrWQEBv8zSWzpFx4ORWVECoYkI9DhyWr4ZomcspzOc5hL8+pLIFuZIyQq8kTo3icOZLQzS0aClWfRQ4XGvF/ZD9saY+zKp9uXjE4y93DRbHXIuVU90eJjm5aqkP7MzMzMzMzMzMzMzMzMzMzGBy/FGqskX0BP+iMM25ggbCJZxpPc0Zid4sA1UBmRk39EbjujcxXwvsVGJoUajboTUHE1Cao6ry+qIv3CGFfFs/u2Lt19Aw1QQbv8kJbjsBtV5Q5NDhiRps0toE6nReR2z5uxXvY0CKj9Pd3d3d3d3d3NahIORw7w6mfUmzOqjaRufsacRI5TLRCEToqd/WguoK8KRJqcrvlk/EifA55zDwJEnORERERERERERERERERERERED3Phjs2qrhFaSx/jDyhIpI3e0pyBee6AJ5q4+TYpb9DPjJmPggB6lilDaCcjDt2xIogkT3WMGI02Om4zewGAUBVETbgPLxaOXXW0kEPy9Lk81iF0ZIeXpLzPAH0FjBiiWmyrdQvf8cgRbh86SLKacNeQwfpQ4/sbbzjZ48EYdMrtjRddaeXd3d3d3d3eZxoKG8GNB1pGH0AHUARZo8B2mPGqUNcrflv9xiv//k9TcK9Eu+9UYRbxYfDXd3d3d3d3d3d3d3d3d3d3dfD6/J0H2rvP1py9Nb8PcKp9zdcRzOTxH1Wy9lxG1GXIoj48JifPz0Bp9cRNpRTACAgCio37r8Nn8pqOBPiek8gYMF3YHN6HfwX8ApgPTxWHANahOkpS/YMn/hr9VzXh7OLpKnd9ZdfyVKimOLLSkAAA1WuFtDSggQdFyZMVkcxmcAifkPKqA3ZrrKk6WhUd/PjbkG5ayxpYHQl8RF/+erSpWDL5NhKVT17Q3lr+iG7mIyqqqqqqqqqqqqqqqqqqqqqo5xJ3HIY9JFw5gBiT8nUELvOzP2BcoKe1iBoARJiTrwUSn764eX+MAi/TuH0aTG5dGyh6IL60mPza0twWjzfpT2nb54VG0UZMtNA7zlrGdAaB4kVZglPA/7r0tBvRe2x89ziFqoT8tASM5rCd4efNKBsc+xZHo7OlNsHxjhTBK5eDIiE2/L1Ik0nFXj03wNCOEICkQmeZ7rJp0f+jwDRLm9E5cOXd5akNE8Pr8pegYbHnqVMs3YLVqwJ34Pv67zh8tLhvHNVwE6mju7u7u7u7u7u7t2d8mjyy+/KBUEn73lgYU7FDz709Ecmd8oPqO/rlkzq0vrgX5hQToSgjvy3yr86SDP5Mw8Z/X1TWnDp2FBkvf4WjZE9vEoS6v0v633Uptx2YEwibVpmrd7aJzWQ82l436vpNpAL3rmzSCazYDNQ190QNUSElDnYW+WmL6MUB81jT2GuZ31xJNEnAHjFah0c7fdW0OWCiGlSIIT5jfYvbAjJoF4E83IMjeyo3paVBzuIN9nFadicQPZPEn8CN6E6cUf3pJyGC1fcloWDwwYAv0u12oDc2ZBdOuJH0e2YPO4/9HiPqP4cKTliQIS+HRDpeIuBgo1tSrsRGLqxrdGkJ3R0UnOKrfdu1tVyynNMZ7WVnS30GkPBpWwa6gZX7kL/eYGq/tJtaep8MbZoY2PGmpiDcTYFmMjal3l3d3dxNhKxIt5oY79qqI2BHRKoiKS7gZDYQLHvt5T2nx86x+pnX2ifbFLKjg8r579zKHd32d7XQChP/J2S1b8KrvARJVLSDpf9Zf6qgZ2sUj9LGl++D2moqEGGqeW3u7cMVBd6A90WwvK/tXq2wLMPFWLn8zCQ96xubmURjQsElYUz/U9RdqV+7mvei7slg14q/f4prc36t8Aa1UCtUfIW64Gpfiyj2sWGTbwmW59NWouekOpBXk8kHRPMhpHZupF3L6awSHcZUvwga+//r3zofgAQdAR69QCNW+C2/2R/4B5kECloWPg6hodEeTs+mXqvtkcc0bLwPty26ccgB0p9fyzdkZYndxwCgeH0W5xffoEgbZlOIb6CS1gs+odNsz2VXRApgcD3Y1fOGw7sLkCC8kcTsEF8QRQxN0VvuTIVLozc4aDZBaOgV5W11bFY36MILHFLuu7uyV4qLtpIwUHmFUNtCJX6vGYWh8tkWpj5I3oCFFCe3Bv8jJos3W9gwKwttDP2uPD1Pdr9D22OJy358Hf29jdrKT02UkX0Z0oJ0K6qPzBVh0ujoVBu+NY6TNmsiawYeaz/PNxciMYbgxWbQiRpToS4W1fa62LwgBttDyFCviYSzVY7lDC7dllapsAYh+0K0dZ3XxsL1ynBmLIFAOSzufX4G6/QDaIb5yyqz6GZZZBwCkk5yz1SZwZEPnd980Yup1Ek/EZ6ynHroAKadmqLlIovm80lR8bgd01LZTcAu1LcRqRfXwxChK+KtP9hTBc9qGKjqCQHBW4LYq0zMzM1QxlEtIEjtHc7a4Uh6hp3kZWl2UPI1fWNOIvvTvnG1u8Vvy/dLZchV9Y1D1hFa7dzasPAap+mY+h90/rwkGJ0IUy31JH0FyaHdhFYnGhf+Ab27YXMFzaqlt0pk66JZlr7/7ajGjsvuMISq7S/CybnMJHZ678ipvxpRoUPayikdzbuGa9BMnZ13CUjtB01n+9jSaVL3GkU1Ep0WA36EW1rRpMGMLPBJOveV9dPFG7IiIiIiIiIiIiHwdHqhvNLEeSIkPGYQI6Dr5Z0usYQAIxtbtJeLccljlKlrbSLdFAzOHioJMk1lmpYsELTKqqqqqqqqqqqqqtWWHQIfEYkFvte/86JTJAT0PTyAM8ORkGRBWrMgdhk9QsxVDS1zvdpheaHm3BfWbjzeT5XigapLheFdyXN/ossM6P6P9Tk4ecYAPLhmUS47ZwyqslYhG0ICw9YvR9aKQoyPcwtTwneXK7uGiIuxEnbJVQpLOYbGysqqpbEJpCMQlL/kcUrURlZS/idd8KPtkso2tYaCNMVD6lcbRaxRM+SqoSZsGYkTRPvHGmsSOjzqDyo28FbSMeNaB3CjmYLRbu7u7u7u7u7u7u7u7uvkl5L5uqaLlZi9J71J2sou8WceZxm34z4EeUOFQfZOQc9ZETHs4uQbkBw8a8RixiRW7KYLK1IJTMbm3Di5ocFKHzUAMSiwOS6sVldB/S8R1Dhw2MIUqkfsQDKvCNYKnRcPuRR7u9bBYLcEp66T4qg/fHGCIiaX6/P1fpYrZWQ5AW8/yLQ289ryAAxqqqqqqqqqqqqqqqqqqqqqqqqqqqqqqqqriwxubrnTRWDjFob5AMJvQzNdsXH5AXHrOyK6uCRWkJouNbT5pd4QSAssiu5ZUAj+U6qqqqqqqqqqqqqqqqqqqqqqqqqqqqqqqqqqqqqqqqqqqqqqqqqqqqqqqqqqrAXVVVVVVVVVVVVVVVVVVVVVVVVVVVVVVVVVVVVVVVVVVVVVVVVVVVVVVVVVVVVVVVVVVVVVVVVVVVVVVVVVVVVVVVVVVVVVVVVVVVVVVVVVVVVVVVVVVVVVVVVVVVVVVVVVVVVVVVVVVVVVVVVVVVVVVVVVVVVVVVVVVVVVVVVVVVVVVVVVVVVVVVVVVVVVVVVVVVVVVVVVVVVVVVVVVVVVVVVVVVVVVVVVVVVVVVVVIAA/v+boAAAAAAAAAAAAAAAAAAQXPwgNISmbuH83Qypux1sRW+ILhMdv/J0XT/InBgSA4nFTvs8/UxPLSR6F4hOkeuCqY01DtoaMBJUNY8dX2aqE6dMnPiClAAAAAAAAAAAABB6X8npekjrxZIBnGuxWZxh8WJloXSuSy7n9wjkhJ0RAlK0kXt2spZrrnfLwPVNbAuFhZ66XRu9nZZNYBYldQI6AjBdaOIK5cIQkYLxhgvRezA8QrqemjF15ivyHggvgJ9UYaYymVjbhVZa9xjvbgBjdtJ6ByeZIz1y8MMUGoP2GcjG+txXkB2A9rt6Ydl5tmHP0UFAfLsjerJRIBrO3ZzqKpRNkSa7P3FRw1d//1RgmAa+MRjbaY87KRuRybIR8WunP2N/YX62Ycj2Ka17zzx33w1np7kIlMmKAAAAAAAAAABWcE64SkUwIVD1eLoWNGX4tXCjLfcyptwcSKDUPLTePRXaZvXkfg2p6CZOxObLkH0IFVRNVImgI4Dh2udiWJog2XwUyHd4CT0CAkKibzth5oH/s7A/4/4gNv3V9kkgdvAnQ8YzeVOzrr/xplw0k+Q2nid2BvAydZvSscvKFkZsrHSDpC/me3nHuusG1bbuRPQs2fdBqxa1axP7AfXad8vYl8rC7HinVempriteUu5XJjBvUo8577rPtcriASF0ukoAqwiCAAAAAAAAAAAz8cKJtyTFBONomppbpN9jP4EwBuHDgbYLG5h62LjBCEeG7mPl7V740v8sG7DyFwtaUYQbaFBJtK3G5ImTts99Uey6rjVCdWjx1tLNOC8XTpQwbdp/G0ZZbas2YoB32PsQgpCsj9+fmYJECdJa9QCXz2a1qV72Gx8Byz7c2X/ZDiFZVlqPc3skLgXsShFa2lPGnKjn6uLMQOwuMVHyfZG/MlDsY/gC45SiF3t72534DQRkMXY04NVETnEM+GczhkHRD97le1tDgUIUm2erkwapFns16p9Vpg14LSgSxzLSBtxztIEvJPdRTmGyPkkUSHKufbVZXFj8Zh/Bu+FpNqfUT66ljD5xlWQtNHyG8V7oY3aUipPhPfOP3RRTqsfYxKLHjhaAK1SmWN4YrPQ86tMpr7Bn68KuZQ3LM2ra9rF7JJ+/IxCSQeZmS9mtk+MzVwSt+GrqkMMEcaUuSPmy4FpYULvxy37PgjLm1sN/kNtZiHHtTxR/68V3+/gsGFczo5UUddF89kE0JfTPjC3TUsxs3UOtV7xQ4Ma2MxCcYQZlV+LYSaE4ZhHDCw0i+d6Ndo7E27TsWb/7S1jRsLdD29k3l7s2MZP1iyHtd3H8NtCrDEf2oncgl4AAAAAAABdhb4BIC24C6cpIJuNZQJKeKmeoPPrq6euCPuyN4GOc/HlOjpJ4oxG2y54tRuA7/y02R3+aCoz5aKGzV3eXp3Fp866icUdBz+rTN6L6JZX0e6+7XSubwmk3bztsWUQnrsmbXdSZP3cHSj6myUREe+D/5pngEYHnZ4y3prbRoJ7xyEOGWP82N0U14AICZyl1pR6iNKdYTKvaUHmgnGwmpNaSaJMGc09WEt7CQwyqeXYNoXpMwSxkR2WX0IfQy/GOwuoNxfCkzPKJzWysltqdJV0jHPX8TX/vDsM6KikEY7ZXtMXF7GqfPXobCZRMfJyEO90hboHqGyWf4YRWO1aqGIuOEK7BHA99FJfzPrwoVBxkA9Fhz6ecUhsKmt1GjJh4f36rNr2hBjMxcZsNCnR1budd7g0OL/9S8FkTBqLHMjnNlKLRVf3IHR04sYd/G8SUfRqWUuoU2NDQaOtxwFEOhS7ohr+BV75bLyLyhmqIDRgEijD9zbiVc8fUTIjsinlTiJrcbp8kyD68lbTlD1mHh3Z0btCrFr4q/LXW5RbouQQXt5jT0lzkUEXwVq4xuoXwwARnynttGutBCuN9PZq1UOkj3NXeetctesfUuaGi6+biUfoJARzSR316aB3vb0QcHRnWPu3d3lERksJJThYkOrZ3bDeo1bimBQ4vtUznP81870HSNYxgf0Y/79zYgHzCa8MN4KvwJgOmSfCpEWLINfesabNyHQ7EXmeDfIYl3+gNz4BQthIiC7l9K1frTicJdBIv2stsjUJsX2XibFYe3MKIkzshOlgSDbQrlehwBSBui+giCeU56jsriI0DMVEmqwMRB+ofrn1abz4UWGGw7zWaIAMWGaEJmafovEm6H/DT7jYS0T3MidJ0oO4dON1YXfVECtlViitWTNQPV+HO0Eorpc6yBJ2aqPhFzlV3RJW39VjL0taGeMivwrM+KSCc1B/toDTI5fMzpgRqNyX3VoXi3dLvRcfUZ3MLOUamPBCDknJEJBs0ZvSY0pe8ZfyRt3FeEi3dRPzaxDAasiAeWJMljoaddsgCCNJmytObk4iaJt0tAp/jMNCTodv8ZbK9SsKO+Riz43Akrnb3Z8TjGae5AinL10jtKUm0F2DSRTxP42gBt7CLlMfS1ZZtGsiUNUfMH+avCh1OzR/HxoospsAAAAAAAY87VaP29h5iJzIUu9WlWxto1J68ODyAuP1XqVmmnfI4VLJ7A4DEudz9HLtZF6MJCdp9jT2ROu06vB/FegOakYtvSPGg+16T4PpfUk+6rB2hXR9g0gqAPIHH3espsM844KZ8L7oA4+liXRPwut6THO+xyxsvp42mA0f0ygiQ1Wi1FUXMQs/H+9OOm0UaIDLbnerYtu5jXodN8j9T7QbkkawsISlPQ76QddjWtlfD0WnhDZeIvBxRuvKR/0hh9AyV0jAkimNAfCsvaVON0W0syymSdC0UUAyeL3K1npGQNrJmPa0gxwp+r/4nO55pcrtc+R3NSFB5MDYUp+Hy54nHMpV7fJlwUhGFsj7c6RpcD0FMjFHHYinuF8pvKeb4uGvZpvz+7c2M5xnD2xtP9K4uT0s95WFfb2wEIqmUy9EwhtSmfPNLGVavJB0b2eBA6RkBbsqBwHLv0yANhR2yfbfSaGLqElVvBCWzNTuV4kNWIFmPMiZSyWQ0zpQ4vViFInSDJUeu9dAG/2kvfOl2UAWMN+IYXa8rbxqFp65WZX2FJBBZR9yw5kLoTbQPKOk1nWK0j6A1SsQH/4g+XCaHiA2v+FhllMoJ4TgeD7qjTSFrT2KA6bF9o5a56HGSpPAsGvwp0LNQfhVmUzGjg7MbjQbqWC73hWws5ZFL+J4aTqeAta3qtXBuKgmeBcbfhiIl+Bq+R0s/Bc25ds7TO4s/LbTzagkQw/YET+Ic96Db32bnu6HMCaaiA379DpSD4TdFryMB0u9UjymrmPFUIC71sELBZkLuarmT0JAaaMx/kpjXDFntsaaUCT/qUs9NY5/olj9IQ6t3LjBtg9Lbf542BXU6Hc/vCG27KfbsqSKrMS4GG2yOpxa/qX3HX0QrMR5U4pkd+JaO7P2NfYTL2MIcztXjCxWgH62zmz0uoBv7FYJUQTNd9xyo3pTOSGqlo4f9l3mKG7HdBB87ii/FqmxFbKuwG9pvp4Xz1ty9pzW4YwVd6qfSqkAuhnx4LAdNk6QakccmohfhYawg83+TwdYCRbBiwYX6nQ3goFcD82Ak0x5zZTzKnaGtimeJ8hX66y3Gwpre3mTwL8Ocz7puBUmfTWhEntAccg7bex5QX9LYaMLPi0DnwJLI3h9CuDuPJe/PoLShyQtqpZrcW6AHU6YqqMaBUmRStsrinF48iUJNbPGw2QjWuxF2cIehxJq1JW/X1yQNlopBwAAAAAB5JxQI0GicVmZwZetLqDm/RRot+nVaGgqn5K8pwpA30vsTkeBSF3iWxSvYh/ZkhhR52/RKt8tPh9sQBVxVZ3jxsKCW96tw5pGIXcLnL+2iK59ta09Zgrtjabrgj16T0ZFh14yjimmKDzg8jsbuUL1/aPA+6TcC29rJiYtL5tiskJBBaz6E4JR5pVQHkuKCq1UTusakS3LF2xe7U37mvE9Vly8yaiwdGZhEmz5kRrLN/WUdZSczUK7C0NbiScuoUPG/wdKD5Yokawb1I8hGGmmXbfE/q31BJjP9hOXWmVktztc6FSDmzrU+5JAF+qXjF+Pf/3XeKW1yQgkt8IP6RoBKUejeSgekBGAcX/+AmkhrNZpM72OyplS+U+3XdpdKf9T8CXtAfwPL+iuB6dkJHbDx+BZTbBj+RyxF3I7NO/vjSeTPDZBQNZ2cxvuMpRlXo6a5AGU8Y0wtpEWK50m7vmWy6kiRHqKeAqMTtiM1w0DsL1tjzoRmVjoeL4SmY1tZJkzmPWrhGXDvIK2wXn6MvC8Hu/JgTfTA7x+NBiQji3TMolbEjOF2rmm3QDY465CIJw96/nPp2kRGFOxHXFTIE8lzoTslKMOC9Y8qTkGPJg5HGlbgGqCrC/zqseS6yZw2pukv243jizctuUVMu3nUJJgVA8BCBMaCZxFggWO8FTIKyH0KOC+0C9WVN+kVf1IadsurUMFZ+9Cyf3KVM5MAhKb+SLKJQ0Bfk7sbsn0/wtHfJ6nvobHnpf3T1j9L/hrluJs/NoErgNIkr0hK2k0PlzgZNSrzt3eWYBS3rNugI4Zs0Ii0o22A0YcHxReNOb29rSV8YNyJyeKiNRKFQMheLnQBhuTR3Ck5GDH5bOh4wk+msEmINoPwIMokEyLGLkxs3/+Crs04nJmGG1xRvy6PPDwB2FrytOhQFTg6JZelCQfPqWofpZcdGKn/YrIxJaU4m1xaCDT6BK4pvj7Qr/gprb6mHdimQ825RjFBJJx5o1UvMHBoE5/OnNXl6TUUdyixi6p5eEUS1Re4H2621eJjqhkH4ha0c82qaKYAE+vtNCw2qhQAjbdr0MuEzLo7Dcl+EU64IQvXQdoN1MqVSuFoNOzGwEUYk+4NNI8wwl08LHsiB6SlCu1+boF9YWSZC0zLtzBX33BS2F8ZmYdzGKlfDG2lpCvIKExVx7eDn7P85enAuXdyJLSCTyDG0SicBl1EdaNo/xNqdBKLUnGqPoFvaItgjDe9qXd3vjpTbas1MP8Lo969EIu/rnrI3LF5hxFLm2MbOGSYIoAnJbp4FYt9Yt9m833T6KqTC90YOXdN99OpHVMG6p/TP5oYgYZlvEjhJL9zAtQBBzn/ojrpDG32c2r7SAB+pnDKL8jeBaeqDZDAiamaZAZZ8nlDiY53wAAAAAAXNYIympehat5hasNF3WDEYVoyB8bAXMz3yy2i/wxyqRXLYzSocdrD4UR2XwVAHMqlHX4F3pBY6C5ooNl0dqFfwuFF7Tsden/hX65uV9NafZs6KhFOu9trffJYbjyJHfeTeNZFF6tC+qIQWdFRh2cz2XwKz1aMgQN5TbhJqVNMEUChZLewwwrDtLorKXktZdu0JMeSB+kZd6/WDn/7CwGfC1xkrZI9PAn5JUNtnsJGKtR0eLuIx1TJoURGhH1XQnOY0xw+wNDlNcxZ7j+KxllVzC8SCLInzA3bnpvNmHbTX6zsYckalVCCX/hx3GyWaNmmf2qa69aavmve8lsbzeoa4fGR+FC671Ah9WaOK4LVJvEofcActMswPjLVCKZXmHudpgS0aTItLRJxlrNnLlBvm3pMfIHdXPmToFDhCLuEe+t6+s5dCsvVg7CsRb5BRxvOD7a+MYYRdMK/faud2O4W/p1Qg90NqD+Ic4Zu1YPfpHdwO9RNWVCoXuQj01ZzUG0PbkNP+Rjg+evmQr7LJvIRc7sFuXm+SjTyFL4CMNKigFGchXq1ZXFoBI3PQN3W87phxhsGwirrVwRUJBF/Rl2GZ7M+0jAr52A+AK+NkW9jxP47Dmgefz7Kw4HsYf0zJDh+FDCfxjXRSyYBdKnch7W5pkMSmLT8OckgWSbeHMLT4nokxUJpf+peTn51jcr39M4K+fDOtguAA3T0OyLOtF8kdFdwUhE2xlxaf2cAlfKq8OAIpO/XPJqewLaFPMGPld0aB4g5cwcJc7g1+5fIvQaWRyLc1uS4oCKwe8kDalDRHvQKzF3C5Qor7uqMUA/wNXF1Ysc+ojQw/0tvIEIkItSx4mA4PDmoxw893ZOdkEMbfGgTuDE9Dv2apSJLMaNlzRP9M8lG6yKBcna8fVJYIEcA3jW1g5KugcrgEsl5XY9S8Z5qoVfo3k6eLgt3NBTxq+KxpFS2ut6lPOs4h4DnkA9/roa/onTnkUKqHkSdANTMDvtqW18mIEyxxlVXE3n9xgqaTb5fGxCudCz4wHOWBo6bT5su2ggDPxhmwk/uD+rdSubUn6G9JOTjiBmnR/SexaJaeh4e/cN1Y7McC+PsvP4gemf9w81FOyMAoS9Fs42K/lXdrBngXg0t5wr0FhuTj8cvrS265dGauQJyrA7iDh6bkDaRyiFCxXxmuPln22ffaeKGHGYBm2fmFGJUi6S9Kk2aSUSYz0Ni1x/fNyiO34gceFn5Q4I1J9svKqQrUrn5kbfE+pGLpMh9xQg1Z/wMqNg6/BuEdJ9jzU8e08T+7N7m74US0t8RYJogZ82ZgQDsls65wKa//oimktFXcB0ho1qisMEyL/Ys5wMf7CYL2NP6jB6Ralm9nyGKeF/S5m8dKQyqFJpvud+WQ8bzieHFwPGaJD5bMmo6dhqtJTad38xEOy+eU+gK03w3df3EAlg/F7WtPB9gn+JA9WwbDwEdalc4jYXc2n23DfCGVk+svsteCtLeQ0ODp+rl+6fHd2vYsUShWlcu7zDa2MEjQOvR6k7aIW+2jr0lNd5KIOnBZ09/maTS+2qKy8377K0Orkgo/iULzZZ77SfCJQYUqOy4SxQq5p13QFvB0Wdd8uGKRzuXYzklm62uEo0UIKfgHTEVWik79rfNGZ3+aAFygcR1MJ9XXEOuTOn5vKfRCawROvPTyhZC8I/qlZHoJ+AYVyQ7/jdFNWqUXyx0W0rW/Mx6eGPj4xkmSZBJD0v2oRSxGPGnqOqb1VYu5Tn6O/eSz4awqGRavhr464pLSo15w2ZtM+sFx+mmA079SK81oIn5AAAAAAFH7JbX11l3YGv9iOsiZkp367QRfwL/hjEnRWN8rBmuX8K8wNfR+UA3kLdeB6MzzHcjldfC40zA7pe3vInX6tUbpVIpLJrawi4reyMVOxJ8rFnbXrQp0VCnbiJ5A/rvIJsH2L+RvfhVO9DObZkm4NdWu6uHCb75Y57Ngxt/SQWGcECmanLpNh6sBocxen36FokIdbFLFLvGeMnZCKb+oiO8hHZewTm20OtJmGIGHRP5XZB5VrP7gyvUg55VKGtdB8mebSI1bSLtoziVmj3ACTOcIZxEBVjKE8Wj9Jlv7HgyxNJTKt7uSKqoHFLKZeZ605ueyv8hx3lkxb/i48kpJzRjw7hPK/tMKySxwPNbfIFh7FIwTWtlNW7BJoNJuMbqN33t9eZ4MerckrW3uXL7AwI/GnjCOMvUXbvVX1iZ2KtUP76wxpnJFFY5Ar9OgJAZGgfnhu25ZmmkmJzr8rb+com2vbUHvb47V7BqD3EpnyFGA9zbewF/HplDLwpSBoKwun5MeYmCVqlgwmsJyxgKSq4msODXXEPqMG551zvNZ4hbE/0tau4xUD3xBKAsiMjiRemVq5VLmvZvbkeboNkSMnHxXLrigyqsWUd7eqJ6kbitR3NdkyNsev6m22HTCekgTMcATemDayaBqJVpH6G9QYWzS/MDAXham4T+2qeGqLg/x5nFOV7Vl3fQChirjNlV54Hc6SpBujlba2F78o1Fy8jyD8rpRpwTjKh2NkAbQ+eG6PYW0S2SHbX18YN0L3SWN8laCN8YxcqqeB1lyOof2lpM6eZsIY/Wj19sPhcTgvhOnbq/9o8V9ikuneyiVk1Ym8gnjpH2Kgge8/4rMCy/60raoSn6fhNfBBYa0LzUKQEXwu165pmS1ifegSMiK8N17VlMDPgr2PuV7TB0b8jBUTCSyXrjxfyCtCXNjHlJ+NShmIoXA7uGaj9JauwN91rM3vHeDFylwfiEqB1C0Yqtmvd8LQpxXzypiUVQKgZ+ruHjmgMlUkSm6H2OhKzCYpRyfq9s1me08XIa2djswiQBrXpny/TSJKYn1XLOXBNieg0J0KZfVDwnmPIAionOB01vABBRCG9p4fbpQ0kNpMKUzO8RTX1AKyqlNjDMIEwyZSnpn1+iS+cC5+bAvag3+n/p2HfOXsAB2vvIrtzhG2Pmgeob7FttSe3NwOUwskK3EqHvT0b+Tq+mNN1MpFxVBggHxKN1NQZoffgJcvk3ydiPt6f0HKAOHN1fuDj0OlzyJJvt7Nnvlv7WwVPiD4xZ4Hyn9uQqxokWgnAmhSPHr5f4CSS46QFfYymKrcXb4+q1O8OAZ8MHsrZwMOZ3a6IHOf4Th024trIV18sHtfrJAFnZE/9+Q549guBU2Y8K6FmX6zVyJtTXiOe31J+NPq85zEYaG6jp5ur9sujy5Uieh3CmBpbFk1UVCqPQzZrvN/Nfu4kRTws2dxfIIK52cHdl6yPhJct8L7zktOkhu10iyNCW6gGhJmajyGa6sIJ11pErgA+48r9b0hJHJl82OHvl85jBT6dkao4eIkvzWxzgj7fYjl/u5MF2uLQnbUcJbAnSkofAzsQhfy12FZ/eLQfkCGRSduKSjdKxR4uyTh9zISdqOgWEp3u730WC3wRvQAEzjUcqpJUdYbAdArmLmdfOyZlQI1DKaean2pj8YOONJr0kUI0cp9w6QQVFCsgqKdEsT8lyuHkWl10f9JY6daNTU9q/HrsS1jFKbswTonm8eZ9pesuth+I/e5vkrQvJnC8LNzuIIRLSIGc17nZnalEhw3c8cNcXIT9j7KtCpDVgWwg2B6yJdhbax8aCOjIl1EwpmQhFEQrkJZOLqXRjaYG1R/FSXUwTAMKlnIaSTQcWzMS27p7DPGn+kC+H0qDyq6qXtnc006f2kyNuRPfvhGuZfiiQko+PP0014HH2grU9n8Nze1sc0liaIoa4wukS34LBRsECjCQyPK0m+4LhUzvFKwR/jf1j1+VvJV7f9bMfkmr7dGDDA61gF8hOuB9l/Z4u0wjAbNS7Fg2oBlBFviANMLSTl+VGQmbnoXuM0PQO7h6NmqBNpz2te6Jm4HA5BxZGETaj8eXcukyGQnMgb0moR86tb5003k67IGyTVuOLZhiuIsTcG2OEgbgyInLshI03YKXkLnWm3M379RevwXHYwpi9392olVyUS3axMidK20lgJ/XzLdabECnzxtiorTvGuJPSdm5Da05lyW7ooAAAAASu4Iwl2WTya203RCpooNXo9CJQEPp3pEoLCvu2zZ/kAZrchztXpBRnxucqDey/ja6mSQ/bSxQgYLhS/37aCXS2lzbLz5lJgwPhYHkDCujWTBRxuofIMkHvsXF64BrM3d6ziX5wdYAFpyWq9Bqg4cYn28uYOg3a42y1fG+C/14XfbOEdex56+sbWdx1fyr8BHKbjwhOgoJtL4n2hQ8cYa0lstdGqVQo2QcwgHb1V/SaMlyIejancDumwTTI7Lq99o6s62WSnVT8RTxC9lEb15bHFwsFCBlQ/YEtjPKmp+m9UC/IttmZV2Py2g4RYPy8/A7UJIR30r0lD997OwuUuwDo20A37zpnkkDF6iEt0nypiB2djcEduwJYClnOVuVqm5b9t5xxqv4TbXa2jy8J4Oo0N+iKYjoAnOx/7LZGRG9qCvMEVn/Si+7vZG0qe/bcqTf8cxpK+QqzOqlgqixDMBPhi4ABb9XTvpCNk93AFICAqL6WpC5weniaBH2IFJc8AaJTiyHqH3ycKxzvZhq/dDfxL2amCawBwDYYSqqLb8xU/Qi4b5ULaGzF3C6pG5n7Xa9jdY/lHUOQfL3TawkNXR1OGKU3Qt9IiPwxbBy2nOeCZ52KG2F69vzuT8hNhsHx0wPA/oIqI+rlEp+rrCkVaczGrZzLaoTQcKhfBAe76Bg/LlTo08k9aZY9Cg6V7D1oRV0ua7qK8l1kvxPK6r5AVfiJ26OWUMo8VeSAd0820Vgm2SJtt+TrVVSX86JlawBq2TrqYdzzgTeyHsrHRsKkuUx4TOXB1ISr2bFRQF2hNUTrIvOlOXw0lw7IPsAjQDzlHsSqJVUOsVQMSy8TvmNcxHK4PpZ/Eu/DFe+ZRoT8Cp96w83+R2qe3Cjf3/3XwCzXHPJhVl5UF95/+DAMT57p5VMrs/TqMUAKjjBXbz3RX6tKvC7wp5mqXcyIs+TkBWD90FtuxTNPmnBaO6MpZxDe3akX4JT7x7GUEUQooLv9pT1wET4w4p1fpVs2zS05Tqyyj8eCTuXo7WjaJ7XwH8YnYh+9sPHShNvYIEKBdlHL3hbQATUAjaG4Thb7igdSCXOERcZxxla9J0eVlmSGbJC/r1Z+bYd4OXl5zg1aLyb+13zCwh5ErtYAM55VyWyuUEcXNA+HKtmIbYvTln0j8ZRMwiysCvU80fm39pc0GbFpewZu63/uBsGXASKUO5LkUVLr4Jz5lhJs3YS3R9d/umLD1dacStnediv2BukoRkOmx1kQWvSTWxXrHTXP/L8Rb5BsHCp427zbG2lH2o1ZltksVR/xkFcZ3KrMO59oyGGhOm/jylh0YYuFlld/g7ZZCS9ol0UaYrg4zt3y2DlRW4XG91jw9CBNvItQ5UIUsC2en6paJzj9CfjGWgTRSYZwt7S/SFzFjujJaRfM2Og0Ddb8ZH4UFD9J+A/+BAwaSZNQB2zDDnWzPbkWZSJS1T6k4DUDpyuXpnCv653ZDV7Tr6x4xDao5bk1wJ0qk2MopMtSR4M0/K41LGKKHU4//uYTCHGtYk7R5qoTgDtfQRS6EvF0AeyYs9vLmSGVtwVY2v0woxz2XyRxj5lYbm/q37qePvxcySf2pDjt0sKLuBugcMP3nSNTHKP6yUA7hkD7/MEzevypqpYM7ug1xCL024W7eAqA/vcI01M837qiNhltM9rIe9xZYk1/oRMZUW9+nUHhB3gpm6mg3emDLF+C3NAuYy13EFUVpLDz22DWvLnW/UqV8ruq5QqiGElXaCyOusJNmNgN7gjN1gyHv3qcqW7CaPzwWo5hkRBUfB3hn5Jkhm2VWWdy4AmWryXLmE2GBoQv6nAQeUHAauxKtPzzEGwV99U8LSM6N8iAqaOfRAfT0TtA8rr1nbxpH0LyxoW+EvDpRxHDKP0XdEvrpRxnUtc1WfxCPsk7zCovs8ZXmXHfkExKmPXRnLUvoxB8JK37niBNBizjGwBEOmCSKhqDQuj8J65fFtcTisGg2qiKNirZ/dHT3lqh+0TJPzm+3bDHf6I6Qv+Lb+Sn3fa9R6eIX2oAD8yY9JWbdYbkot7Yb/jtckt343Z4hoeB9zl1fRK8jq7iHCte5vY2gjJOH/5/CUD4DT+DeI64BOYw3ABVK6PYlnNTTZ+oFze0K2DO0Kk5Iz22ckvsPfvdA3xQaMtp1nsw4Wod9R/TS6bu1jPPaS57LHSuQBGZJHDNCAQAAAABcYm0TJETMUpH2hdn/HcJZky6zSPr1JpAgkAQWaZxFbaPQXkXWi11MEeHwlTiVNhVXvYaqHRm9LfOBZqCBKcNnP/cyX3RE6mRLRx6eK9c26Lydtb9sBAOkuvWqwXZRQUW+97PoxjbEghgp9reUavdYisTLmtns5CW0QV+Z6FraS/MVDXRigzM1mpssI6QD1nuQ9YPanvfWVfGtoauzmHDzWFN3tAzRWqxFeGP06ZjXvSvc+PilUY3vIwpNuX+B6uw979+Kn9HcIXuCAvc14eXEhqt1nbzj4TTvev91edg7364egzVawJi5AosXDD1ucRtSU7iE3j81dpp99pXG4SVWKm87Jb/5bbvRiU+fPpBDorZuI0CBiAw9qqV15cjISq1Vjs/9LV2J36zhH4oDTITOFqt435LZ0Lk5X4hOsj+ijha8MaQj/fmPftA8+MwH64nqvQHmZz5iJaQeHWNF4lvOXDbU0Pny4cCbg0iWe6AHLLvBZRo1bq1sG8xPwm7sXenUloBb0nsmUjUYXa4cb9zEaCBPuiF2tOGSzeod4Rx8o04HwjcCpGLv8LcZ63yyd0zT01Li5jW6hyQxvwUqy4EVlOSnKZcZ3fWZf2OVhwzcoCJ8V0Gl+WkaLobmdGXFMKfarwzbMqVDTcFLAprpf72WDHcW1vOi6fYTGadqF8q/PNEvA6PX2Gcb/jcIA8Dnrh4SIWP+LTFUWnwC0UAuMTOnc4nwtSN3evNj88D3Jr1/Fxh5UIS6Gd85fkdZUNLyS7Yh0GlsbSlIeppkqRK0RqpeMJ3M64xM6BtW/iYvhFmsZS/i3arJZRmDMKaZCeWqY4ESzLzp+sat9oWgVt6GmSNIW+zLjJVVBLMtaq74vUjTaTNgfN425ptQNrd7M5pae/lBDG57xRcNrgaFgy6806a1iLpvtlXKTbFMbgaJz4owNf2uWM5wqLMCeyjioImxLXrK/d5MUA9Q+N8Dj0iAK0lIbQh867Q1QSXkVjtjSokhD6YOptIbhQeS1lgXiWzAQPZI0libNqhMtLGkX+g/IVf9F6JNB0yKSZIj4GdRwAOoHIq9pIsC5k3XEXjtRYv60PMmbOCv8FQ/dA2ihx27rFVLQfbC8/KuLavCT6biEkr5o3Hz2dw0USPRH4g/zPL6u5R97lOzeVEImZNEfKSu9Z5NjdKOtVUYxdzLCH7ZZ/VSbqqdoLlpB8SCrb/jl8vw968iEeTVSf6cO2V9Q5PCimZYQ5r1tRugt1xVffG82GRvc7W36Kmrwb6wch8UrpqpFtCuh/Cqmc6tQbpemGAt1fRUHGg1u839TyNnHQjLvpU1MSK1Y54RTXRLIaxTT6XYGPbvYpXquGdguoVE76iRfy+za1Z2grIiHAH8bnlL4PaBm2gCwgeqx5VxRaSeBfn56+lIO41UBCPeh9XMiirpa6EKGvsVau80VyGsMa3h9/RQVqNgVJKXVRrXSWGKd2OnGj9WJ1ewc07NruFVxBbbUxHDYgTNXxvos0rtWn2XhS5Bok9Ak3xGlOTmZo3QWtHlSz8WxVhn/xcBlBgdy1FsgF/11/mEwo/JVjnbyoaaAJ9s1yOAeMZgD7qUuKZ8Qanm2FRVAsAJRYFrVjRbP870Q5KjhdmY5CxPMOussH8/+lU62IlBk/SUVTdx1urDe699xY2I1BZvSkxIJEXyV/Fl0Wmkg/YxXWXbKYzj9KQ4TATJAmSVb9NmAQZcB/NGqII+pvB7NtSMjl0UlV9pV9cpT/Di0UAoWWWDXYSlla6nwfl7jpzf84m+rCJvO3jtzu3tAcLumXk2bT7cX38rnJY5ZsxRpU1RbAW2aRi2lJpWux/168TQaXZQFW06qI/6qD21D4iHdz70DsBX5MaNeWECMUpJd9vR2fUUkF4MFdfAqvsRV8evaXiqgLk//VciPjKYsqq52LqwUeR5PZlf21/OOkoJxmmK1uqu77Cx53K3KoDtVfl0rGssBDLiPu8Pwhyp9MzHo5Cze3MU5ulG7MzIDONp1B2Xj/FV+Gkj4jAV+f8/QgjSNIM3pq38zLdAE1Ms9wqEQnC6pcqkH+EITCt3p46wU10nEQvtOPnDXO825SXfh9ljWc9EqVrd8HMqE/c5YdpF9GiGPdhTPKNgkbyYzELyzga+WKQUv7VBux2BcqQv0YEbgGm3N4pOYqnQfF97saU2ozlWdtiQ+mZfiPQtistbGBZuODl58jd3aZIKDOM6kAnt8+MgQY/4e5qFlCuYXpmi1TJWVOAAAAAB28uWQWwhaKSaXqwRL4FbaXyuhpvSUxEM08jIQIEiL4d0fO3NYW+RSSh79gkRFvDAE3BnQun5l0a2vpTswfHa1h2mjU8uiPoro11OT1a/5tDdNrWpW++O172zIFOjpW/qrtRq8CDR8UUetIWW7L0+rDFtgqvlY6M55kwqV/jL18/QD8oPlFnSANzVookDbDIfCAsepMT/Og7jrzyQsxdarKbhDejtjarJQJak6QrW8UzuON71pmBuV1Uz4ssXHxpyVkH84gSyrkt+JhejpD4R3/XgzOva13LhE+/W3vdgU1pl/c8BxoUN0anSqW6XI1DtBI5qslsO+AnUsFFRIPQG9I/fn2jAuGWKqLOcgosKnXT7co5hKn9kus+GrR8Jsngci7T5RSsCno1mkDTA7jJfRe54UBgSTW5zTcwZOgerJH/mT4Gglp+dKTp8+puCq7LdAm5YIWxSS4e6frHnaDi8mhbazGy6P19M3NAFkz1WS/umo4bF05L650ivdtekOsPboa1UtzAbDaZU7uXALQG8PJMW1gxAL78sKoNtC1bzPiccxFaxdn7LvZ3i8NZxPF5Bs3YytADJTgFrul8wuuFrS2INgHBDM3ieIL3KhpBXdBH3NnSM7zjqL71Ts5dZv3+uJ5UHrHYupuhAwbRxhXZUhcNRz5feaffg2V1D4v25eEPNPpx5LUbdZFNvacpKzLNnKlqOQeP56x5Kq/LmvpIsnAmiZ1/uQQPu8NsNpsOeAGnMYGkpHspHdKaid2kW1kfnQE38dSFQKTWkfW8OGGNmRrcXyJMzt1dcFzzA2JVC4oojcAzUDKf6xS15+CsGMGQuEjEH9OeLEVwsWLmUp/Ek6+1MjIMsP6e5JNxwGB/jocLdarcNHEzscWEcRS2PnG/yfy9JQFYiia2SGEjV/gdabCQVAS4fdNrOWTRPRRqcpUUrZBc8IUB1LpPGtHX+RNMYUz6gH6IbhEXgAAEM7T0GQFo8tDPeQSbAlyRkrO2s2ufQbagX0jgME+f4CwHgB6+vBQIFv4VP5qZKGPa6omxjcxmUag7kV653rrjOORF2ksU3duKBRkyEzdLLYfdmqULdkzMRGa8P+q2UDbxoNNIDx5zOM+rEHvb+gxtBoln4WioEMifnA7DgXCf8X+tQJzmJZt3AmNf5apDGnaLprBGWkY6XUcKEmZfDNYeuBVKd2rqaKBC9up4stXM50UIdDvu5WICQ3r05+iYB7JwfPo2VIFT2F/tYveoW57R5zhgTGf0RyLSJlhmnAk8W1T28C16wEfMxyBCqttZSlbWHOqprXQtaao26kOweFr/R8MCRzsYHCNl/XmaXtkVfvvfD0GSOVTzwcI66vsWQa9myPlI3iUaNcu+blIhy1/ednEyxlACjTJ0a9Mn4LuyxtqqDPVQKVkTbnmyktba8mXQvBWVyOXicQajb8V8ufrzrUOB6BTLKdcyfLBoNRCmodjqGS/JAp2PMF3wIPNKqPNNCjh+AvgJKX/YJ47bt7VbMZISW9dTH/lr+xE68cNuWd70QAmMdriYK5H2+Fmy2usfw+FY3KUCk7M7YAGh8x1w0Wqb01LcswEJlrM74kfoc8sBUpIQQJgaDAWa2WuC6Bp+1GPXKbk/gcPPAONAdbyzFE0rl3mOxju7zNiSqH2BHVfYW+UypMGDsyo9CcAAAAAAOrdlAfhl3aoa1dyMpKFTiq3mGV1qUE0EO9hkI9SvSdZN3NpAu/fN+7PWCWB+Cm7Df1YbYzX2sjgaCNouLybN6NtRaf3pKu0zp2s9Ff1XTpDAx3exsS9ADBodI1+9iZ++48H4CHWp5cRgfZePXA7Ae8ixNPGQ6BjSefNQAp0XGiT/hc17xyRRxNyph/lPVEstzPBE7/j2t+PTUtuVDIeEQKlaJulrOt9oYrUNhQP2NTxkLytXBDWyEvO+mGmajjvI3gVq6LL6YvxJVH98c1B48KPHuwJOBz3X2b/A/MTXGD0Xfk9m4wWp5P++TaHf+Yr/n1+VbckIa+alRebwzC6sCnQ47U2ufWmWcVimsK5S+/hd0SOGOBlZ6m1lW9n8xn7qdJ3EKPMyzNmyKZgn5yo6456E5Re7cM0mu7ehFyobPrd42RLhOtvRaFtMxFB2JR4/MOnfJ5XVRBFNX0rLfE94Mq7i6olnFa4kc3R7woktAkzM2DjEQzqyXmx8V1Eg/f1GReOtI0esBYWyi5KF9FhoK/ZVOQRKXInuiX2q6R8JtH91Arf7V0Uu0ZTbXQmuGxM17H88LEP+IsCfB3HunLpNvD+Xcz1znQNkDUw1WHcGmdVMU5Elhf1me7OGTeVLQpTk1U4ZcWl7ZtvAjgc3CUC4KoRdnwL3RvUAnBheFBXVzLuk51XNuU7sVpo1uH4i7QsoRBwyIv90WwesyTElpWRIx2dH0itYWUD4gPiltepPD4Ez2MnAglzdo5coDYG4ChHLdS6w3aMX2+o7y3xAOyl0KdPV1LjPfvO8kgrTPWX6GBuSrMeF/gIUCdPNuGWHtkAEiSAAuVJirJ8ywMhTgSWmNTAB63b/2v3QCA5PIJjzvKJdW3jsQ48qhnDCpo13EoNPl+F0vULVC4yo4Gx0DeMzu3ZKkR2OiPr0fDKP7GR6BuRcPP07SpMuN8yjsSVU0E6f/0AWISF/u+m1Am4YAv0DGTCMu8S6LKkTMMPk2q+if1r5v3py8OWjk0vBrd32i9+uMTBCgwQAAAABHe7td22oFDWntbJngNmVqITzaoWkDf0KQLYCqX7kmlCukduWW0Qbeoz8akPRdAFN+gEsai3wfx8hEoWJo1y75Ik3gRJkH7CxeM8DMWYalQy4u/AUWATVDAJ2q5rniwavY32ePAwO52tLwyVtT2TMyen1k5sueOJK2p/RWYRfcHQH9Hdkj7Kqv9CTmXJ6Py5hFj+y3gW+Rk9MwOLkFGX+05Uka1TlXPf4f0kuvTt7eer30Pc3VoL3nYTMzafl5FOV72oKCgOTAac+9a3RZXK/I0nJ1nwSdVqkANlvzSqo8wJ5YBc9xEZY+vqTOCS0k41l03BWNzM804cGWx3qRM0TvTOparg3TIN8S/yqp0ZeqMTrO4IWoLzj4CGew57Ze2dIKM1eoQ++nJeJMKB4PBWoCqRv24GMv56IEFo94Bjnv/fQlGogrlZWHCsPOqDd1qQVXeJFPmto/rkkcXSEoAb0PxgNkbpfKEvgzI4Api/10p0jyRwzWf4/p0mRXGvpAF1XEFU/djElYxL9oGkoRu2taBLfzZ+XpMzXc18HGLGdK0QQ1CQFjQxdl/GcuVPZre2+cLaqSKeEvFykLv+hkSrqabCeCRQ3N+jdnYh4kQ7C3duUyDtRuTrzDBPBC87oVGZjAlcx/5Aq6d3ivDE+ozJg06GwVs7o4sTrH5IgnBAONXpJ+j6cFQQjqMM9u6WpGN25EsyfgMcENGS9dwi2uDAOfJkct5NsinnhQLh4w27JiimY6bxLJs48nqeo5v9OuhVojZ9qAfTDrMTi1znGzpkTpe7+1t6eDowiFQckJYbJFZ4grzIUhgRmMU+U9ab9BBdu5qRSX1wHGuNCMcZ5pe4d4sfHHyQdUumMxMiDQQlni+P//cKLwN69I7kh18uiRsgrteGR4vHPZAB/uuSJoTydRY+X1bEanczQfloozQ91E27T1+qaopIh3JZAAAAAAKZBuWgoexakchyJtS7L3Of46KE7ZuP0dbc/xGMT9ganF2pnsHST/qRncm3rggrWKule8HWXp0u5T2evn0VoZXIymTjvcGwrQmz5imn0L3MDMB3PtOIOYqe02JPgK2ESe7/LRNtiqSA7OAHLjDvwBUFKuueZI4mqtju4p3OQ8VI8BZvet9AYa+yDKYdQyFp2Hh/sj5jEf++Y64pjt+fnAbwgp667g3pRRietgwdLFHJzCpwzHV2TamavDG04A6llP/i7ZgXEzZCbyw58puCb3zzcourYc7VWUuaJkjxDqHly+jwPfp510c4g+6zINnivEC7KehimROmIF20Hl0grs12oR1uAFFSzghN1h18G6fG0vI6/+slXnmZTqS++BCHyps4eK/qXzSIjSUwntMYK8OEdAQc0MaxlSuZ3jK9JfLHUMbZIxvZCN9o40zxP53D09QSsW0h2CDJ9gdqNMhM6Jvi0ohFAax63w9PK7l9MbsBCKyWQ7uwCssPzTAK8p4jmBOnz68WCgAdORFv4eDZs318HeavmK4cd4ZE8zPo3F9OY2ppuqE89yusVBMj16yxAQw4gunC67W9CYk5qWaIOTrT4lBlVLzPv4JMiSLWSU6F88PbBww152Uh0Cy7sgIVZwDFqUtonyPLGGhb8qLMpFqt7a4B5DuEmdYbnzaY4W59N31/ddXspiP3pNm4nP/nOz1BMDGeMH23b2dm1XNk55ooLaG3A/MZ2A7gUDnRHkoMyFLeLb2Z9fXe3jXa57YNwdsA25TKUshsJi4JoztLTAXiFt5/YgQmjnZEltzwfi3i/sjpacb6rKmcFdQlohhWLsQonckdTuYTxcxczgFexy90u8ABlYXvSgKMBQ/b2TyfOcl4LZZ95+2eVnwo+1uO2Ojs4fT1PC/RiH/PVmsM6nGlHpFGMBoqKtPN8vTRA5v6ZYQQXmQCZ86qwbzAtJEWWAbXj8siwEvtpYDcecKKNYT0HYBmBce9WkXWdxcfIQAAAAAofbJHhRiew3jyGDtCRyNILi6nR9PZeu+Xyxlua42V9oa6APjh4akUJPm1AZECUljwdfcFPwmbhzPevmvftsSNdPGhpSPOr4Pcnk8jAutKedR9t8bzV5A+oOsFkLopDG6VogenqaCKQ3nPaAqafpslQfi0Ol5GZS31UC0x/Od+1l8XEatWkZi9Lvm1Va+pgDuPWHD6cfGD0Ar+mbnLoEaEHjBdprAA+zPpOt1FPCzHB3zLxbewBRNES5oG6RaS1y999fyuV4hzI3mmfDpvXc/wc3SXKL35QNKzAdIiRrknA/aLnhw6tJ8xsq5RrI+OHffHZApTxhT3pOU8LFVd/bo5XkVxritLoEuLqjN3/EceO8bu+k2KwmuEp6TdO7JIDoN1EDm17s+Hb39x+CgWrKGJo0R5ziUvSQoCLL2uyS2rmbYawJR0IuOiO95hM7XbvYeiQ7gThPADwvAYLmfFoICTutGkMQvQbXA3ZuIxHEWCmCghvIaG8ieD3XIza8osVXzXrKt+7O8TS/7TKJ3dW8X7Z16LMlwNLsYK/hkhIx4SiICUauKEyhLNqZ0upRW25zWCREpNLesHUVnXO+YZujMGErZyCfWAUcT61Je2x9Iy4PNV+T4J40x4r54pIa3qON7ciuDiLJ/da/ndANwbo2C+/Wakt+MoXT2pn7GdM5OherAtFlndCXqFXbtFYYG+4nBce2OQUZgMdMhFteYFUffxEgnL+NuFUIitlSN77SLo9wsioFkaA0Yisoq1bf/IF5y2hCrIZIMy46r2Rc3bhk0WWRLIPU3Q42IAAAAAgn7aDgzoz2kC1HZcum7XIO7gSQbvKJmqMFRKeg5KZ8sNjdUwIXgx8w2PGhXhxA6DOMZRJyTV5zhA9Uj7XLw9VixSpLAuFQX8V01lb9UJdknnCW34/Zv92VJBjYIlCeoVoo6eXkP3V6I8qyDCpFCxoBqIUDugwfe1MvWPd8pr5PjzfZkFNF81AU2B+YTxmhIOB4qyFequXsFqDBUmZI4l1nYQX7h9sU959DyKt9ygG6V6yIgqQY+PGJFYQNSkcJ0T8FPgW7LlOnX78p5rFGTsxRP9dlSpkRa9H1YbDmqiMedf0LZk6NZ0R7nqOdyvbf3OUMZKEOBptWujvUQZ4f4kqbG+a+mYHT5z/a6gM0Tj11OTgZtYBcHg0Z2IPZ3sJnY4PyIiSq5NBrhfOUHj4o8GIWvjWfEW3BP37kA7K8d1fklWAAMi8bJ1av/+R/3jflNCiR+sRz57uRqr5+9SKPh/yUSlqnKoubcBCjqCg/BbO3osw2AOwG91G2hkQJzuT0+LwDNlU1Ctq9z19Mjkl0Ez55enw4MrI5XnbGeqJtTV/lAssecJWs+icz3ZAAJ4kRPDhGJJEWJbzFzAn6HaHHK0uz1j7cWZAZ1svoSm0Ytac8y0vysHe7bc+shoTiubtFAAAAAACI3vQ7RJzsDW2fPPbEaSn80BGqCcFddeKHmSixiTf4BQO1rkLW8aCvTS2Ir06XwpGw3p+A3Ai8FoR3X02SW9avHCnkXFKet16+Z6d7KgnxQYW/6edMqja2OZsExJxPFtodL/86Z93FMNr0Nl64x8ulLkMU5p/3N78aIvAfDloxvc2fQ2K1GUtYVMAUGiTJf7CpgbWm2Op14YGVrQ0JGBIHna+CJ3ESSHmYg/Aca8e8iiDHuy1kp8OE1ujVWaaiWlJejf/ZmrYq+45rF5U1taNR5ttnvkZpyq1iiJSfxqC0kPG5kaYqiGgFLT43Z6BXCAA4emiuRzouienKs2yR+2m0LuX30Wv0SQUfsmthHFG29rDzDFwpfcOKTPuxDe7RRfQnm2z2W/EtWrOODCM1sJOfwstxki0N9MuOXwLocVZtRLTAXO/e6TWK7hRwat3fLUlopfSCvRVhNvFjXe7pIXc/GQdU+o0yJ+Rvif9MaD4aAnZMBu3YogWAvJuba9ds5ssi4EEpZDopi/aTGvDSrs8YIc1T7YIgeRPEUQ+1l5x9OSgRLxPTjUuZHxkA3jNSt3sNcOT/jJirAAAAAAO6Fb9gaJT47yXZZj7uC+D6kETUPtwSmCo+TUtydcPX/0duFhwi8gA6R2ZjuAqII0WvS1kV/tzaM6x3v74qQLHHtkTH+HKJRfMg5zO/iAGZI1q/hvBKeTpVKJdY7lj165tnNpVi7y8TNjMsgGzjA0NfASrRR4KrBmqVNVOkSrEK6b9QQD1wDekbrr/BpthChuu66vKjFbrVORIWZtK2GdGS1CVQatNqwhq7k3MtRaX/qqvLVm1JDaMyA/z0HvjJwH+pGBZfiqU698rV+IaJ8htrLlhy75N9SL3pSbqHjHVUf8f8R6BRlUWKgLtyEa6ZTXX3kEM9a7q/gDjPpis8F+zj6X2g0f7OAmlduKyJzDNg/HQKp9I+/E+TnHJpyxgm7MNZY4LIchEE5E7Jfw3GXNpZDsFX/BCAsekYTJ8RmcioT1RfbdN3yJSMhtg+xVZVsbc3U1NAkTsd76DxgLqsRLDgg2r2IPCL1kx+yzGNbrdeN6LDLwaN0jKpv4ktUIuD3/YxrKAwAiaQ4ma4sEgwshWRbWc/MghNX6bAX2ex8EmIeNDTlS3ZRkPpXOcA13puVfpXi+wDGIKL0VposqgTcQaJ9QAAAAB1nOw4Dkg7rtzJDLxrl4gA6uFomIz6ZxrBaj7f45WXoYuAmQQoQSB5RqdrteNtva11KUkevPPM6DdR+jc5MIMwzQfkCHPl6AGxCFeLmR+UAgOAo/St6OUtK1stjm4Y3OR3IVn6PmYe/TEkBO0vzk7VRTZp1SwG036d8wfs1ERriYhT12F6jtQ18/kI6fAi2tDeKjxJo9g3kbJ3DoTU0fC9R9CDikuX4SSlZpN7SxZANV4NyY6gJ0+1RTs1ZxP+Yn23EgVL8CLcf+aK/CjPXRX85TItgseF9inwI5cSCEXqiWcTeh5qBTSdG6deUT3VeufZCW+RPB4ZQutM4m4VhdVz/q3Vhm5x5ghSnn3ImKJWqlj5cW8OXtCO4SVccgY9MQf/t/FW7V/L84bwfRPSY4Chm8B+lIRJzeRznpeUiGz4xr9gqOZoYovXK3aEBNtPcXVfrO/0obD9WGnneaHqAfsU4/LrtA7oZQLzZNyWHh4nLLpoJ06mRgWCIQoMB8DjDufN8XjL68+/j0lb8xL3X6wLtQC5ZyPL6znxoffFGwPuLj4SjBB1qv6Lx9OXJnLtfJnD0QB1lMFHtWiaAKhWQnhzd2/s4vnFwST00WLmiseTmKLVPOLN8BrOwaOEvZSpGBRHk6+iCUjgMDfDHRD05P4p4PXYSLQMTXO8KMslqYyLXvtoIFFE19QnyPDEmwQYnoGiLguVbygXAU5uvnxSL187KWlzrfMN8yUP8PH0pMqAAAAAAp2KjsHe5l/Mt5CslPvSx3xPZbBOiHWaMtJndsLzJPh4yBKcgBfM5c9mpc6pouu7AeVqrLo/R21BIrD8fAWVotHXVMHWCOZMTe8Bo5QBpJO7YXRU/DbdAFIXMUVzXHLr5UucE++RJAbxy0bTfxycPRM+i0E4PedQfFOm1TsIu7SSDkmp/Euld23ZsUbqnkQi0bSkBpaFqyr7d2H6sdybSV6oQW3a6EBWYz8GUB1XufTUx89sh6t2k8fL4qCNtxjXaNcBym8PGOYan6Q577uSd1L8CKSLogny07utqjq79tDY0K7mp3NKQGzgyh4JsBCtMeVQfGitmJj2H6vlDjMUtakwNaW/g8fHWLKAf5tv/zZ+ARzaQWWuJs526bwZ4ITfVgmsuz++V8sSyg5AWERsDgaTE5MfnKyRDQNYHROaODuDwknobjQhv9SFpt8Ii0fEn7mH9gD6fjZWReuOb3Cnl1IuhoG8FzpMmFQwjtA914y6+72ifIk/uC7uG4CkkD3frURTmk0sgOMOkxVtp98d19CQeMFQjMqVY1nZXQezv5muq9f6gBP3QBr36t+A4TM8QPaVOPEJLl9T5q4EhuKOcLxfCTgK9E6s5t1Pia/p2rtO/KaKEeFMgp0L98jQo1M7qwm2ZA78C4y9SIPMLtbvyVWVgET+w2tzowbLmg6cVYm0lhlKmuBKz5Gedke8znwtvv3K6yskzJl2OOSpxAY89NqHxUdJKXpExnspLOh39jns4H6R6Gli7z8kGpW3+xR7rO8nXInDW+dVjUCApaKNFrdTjrpWoalF4hFBuOmwShJJGBI1ddQmXkgoRW/3UizRoL4boG0KrOLzt0J95HuXAAAAADRh1Scz4AoQESdjJDNrRPgtKISuHEGaxL0mjM+Xj+Uh9OEE5tprUSF6NL/EfcKS3+J2Cl5aOJRyq+H0XXZldoL/GQQ0qpmn3paWKcp18PE5CDunEZv1BPQMvMnIEeknqlM9F8mmgGqKHmyKtmLoca6o7oxG40D9oYAAvSjOkqDMhYtFjSsbswPcCKauzkIXsDzqx6mz3S7M0mFw3cZfomf4krQKIwyWMXjPNVjw4RU65srl5R0mLA99KyzSf1JKnOVD0cMCZdbyPz99kO1L6ekvbxNjriwrJCsL7Z5JI8Bmjqic+HSQ8PEvFMGcnxy56iD8ipIr+pkm9RmCGbYWk7NYa24gmQpDvja0TXAf67sLOhM7XAOHf8rhvyvCGK9cJpDS6ocOCHcjxFNGU0gR3tgN5oIPAJs3tvxW6cfhiQ2Pjbu+JMO5ukiZZSilTksC5rcOkQDlIVRZ/EI1RMPckFNDMURKWIik/NXZZYGJvK2GE8nobQ1pA/lD1UUO2p2j9YfCyxafsNCOlGxqhsYODh9gTQrMulNutmTAbroUbzgfvM87lvfYypS6yIfMQk/SuhFqHRAeVtbfKRF0TXTaSnPvtc913+24BqrWosNt9+8bQlG1nnbLaPRVd+QdHL0YrdUdHgG4awz08/7bsgUbNxVR0LsVAtMfx0cfyF0QTa47q31bLqYaCwUO4RPVy0Fyl4D/Cq9VCqtt5acb2wUWawF+pXzeTFhzmqk7VXBsiNqJkGi+z1/AzqbJVGBhvvVvEUjd7X4NMANXrPXtwSR41ilcwb8DWCBOyg1228OAAAAAFQNFAqCGhQy98P7HLGkpmwcGfcxAUGpstWibRXSWGvaD7E6L34LS2UNWR/54ih/XhoNT0a/DQLvxI0vpulciUkZMEejW3YunH1DmCfGwerBzTQODM8ndbImEsmzBqPE+iC/OXTrttBIBVanOfQJbunmt/p+CKyIZYXHyCwTpIQWi0Iepy60t3UR2ljjeJU2dEUh+XhBsA8PkQp2O8Pt0f+qVtugu1wmEoiRcYRSpgsjDROktVTpcVZl9pGNe/d+OD85jGzppo5uoliElTmGSenX0LyKz8isw/NWOUv39B1kOIQA3QtRn84v3jXvrqtiApcEo6o8T3hROv7UPtWdLEqrAEkcLvUhlVJvnn023YX8wLkof40hfSFZ7ZZNrKylQxrvxznS++oF4QI3N6YLKrBYmdV/xYtQ6YD29Aac2EmTqfZJmhP8PyQ9X0Biz7TAwNU2pzYMmucuIcdRvDtepG3w3F4z3OEYb7sFOzF5aAVZgnf+SDbGy7WA1iOvPBRj30vPCHSVr426uR/vH5iwmlYH/huubwPCAuRXcjvfX+Sw9zcsinLc0odwPIRw7BfOrBBEG7zLCeHFqERucyR9yYsoNNXkANSWoB1DuKJn3SGOCrmzFDmo/XSmTf8VVngew7NK3B5DeEYY6b/bfyQ3YUhuq6y4s+VieLj7QgI9FAyfdWtYtcQkv+6gxahUYghYrPhj93b1j0EN77nuqxOkvtgC0iHtsYKaOJhNUNcqenBzAJDTqtxc+eoM6YFSC/wJ58J+SQazIXeJtCawgApu1SEIz48ggZmWilnwzCpdrGsveGYWexpUnK/YJVpx8exOgLmv6hYSB+fxPc28z9WbpTzXpi+n7qKIi0Y/PEIlesluDDscKFrSNn2vraGxNo0VYWTFSTi40SVSCifAiZS7hTwqQA8hDmAAAAAA8e4SuVdiq0LCwF6waY6Cz0cE8l6Pg5gvB9gVCw/87xZaoB/hl5iXVhoymzFK4k1TP0P1/rZFYbrCZPTEM4qN2yfcXgaZ3Om5OwMZzUxKApf5KqQPvW5l5KKWWHjMxVhBklAhkxSwpQj2+IZssth+XoQTnNd0h4RKgwBGS5/7iIGxFsC8ixTgcbDZuzEflrPffzxq6QhOrOijgQ6n/VdX7Y30nlqVNny6ytmVgOiNh+6+mchIMIKHyam4tpfFur55gnHWfba/BtmMt3vesKyjWlVxwV4Ve4RgNiqrmNjhWczv3KBdOrUYCsO1P6wbXDXnIvH0VOvJ9jCRVHBObg2S17HdSHPBsIGQMMtKd0FOscCwhO+nFwON2T5hSHFkBVwx+DNixPSABZm8tYNZSax3FuI51yDqJk2xyQ27sWTe0kHnk/jikpaQv+LWXjOvZw0jqHEXYi8+G0wEGAUjr54GLlbdEQC82tx0Reym0ZeMIchBXUMShQ8O8VmZXEgAQ3KyPnJ8Gf8dt+c/wDwzc0bTa0DrTtS+201sa1alY8dWhvNQvG/pOfoSXduNZdhiV2r2zZJm+ORGm60TDEoOfaZ7ywBLnraBpH/h2v/VYfjCvEdZixiDBbhYfpx6z+nqR24bY9iokdgZUQ8YltLw1xUP/CrdxTwSPsN5dkn55xlMgQUH9LwLzbJxaIScZHG3RNXHKfXMPLOS+wkd8bgjt5kjhE75NreAf2qWLfZGsLB7kn2+0dKhblBJa/JfwBh4wMSn1JOvQrIsxVS02ek+8acD7f/wPAu+OJYF0pQyuPfc/H/EBDUJAingqaPHDEc5NQXt9mK9VahCW6kv7Lx8+zsYmhRj6ubKgS4Vdt7eILnYtpefLSBVrCtRD1Dzt9XFm9cWfF1X2AQ3SzqGB0wPUy12hr0Vy/zB2IM/uRAAAAALWc2P+V2xnGEMEJSzZcZ8iFWKJ9aQzsl94By/j2xRF02+KvrOLgUhhsOE4hjTYP7vI6V/FrcEv33WqOUPTQTNloc7gQR5HlBuh1a3tYVHscfYWaGpqGB2c5taXeYjIjlcq3DelEaWhQJLlmEKELwZIaV7P30nRFs4xzAED7m/sYpxtGcN1GtIkfpVPaYOCBetVANG9rdnfgNZLfUjP4m9B31YtW2+zRYwUA8cobko5Q0SvAqDNiDjDWnlqM9V3jVKezHnOZ5IUOiKw0PiWLf+xokKG6BBj8iiWix7wedjLgK5rQVhjLYEoX8HfKhRpFW+WNOLBXLRYaU+gfjlyOHb0gW5Mmose4vKl5KttkmOOROnL0b9yzLRUb9u8CD2X605znVZt99LW7AcQR/WFus5y6zvO/vO7+ubevPttWnYzTo6Gg3f6qkB5KD+9oWeFvLbqkecH0XAkne6KxseJcm92t2N0HMJRlKqN5kbZ9kBFAwN2v0ezigXxGe2c4zKKu9PBI2DNCiuzJ2d1MKQ4PqsqU56McGkFf8LNAw9xpKfYAhWkYi5U8M0ad08al3hSWKOjdNOzl4R9FGNo7ZOfsPQCJedTp/7mgFAnMm8bSZNIZkkW8rpFUApSlJfjeivP+M7t7tOjN50IV1c7Z2RdKllh+IjC7ePdMHy6P3Re2Etaf8bkMzGiGrtyQzmO57Lm7BnqoH71qi6d6oqNjWQ54uSPdD6st7j++UjuHlLXHStBal6NpjqwDQJa25omoyWVDHMqbnn7YAVz7B8T2GUoqr7ScHEvApROpg35Pv0hfoJW6YPy3lirHCwIqX+cpjI7yyALiySBoP7gCm3khAPRMeryJZCVJH9j1HyPAO176K8zRx9naQybx82wJKHnUHbxtmbpr1irrvf7EGhgOy76vvXLn2Wxk1rq4nNfytDF6koIfbQZBE1jR1qlfiuARvi+v9UYNrclBzUNWw3IIAOcOgJL59aa2K958Ld4wRy0Rlf33n3quv+785GQAAAAAAnvKyVCUUfxL6Jz93zhnQUv1YgcppthhKZyrFKFCR6wuglzysFjeYzBcAb3Q6Cpn6Qb1Z3x4nsGh0tqLRGUApeMffaj7nvqwX6dmItt3fe8k/6/2+XhCKzASizmsld0P43qao7duSv4gM8RqBE5p2ZO3OqZEvtWXVpldE2AEU0JbvowwvcTdiuaTtaamitC0y9fjoT6wJOheAs1gDB536bEBtFTdojlNqCiswRjiw6dd4tHnvhG7Waamgseq3KLlUsoXLR45w8vuk29oMRTFomr7kz/wh7BMiABiUXVcu+Z5hnuaj6lixge0zg3Ul0d25UlalWW7Vqq6jcKQfmoL5zKw3m90Kpwy58ujLH2X0HroZRK/pw+0/x+oESIk82ndLUhcxctSfsRxFp6iWkXggePl1A+0nWIZWfxZ5jScsCHHoTJ+Q3gb6VP8bIOJ5Q5+nhmNzIgt5GZ176HF2x+h5a0Tx1dzAA5TZXWM05SOQMJ2uH0Q9VZmPPYpX7OjtRirytwIhJsMJMg7FHtmFaQI7Ko9ibm7znrBr1Uhz6ompt2bhNPviF40WYhRaHmc1aBbg8C5IzYh+508zFbGMmMP0h5cZ/HL0ws1kVqXcrZru79LfnnB0leGRFiJeMexzulKYjUgBhXLlyqNYDM3SwgdF3ass3W0NTrnFt1D+NXehrqLuGSal/X+C95n7cvEV+0U6aOVjge4lv/l3DQHMjTtzF7g5mufAQOZ7xShpaoJRrhBG5l3wgYWk+lzPIpB/ZYV1M72GBTJwr8KKThDe8LJIN79P5kwLKo+9wPp/ZVInN5oRx+R19KW2k1ubIjVbL6pq9tFzfSHMO8NQYHNBWztStOvEpLpl/1u4nU9OTZ8i8Tk+5Hp/BjsxBWRLRlaN+q7O8DlpiU+pMOfxhKlMXh7t+ZcKMQSdt+kdayifgJvj0TVjAfpbgRqrAbBnf/qzACrCAvTeXWczNu3S/v3pp6l5Fj2FA2PcqI1K/g+xx4SoelDjtpk6TB+F89s8JXMY1jhJTKiGyqI6AfLhX7IsoU4UXXWyqvOz8PBjd3BNPiFqj0PFqh5adjgYPmGHqqmPSYgJ+sgacpNCFKcwWw8HKD3ugYgAAAAABLbhA+ywv9Z32euN9LkHkAHj4XejGNB6v09dUx5dUu9LQ2NLbXYxiEq+ZlUKmjQ+jMZfQDyHQuUO2LwCOTUV6o1phu3JdX1NxHypo79GgeAwlAbZEcRbTEk5B6dBjPlcV5tI3GYQbbhvk25/Uf6ErC9eLhlsmJHurjX3IqqaOq6uUzceOv6B9qaVnsC3ysarcSRuVYJPazQQfo0LNrE6VLmYC53q+jwdcHrk4erA4HULj2/rsEQ6T2xkpWcCtH4eClu3JvSZVfI5BV7cgDZBtrAujhgDjvX6w8ibrOPVL4x6Le08oIZYwJFh5X8UpQfyTTqr6hB3Hh7rGcaC4GVZ/OeUbDtnEhezimsrYZeGQaX9P1XsJenyBjbm3gly+FRcT+EIkssVhLv4c8CRg/+5PJchJ9JhU3qtxbJRjMv2a0zITKFor+7OCVEXT1gHmSAPo3dHhTzfXznyh5wH6x5vUGIAJBg6bIXvQ0D4VwndRUHVmbGO6+Sob1eNiNWzfzWNsRaJbN8/fRs5x4ATmEDXsiz93lgryeWGPLNcBNpvJbBmzyrI9t22lwaZcbPA7ZqZmTzOj/vlLIZJMQAqGTCAX4CMnTYBDaBUkiVyRtx0RZrPv0PNj9+NJjENmiQg/FUCq0lkw3Qyr7tq4LSffY6jzmx/BeJm4j6/+Xoo7ZrjNCFXNGO5G0W6uX8c1H43xyRsU3Tqp8QLUWkyOfx+A4Mh2EDCw9/BYylyaJa+AhmXihhD7CK/LtykGuleWr7nW345yYQJtVmNZkuv2AfdNoD8GDa7vzK6uEoY+y8FSv8r5VCXngrCwvHfq84zYGsuouWTuDGohuGFOUbmStYbkntnzJJarqu94sqyqwXNCcxVNA13H04YeW8HxSsnOIOG/P/W7a0hiO//E/+9S+5LE6N0jeYyH6HfRC6tUQMN3Aw1I8xeUSGr0Aa9rs7gMROnTkspfWRXhAadD/4AAAAA/6olWMMbJr/i/r7Hzr3YwuFJU1SqkPgUQt7iP7CuNO440RConkzbguz66e8WDtFpA8ikXGfuFKqjAUXJ3PJ4yc0vfRzIhXMup/qR0oxPY7e3yq4lfpNEqT8soIwXK6P/Xcbu7M/cLmm5vp1Uds+gW/uVxJDWFPYPipqSuxDwyseS93VV5FtFZ96vHQUsHQrs11SDyLBXJbJ9kui9LeHEvbSa1x5DF9aaxskraYLFGPbRdR9kwI2kcmbj+MBgGXBuvpWY741U7n/zkuYOKdMi1aYl1Qr7pTxRWTSuMYQqF/y5HMSMC5kM7L9jkRvVBF17yi4eofJ0zT4RFS6BLV0RwinkHQXqXSzIh8saBw7E1BNZrqrVJX4GE/zwdqTO4yheYMi5iTXUBJQwqrvRw50qmnSRPl0H3YYSRm3xKE+SH81iHO3H1pxjXunFWhwCkBjdwcB4QoeDvzkU7hmlFsjl+qDkdPzN2C7qTykGBdKQjWfz9hfMa8T9o0NIAZyBQQ5FtYX/Et7ZhBRzJL5s/ofcVIII5BAVGkB6K1no0aQLZcfDnwrEu1fwthwKuNq6WTayD+MFq9nStIvEvb+3wXxEz7X7j+x73Rz5T1q+LsOxCV3PXEA5S/YTCh4y98H7Zxcuo1Os8AVhdzRAUloCYY+WYAQf/sZwtLqtYIodOCC4G865nFHLVqjuL63uZkL1JThaqJExWfja19Yz+Uoi8rGInOI/iL5OY8Is08KCc6OQYjptLGBkj2lB8UXa+WF4gFrHmR5njv26GwgiAHNA2Nno9CRnKADQw5onWwHgFX9vmmkifs4oddtxnobOiKaHaO4DL1ZpUR0uqa2IAAAAAQVZ+cmxc36tDAf8TKNvssg6DX4doczpB0n2vUTvs7DXlDmQRoSNm/KaFE7xodTlgEM8/OYhU7vTJFw/AqDZoR413N4K/bCvb1yWt7iCiexux0E3UnhFrNvGdCUavMWhrc3vqA3htsHtk6c4y2yhR4ArUtzNp6KaVg638sxDelN4MmLyDPrUAlGY+gMkr2hOYkLW0HU8V8PjUhTUvnkUeIn6j/k8FhkPJNCRggWFLpDgcicvU7jbC6qB9ZkKSiW9RqSEzeY6xD67OTonKnuGnB/cGfUe3x6X4lvCz4kPP7BwbUw9O7QIVUMW0JTQhwI3GOOaui7EkjSS0mDCNHkGKruse8uEcsIsDLrM0xSRBz1gYebjaoJ1lxoQMcSP3qUOYTjrjhSlScLSV5OkEQBpw7po2bVriK+QHrCIihUDDRKeppy3vbF/mswjx33170TO/GrnL008VX9kI1/z62urYHfeySJcDfQRxYJEcmpGuwL10D5q1n+ik8HkPJvSmF+UiDxmDqUjp3WY5mZRWW0Mu66jlovWLLIukGy7wFw4ZwAUKDGAV5SZWFDIxCUSzUPxYj5BqaW3rps5bpg6QoGvX7wpimROmQzkLWd/ByqSjnRzaecqLqgzpP0trYf+xBCARhVhyvzsL7JWoEWWeQsRzOvNuOWTIPwEpGhdEKq2oXMeaCU4bEE1srIU0haA6J3dHM9dGow/Q0QwAckEVD1KNoqQNK3UD03wWtAeP+C0loyJtWkUUwm+2iw1aRNstohMvLvST5jV6VfoXeBVg8qTWbABfp0FcdVNpQs9N+yB2BBMbxQs/vE4m58eSSS5da4+UMQZRhsjei+e6FAxjQlUuIDuD8E4suNRnS7IBE/B0DD5niTgosS5Y4V57aIdnaloErb5nOQBLDiEIl4uT67UTD2WAv2SewQAAAAAPiEr+7CPbF78BiDwGYJKBU4K3T446+AZIkRI+PodUmjRsH7v/C1ZEXsnMyR+nAhCZlHgKoUzyBE8QidN5YM1bYlYV38K+1S0eq8arMFZxZPExjqHQB7Q3IT2eh+jp5aoMHcnA27ovWA5c/AcxN7w5/9CXdeXtjHoNTF/UqoZ/eRzNLQSqKb8E4uq6Xa5cSBQO6P51bIrH3qAvztz/eDbIx/vj32umT09xIcm7RGeijMlTE3sy+hFaAqbY9SA2JSM+yGNU/IStCPik+p69C2OLtm++Qql8s3oQcownh9fjd/XeChn/dj0Q9SDbHKDBbwYNfUqB09tUab0ipLu7y6ozRT0YINCV8M+2HaPOVVvlDMM56jZ6L5p6NZLP14V28TeZKepulefGqrSMdKwbBIGpgp7O2mJ+oXnt36WXdKpGvpZ51IdzTISqp01Ee23lOX3bmNfNXL3iB/97meqCfit8TjTrp7APo7WhFdb96c3cWHiiXDkgzfkiJW6GDpOPxBxeX9YPzWTuPFZg9eISPK6OgdCsrSb0UJ4Ben2dWsQVMZtZPz+sj4MkJWX1HSo84X0OMKwebUPrV95YK7XhmMXOK1czRZ5+MGrvk2INQXfxqcBviOa9e92UBNkO/SjBxUXkauqkAYIdz462U9NfqFxKJO5UBFx8WoF3nfGorwhZT+XThYndkxee8WMA4YWChsh4LpwdBDWyhSKcps2G4HZd/yGo/W674AHIjJfpgJuh73gJLgfPnJohfFPOAEjJP1NqCKDcINyPon26MaQ18XrTo41naHMR7kYEZz47JY6UfmjaSXpUwZ38JNV91cBWwGBIKp9Ho0qJqsfZ8JAoKqjwPds2FxaoEbfg0kH721qIEI9bXZZfbkbYrbKb2Q8NmF9K384k1VRELR3nSbEWidX1ZbTnxqV+kjkc7fX/YL2kh3bdLe1Yhg+0uq14qV1dAKhrPBj+Nty7OnCzeyfYv42l6/GDziNnmLHjvGpfY5R1aZwW8xjEpMu0n5vjlM8gwrkKtLaCKLIItw9BBnxVVsRBpA7L/zCm33U/EjRe1EMMtS3enfvaP2KOk8D0GVVDZDoZo+pu1HnpE2sBYjTOJkCVpAAAAAFE30jCn9pak+jSDZV8aaJ4kvTNft2p6ih9B0dXk0W5KlHjkN6Np5u6w58ney7N8bPmNVw3fsuUR8KOwPiEO1gnyXQeanzfn93Ovnz6soe11hQaZsUusdY/HAlBjs6A5iH4xV1Qtn/NrGC6eJsiUdLuN+oeU9S2B7PL6d+KIo8kfo5EC+dqoobmgtXd2M/GahFb/J5KURSnVr67SOM2Xjmfp/9NlfuxzfkkYrHk0giwklns5df5/4wA0i5ducu4oBwogihhrvJcZLdG84+FrT7kdfXLXGF1du8J9w3SWrWLA7sI1lD6rwm76Tg5+bif+iK3DHdp3evnboZpxN3y35jttFjlB+oAqaQxg+Zncdhjcr76d0FaX21zv7bCzw+RS6JWdiWGzA/8Whx7b8dvPj18i3EbwfLC9o9vIB6WJO04QF3hwlZmbTz9YYWGAWh7xJ9KVnbzWaBeuOHd2fAoi/64zVw6Qw7UclXG9f2XXeXV4ockS1g2dPtbA3PXX8x/S18xaDzyMT72gU+gkY19NFXZ0fhl/1LvokSRQIdSd0uiuzLOzRYb8NnC1pJ3qKK2kMWmpcXK945Qf334WD7s7wtHa7c+UvFhhX8S/Gx4iA8PEXtkTiFLdA006Gj6PsclPMyDY/fpM5bKv7v1eq/76+zY/Up1FhOYKmUemqXQIDrjriyyqjjbKH5FwG+OmtiIdM2i7/S/T3KZHLvH+SDoY74MemQFukBfsdvDonPfKhtLPQ+LifqxHHkQt0+4wTUWOTsA7r0GywwkbljTNfxhZ8tgy2eU+bslygZDJnMD5sYmkktBo3gNfopL1b/Kwuh4Y7afo9uGJDAc+ni3xH0yEMfJJh4N4+xsVePrMX0wmHXOzNLmYV8g7A1MgqjkAfwYxKdNWw53z/j9Yx4gDOkRHtNQUmJRVtYRYDmCl0EYwMa9MGuKCMMEIV76+Cn0/fIq3d6CRvvk1re889n898Atb3u5sSlWTwt+2Tf7VxR4M+MVc3Na9DXPEJe8sWQTxTuqNFSLQYenWnKzFutGoXXIeWEmSAzXVyCaF8Ca3Cjs8GDVFsE7IYSnwAamhy6/P1bSBrabf/MyUwxEYiw4Xglaz03s3qk60gypXf3YKCgChdSB734wmasAAAACAY4/AKkaPkef6RfRviyJz9M+uCdNt4tBEFH1zWOxRW85wAqOjoQY1g+wOBN0n+Leewry9bKtFsfcvtlxya5guwG08OfYR2zqg1cJs+TVgpyh7u3yvJEjDhmsBwrGyJ1igpkuXv75WmSRVQb1efD+cE60QQiqmjJs3Ow99e3twkj++rTAg7OMZAG2FDO43SyRhzQBoLvB48yvWaPdcB1/qBUvyeQVvKuHQpaYYh7bEuo45GCNiBgcFTPVZC+tdUFegIhuiBhzig/NscuS/FISZug2m1jv58rYXoT4oVjiL16ZFTHRwHz2vqqXv2TCbPc+Z68gJ7bmYOFuj9ZMh3w9Ay2O/PFVQ+VQDVk+xzGvF7rPna0e0Tah+vthztTvcQ7rEAopZXRl/a7BZImbOrwcCkAB6i34cwdy19CHUw9qBAkPVnjYfNinXFFAenXHUHzUS4uffbyY3FZ+Q8uXTXdxJr7dzRsXSPTKs8MaOnf5IhQj27LUtq2wZ2r2K+GSyKeq2hHB9LHBECr4YUBxRAJhhmcRJJcVh6Vm76l143HHFHFvV1EvJ4djs/VsRkRPO7XONngjr+K6j/J3gKwUgiS45m6fbWOcc61WPRdOp/I3vT3614gLGT+UP4ALGRY6mxkndxrC5oVJeL4FmY9cZ8KGCVR5IrKGh5y+nd3+/vt36ma/1L58MH798bPw41FmBtG/iE1F/t7QzbGrZyIMgegS+A15+Su26xTBdEq9mO+QRguPGxTso72hupqnxfe7euuIlrQOJegY1sXfubhOqbFMD6SvyJ8k+njSTDG1C2nbwX3LzI7mSQeeTVGdsKqia2wYGZ+lypotrdfI/YyqDN5JxsC5gkbcTGp3PmnVCN8CuHK/HzYAfn8LLCala9lEk5LcdoPv0OJ2E+Ae8Mi8pNViEuZxz5S6twBP8Ert7dT+9UvmXlA6VXl3FCziC8SE4S7j+2JmU4rwgDyBWG2wLnZwoN6yrmdwH4tVAD5gd9k4WbGDpeA5qL7tJRF9oily7DNsnwMymNw+ywow8Y7fnFz/IUfetaDRT9ei9AI96Re9Dk97tp2ib2s29HRjamz9EF27BymjCSd9uhixXpH7NTDDP0MIBBryKfNWtpmd+oI5miQe1xsknogQAnusI0H2lTttCj4z/mFUt7FHYqDTdF8O5nRz9Fuydlpf+0Z6FLXOkPmCzWL2FDcBhUIAAAAEwR0+pTaMoMR1mu8zL1yJVN+czlIH2nkLGaV8tNslDHqlUCII7s9z09i9krEqgKIuaspabq5CJ9a/KG8vQKbJuWpYdre9qGKk7UKCANXw5X8XNQfgAfZKvJ34qfK+TgFx4VQdGJvzgBYwwvIWxbPzfqtk6X1CsCacN3TL1L6WDmD+cFRv2if74wfdW034cRX6h0R1aRReTT4n2rREtynkBIDi3fZrhY31jaEWzcLad7Ww4a2SHrUAGZk6JQtGR07I+UV960lEt6KV6zk1fb8H8MlICLai8ryYL0aMVjcdfK+6om0ziXDKkoyaQYH1iLwRhmyXA0lUVzB+/JSNN6dV6sheebeI5mshCeREixqRImEKVpBVACOfSP+xkca616n+lqIeKdeOdJuD7Xpb51WnrO/PyPMPU1I3UfZOhPYnxrzRE5VpH0aoWMDUUlu0zkpw1ZPmLV4bTEfX4jSaYfyDv3n8PMGKGLIYTl80+BtHoXkaPdSfmnQzDUZrC94XmK3n26hbBLLktX5LLELxCulrHV2WTM4eUIZbKcrE8EbBWWb9DItRWBk0FheUpvB0AJ7dlrsJBFeCzfbkF7ad1easYdokYbiyfaiFp1zohYX4y8ykBrSpfn+aITFvSx65FadcidOMGIkIaOUHWGrnlm+CunD4kTG4gr/O/b/I7yavRjh3PlvUXcg3fXJ44X+6tchLPKTI2dbFIOc+QiOI9P/NH4Oo2WpIIXXE+O9oU4lcmA/6sJuwxYv6fJa5l8BG3qT9iYLaPrAO57VZMEIZBcoTU3uJBm6yeKF4bfVxbvfldv2CaJ5pWM9qyNI8tvysradzOnYm2zWuv4eSR68nS1EuLjf7YZomQF2WvDNpJuu4SFAPvaitMOh1jzyE1pMCPVG1On5sVDzeHeBFMzPbGg/5ixEzFl1dysGqtTGMmfeho7wFX7q9nBIp4jlbTH5fFM+dpyKtTYSA4tOnz5ZEWEVxPT5rEeyv6Rbu6AZLA3qnZ8K2NHFF5VawZsW/hSAfnwqkCNp6i/ncnWo3PyIYJyJgiacapbU2D7RRaBgLSoDclHoZtNPmaidnJ9C2oVIEyfkkBjZzGxm3GWlBMkIy7bC6eCUyjOi3B+buRf22FPkpK+8Q7sNvLdMR40blLgJFM1S0M3z7B0hzvgYT0b8bYpzIGGyDDRuJoGxld0M53e/+bXB6rV9cZRffgIIAMBFjLXY1bRd03zLQvDw0XWwmdZEB2vJ7ENz5tfFAB3bqVDSC9zydwHLuj1hncVkXPc9Q7R3+SkPK3rEttPEKFKzesKHs2hXU82zY9rfY1i1S+7VmEV/ofbFYj46RhrkPEIIm+zopffBbNj6/wrmfiFGHvb3LEpWNgyeaafTfHAgb0nY57uERI/nwBFwEgZH1yfJrRIkGds1Mjajqq6hlSCXeSJkgDoS/rVCvC6lPb3sHsxDY7NkfxX1s8LVLAAAAFAQHKPkf6+fSetYQXh+DbU2zwVEj5ULp+g1AKbenRrA9r/dotPys7sn9eTuthJZ+uFg/PvS4PgDkYCGtdroQ+abGI8P+d7l3EfEKtZ/tQlwatWiE5z+OXy9kJOvr5BXpat8qzTUpKQyHC6JXSDi0rrfsHfzFmtPRPxMLWSlTdCwmBqClERhUZ9fsaCriKZFWaKtggW2kb6wmwdk9AEHqCJw76pt/qhqa0Q4pxUsCaq4G965l5THpCiSp3zwyO/so/Ke9wleEiwqJEk6tSXDLlQPFm1eziQTfD0O+qQYLC7q/lGHg7patXdCsbBWP3V7XK16OMIFVSVGoFjqgPoM8Jf+LjmEGE9VxMdnixfVuiPh/cI3IzSPtCzjYcJ+u7de4RdX+KjyGdDW5xRcsc3WMBFSaoFrK0cKRbq5xUpVVIc4rhanJS9kO6wYirz1U7OXlLAyQL5OhhGfZmoIyRjh2MhQdKi857cZoUMhhahtVFPNytajK3d13thWVWOyo8SyqI4AODYAokYn9CuaJ6x3pENTjfdNfDRYbZgTtFt3bCmA2/NcDOpt2PZngb/2C/v+T7TGELlWb8BaXNSXBT/tqTWFGloE3UHMKOPEJd5cAOMT44E+/NMX+hk8PD77HPaJVWdJy6qrE7Ev5uBNkhnMAXcaKOZIgaoZQ1Gcwrn+vhfBnwO0sVblZ/fMsGDxeiGdWg+nSsPuHyxeFDJHEfh760lP4EOGeKe5JA9ZOHwyVJdxS43u2nqkt2fnxSCUcQW5e3VkEntFN8c38HFMb91VgdWb5ai1lGX4kfJtM0EN8GB4UDw3t58V5R/qgohJ2JxAvsUOaWueTQ/nK6rcs26PzXbQihqLJmHGAHgBKGgjDkNWj8pxihYeLF4RV5vUSMZA7cbFO0D7plHgH/9vo0q2jy5KX7VWtLmzXDqag1nBaBxcqtqMfbvf0rfUvNpYKDjjlXLKsHgfAtwXfc8vKpgePVlA6Uen44J3dIlPtOIJkYoWtKu7PLHDrTUmRYpQS5GgTIGrma+qbQVdHpUKl1kuQBuBcPax61/stpmBmMU2P7WbQ5rftO6fqDfqFofxaRrIYDc4rkjAwwvQ6d+wzu7gBz4CXkEPCf4czL8MxNMqM0jipiu1fhud4t0EVL19bMQveRxCDPwU9Mhs0Mzt+ij6vSj8V2ADXIbY2myoWBhNvDub+f1mHs/aB7nWtoUrohCnsqU+CiGE5FqsgfNl5+xpMUJW3qy+Cra90egC/CJl4mnucgTzf9l2XPhlitwGZNg5wcJTOcDMFyp5Alm4S18SF15KjeaThNohkRODPCehvowkoe/LzxjFl4OttB8pq/uLc1FW47R0d5S0wXI6JBMibMctxNMNIZV81ClzYP0bNBlcZKwPaCd1MyDVm1XeGUvJiFUxmBDwfZQZ9MU+LtlwhDzwBfp/exVLV81ce4M8xdwO8HU5CgkALB8I2yFUzcqJzhrUJcBvFuKqUrT8PHcWcNwDHnLEukWCVZDu7uJUjVTFL12MI7J1DtO6x8sY4PoYMjJdbI0LUKyk9dVIwQxh+yHyKwqs5GefO1Pam124QSGKqZCcrDvJl/qFnABKEay9aKD+OZc1qhAEjz3wHREHm2i7tovF36sKDWNf8H3jkRgdayJxmvwBxNKzEMepDnu2JCSBYXSpsFLyupLLZ0c7gDi3gZMfukHLBreLu2uXGmGjSknq4lckqJ5A0rEv1tnxg0sxJqp6zqlM7VSM2l0Ghz5tXdWeHVMwFGwMu3bfSNiVXNKt4Hyhw/hoSXpqOr/WZT7k8hNDRZA4CQYxBNIpY5VdunysTHKUshOgu0SMUfsl5r4oE+2gERSTlPOkaKTXdOkkeGuSbr7R1ClEDiPwEcBttgAAAEvkR3TBKYk/+WCCiediTkVSX/ZW7jcDB0qtFSewTTyxwUcLrvKo9oXT69zH6my3sxtc2SKgXUkDHp4tAbzajfImIAMR9GnfDVPBippnBMpzCM+khmq3W8fMmUQmSSqm6QEC/sYGRUFlIiogFHT9SK6PlLfRriFaHTvU7FQtgazniAC1WOQqZv74htMKRaAUCiA9C1iJV0oVgXNPoeWOHn68RGciw14hO6ZlADcMInqOG4I6FVHR+2R97+k23v3/RvL6C2xnRqasjO91dmw6DOBuvRYN0RGDnkw7ylmYVXE95E5ETkVYzsmox4Tc2TmIl4nlwI4i3ulwEYoPocfvgym+mWLlAiX4xlBgERU5rhw7gwiQ4zw9RzW2S8Pj2XwQ8tMROeUcipSmEc2fYd1WIx40DurgJC6Y0Gc03QK6q23TQ8kV2qQBN8FRBkpliYm6vsZvrPAmaJ6fwNC0QmrLzAQlE8XGNdniQIhUGdBuMYYfGJ+Z/BvwMq0ouXg/bQ17ZAi3XlVB8WWTZMfz2rchUkOlTMPTmix4mSopvna4WYWpNinlQRZKptmi6uszxa3xyJtnIOt82OvXNF6AldeRYaOIwRH7+8kLIBbtZfxYmzMPBylowxBncCzVsi2dnXeRwwudf80XeCqMSmyu/5c+fjghfK5mHoP4BioHWCLxivVOC+AVG0RlrQQcWhuJ3SqtLUDVyfEPyvnvNfsCKbKkWZ6rfjjp+DfVH/NkjNvvMra2+l4XOHtTbLcTOZJzHQj9OdXVYdbLXSNMICtaYOFttwCutXs4JDjGWsmDMzAKi2oa8l6oSYNYLDveyQ8GIDNf9wrQq+X8TPgPtQLFvLrsZJWMc82rCyJv5gQ5cxDfG+/IBZgXX4hY54SLe55GoaqJmzHKxnU4FcGyP13H+2t83Nxu6taGop+5h27ChChqNS9VnYAf3UUT1mYXgceymi2WK7Z+75KLAcfdkDQX1W4ZbEExjaP6VYYSX4QkuPMBXHfl7Qm1BPpidRLOHXsB1sKh67VHwl4I3FiQvnQc3+Tg8CO9xU+dj9CtpwnB9gkSRQez/9J5oh4gy15tmfMu3kRyXi5/lfnXCSb3TeO5Z4QgLy9u8CHP66lWjToX2WvM1rv39V3Juc6FOjUacUTmxRlbzZAVFx3fug0tgruSSAkcSgFifaa/Q6/ohF43matsMLXQrX1Rdd9AycRdQzGuvR8VKuwVsFakXIruAMLYIr2YoHepbqrTDUk3gEyQOOuQf0UwZdMIRcRnYV0Fqu5N61B0+lfBAJJtVZI+lEzo38kdE/yUY/PwkFvf6vBOv7tm2djdiDPZOQQfjaa5Sh9ykW8Zy88YY+tTBgnsZxGW4n/GXtaETfApPLw0HBhZZBURRbhZITBoBKalHyYxV6/2r7vVEuh64AqDWs0RY7ShxWNzUhXtuXtFwqORzAxErZH+G2ebqpxah5S0uOXiABShfDtrGOGaLi5Y3SBkKIHMtnjo2OL0Wmbz/ceb7zZ8nIiBSdGvhNMtyJAMOWpAa7QwTNneK7ZqbntMXVnjFyzYkP/6+wcBT3qklSUvz/65bMgTPxmxEyB5IPIawDTy937kDKREod9dCBUfSbYiPbbfYw0Fd+yhdh/6a15l6j37qb1JIZsOPTNj35ziyHMJyunutqe3MFAXIWe54l/FGixGkdOxrrC/XfnN3IQLTkjlD0Ze6bsB4aEQMBXxPxml2uEn6HoFS02kRbmdqTq7qDYugEhbFoThU+5OR8TUI8JSaIkTJ2qWnwhxfmjX5AdpEwY8w5vLUc0N3wNu8pDwK0zVquipH+ZxHuSOpoLrnIhCv67Iol9ZWfrHpwsg7cRWEJ2poQKVdePqsW6YDmReKxESeZ+bBuvN7GS1Bmkw0udSEtD19XSEmy8/i6O65+tH1EWT1o29f2gIRwcgviSQ98kS7UffMQO0AzLA2UYPSYAAAAl6XzDO+Pg/CHMraR/LSoLeR/SbSJxAajSHw+RwetJgCyPjI/dKybJQB7T2BWeOEqpxYltPNQEpoJRxjDKD3qIOJO36v+Q1qr8+mMonnvPlQpEP6iKLZwRpoYEygXNs8UAJsr6OIBbcCPZ00hdbu16PnSywKUGfZ2ZlCRkPgltiexdfXk1n2ExXHw91Jer+JtZVDC+cp0Ees1YZy6kZ/8mQz3aJ+K0+FyD3ZdO9AYrGH2Ck1WEICSV3B1GmhPTw4T628rrqGMytR9sIsDsYK1qp0v6q1gTvifZ0OD1qpddF5iT1ndzHEbuZyatFJ/J6dlMHrAVsCMk57d6whjrir9PPXYI2qhmXo0k2sX2KrYo2LswmGz73LU8dwzr78jD5kBxCP+WibfH/CMkaNivG7QMiiZ+dY0rRKng8Kmg2btO1ZAsykb2SzhkXD4epAiqp9UtaS1C80CUqW8z3Bu+no4LEXAY+Lspo6O27kZrIB+mykZG9B2h6k92J8tG9Ps2xofXmlu9qdQLrWVd5BgAfVU5+zfFFyl4qSBbMGAxtqfgajj15XXxEasAC7cwpDPnxaCBaZfS37tjrC78SaNG8bYTnMDidWAZoSSbF2Uxsi7EGUw7JnwnBSr3/TNGsWEvkDBlVU+vt3XKxfNl48CmEbcPrDpGpmj7c70GLGs86isTrXDAOgMObekxN5TZ34ju6Z6j6FpP4RWHSsfPqLOovwMk3YWUNqH2HmIPA1JWYpj7hsjGVp0FTr21L/pp7+o89jBp+4MdpVFJnKedwiu6cew7CylMxT6K7pIs/7Ml4+oNpPWsh4DuBlGqMqpiF9t1od88S+/W+TZvEgAJcEwtZoFPTnWHehARlSeXo1xUg0utQexx/yM3zntidmnylaffXt3YWTpw+v/F75DwZ3bfw+Cl4XGAn58+InHVLsvswkQ8lNfoqvmpz+9tpmNTbbStxSvA+glM25T4w1R+iaitQxo80H3mXIVHqtXzAmGHFmi+lCzrEeqjtOlU+TZww/ivIdID10gjusnMBZJBaZNEZQYFddVLL5hplghSXZP2Av6qSBQPFnAx08v07oB2IuBspEVqJsE8wbcRjkKnGAb/W1D4LziPYVTDAMyMU0tt2Oi45a0hkHcokL1yV1Jz+Q3/AI3Y7M1GlcnZl5EuopP+bFod4peCHD9fo0b035JSHgYCG/Jqj1dqDnDQEgqezovmeX5PYeRvVchgAbPHcjFkN2S4JeS6K71s1bqRnOukd/kXtYAbIBzkw1e7Xgv7dNoufUQbnA70Pr+Z9vJ4SfC8ckiURcJMxQKJwuSjqR4nhkfwl+WllyGVa7euAhogXI58+I3/eWpnIOQdIX1FYP4ftzvYgTbzmriixECt957seuP7ra0nwGGERu3+fLbTJHT48yh5Cn3pqG7nj/jXF1Mn8Ksc3x+zf+jeE+XFzi0xJ5w+72c6orquDIksd6jkJX5Opk5GgyA0yXYJDP7B8LQYXAuflaN+kit4jTdN7fI4QU8a+VTLZMjTg8OVXrT3WUgNyg7CviKpp+E7KpppLbOtm9DD6jxdF/pxai5VX5LAslz8FapfVSlDng+6S/K4iEoF8S4LLhflt3I456YtI4F87W++OGJtY8BsPdYA/Riack8j5Xm6h1YY5nK5/bACGJny3/29knuOE+BfdTDG/EXEyBUvgxiE3NCvpvtM3aBsZg7GpZHbHmTRzMHz6rEX6noxoHzUUqq7Jv2/JHXGo3sIku1h4H0w+L6g4VZ/PKjK4D1Ptkjes95GCswZYaeyaf3AskkI+3BYx4IpmKbO1t3vqQSDEMu4vjJn94yeX8BMZCoRZz7I/N1Q6cr1z+FINZurBIjR7O/xVUZYLdUqKiyyymHZo/2ixGJkBVE9s0BzZIpdzj1AzWFa+gnviKoUNw4o23zVbCvxKvey3vYLi2+dXrmGOJSRTJcQSqHx4KtLvQEv4DgxHiFD5EkLAAAAAsovR5gRnpTpK77D/CV5hqC/1rS1sLAczzSYCUuDI0jh8QLj3lVf7b6LPFq03PU6rlqeOYQ8InOvtmxdvmzeBavPgcunJtZ4/O+etPTRHKjZRGsvuIC96oJElWJ9daPU08ti+GAntv5rE6uxCa7lUElq5bnSqynmGRKMkk9Ummx1DwsMu18mvCearLU5qTa14DQx+Hp+9PbzOSWsp+KptonrhB+AfBdvFKZDZrrikfYOCZKaYuYM9eYb/2kv9uhAQs4bbc6scrKThjPjhhHWeCVX3QjbHJLOhOBbqdbZGsvuHYBh5Rf3rvlCFQIaULfD4uLgkAjIOh0+DGjjEEbZZ26rzeidgJheJ7AmVLD1YFxEITrEkshWISGcXYKkptGaCWmii53n5TVjfSJ4M0NSYwExottFJqqHOxexszjdRudZUuzuzH0ITYmQ/o4LbI7L0AN7HaycWcgdsjHLPdzWqbydT5QRb+XLeYvfvl02SsTkfT3QY9zkxxLE+sNfXf9hw+wQkTMXqw+OifXo1Oq2vqJTML8m+bmpatmQaSWRZlBrR+a90KUO4GO1smHgeozBTTtX2ZyE9hyPVaM6D8Yre/tfj/Y33J796vr2AvYNPkSwFdUP+F7VMznM0CxoBoS9kPkSTkHGZQSZekvOl/boKGYw8XuqnggjDNP0oZuVnN0o1CCUzojK4zKKnksa/YHhmKhR859/RnH/9IYqHs3pFweKsXIx5G9Eu6crYwBC0HFXmQ7hlPZdEESWrLYsARnXqd+74WGULb7npWYrv01E4FCma95QF/DByK/j3jk8fDG6lBNsEeIxlJe/yEFqihYjh2nAoggvwlrYzhfT7kX/QNR0Kn823PlcCw62Kn6ZHQQ2+A1W6wYXjXOFuAPK2JBcgmJ1302155eVzkBl0pAfZbuylaEZjntMxMabXfTizkquCOOlknrJb8vHOvlJ8moUocYB3S8VaeC4eSTV37PrLhxSYjKv9EQUkreWMkmT87+5KRy9iZxmlxG0Z4vj1YUevI7PbSbpOqM6J3HhVWaLzrY8Nx14JE6xINhL4xyJRFNc0AJggJjRcU7y1BliiMf9baAW0sktA6kH0nj9o0dTXNMt2djKD8Mo6bDdmEPfRwUdrPFeiwxAXPC8FrekI2TM4KuNdyLLh89TJ0kUdneRLDt3XohPVUSRJ1borCn+DCuVO1SdnDksIgZQo5yJYaU05Nue9GNVi6ee5j8l6FqnwKvYxxvxKEnrdzJ3d91R8p1kBNhM6PXItQOk2JR4Xd93kQf9KvGzmRL82rs/cVh/A0WHvDga3gKS5cg79LvNUcqgE8JrKt/mI2K1GnYkxqvdBQK8OWiuAC9xlPUp3K4fOYU0emGc988x13VLLcNBYhYr7YWs7dQOCY6IsUefd6m/JRtGsfE1ff4cohPGvc38ASyeLJaazKva+s5EvSNqBjJeGkV1pZVSjYaFP+osFf8Ooz2XIFChuQ6OwU79/2mgW/Qbits2Z9GNR3q1IbrxTSHiApxAK0JLePeqKFpdcicgnKBHygvEmzAuyJa5qoBmgVCylyz+qn0aZjhK6yYv52+Xsvgcrs1xzbcWmEwKS6zWBihI9EHxb7+nZd4OkIc9JimF7E3UNZMQ8AH/2BE/CIMvxQrewNqwILxaIeJaM+D67OUKtbpoIj+3ncwSm3HPneV1vUbOozvTMfnfWwVmPm5h2W3pJbMyD/k76ot0aW4Wjw+Di4vEgo1zJ4RvjvZQ4f/chZZ3BbLJXSvtb36loj6M2aghSeqTVCBcUpsbDAHf9XRRXZqXtnye3jlxExBDHAg1a+fauXXFjnsHjnM9RAJhHcqGbCWUlW5/v/P42hdaMTvt63f6HUx7trmjvexHl2bgawDSlF9QsCrNGZy3Io8vlvSxyibvpiiWl4ehzKg0zgSymT24dJUPvCqiN/lh7bLa7Sexnl5bcaSKvy8rMid7kL7QJF9uLW3VuhIneuiIy0dQnIT7V4JxvCDrsrN/61/fuJwFjkgz8IzlYuHaTnyWii0tDIFqx04J/y0PXoW+EWkE+YVbmeotgEFk+kA6jlcjBA9XI7tmcGSv7Myu3rzEmRNABfV46s/OFzwVCFIsIWY+yIjQ5lEIOuzGFgqqnqXFls2fKV/CWkxsCpVnlJgm2BioGFfoxk8IbmRotIt8qq5X9km55TLFm5750DRnjaiCPhxGT1gZUJYEuNej+1oR+QaNI10FQcAmC3A/jF1ihol9ejEHMpOwi0AS+eHqKY3TvJOuFVgZxoU8hOtxiZhGpyRp2qdOi3psJ/hU/KJmhm9U8F2LdtXdvbeQ12xshfhF35cwAA2KRYl2ELaRC64Xr1MC78B2s3enGyXcYe+0z8F69DuaJOfRzXgw4KTPK//LamgUtE34yAjvm75UOqAxtL/xUaiO5yAn9BywzfLXJB1vCrQl1mZOcfXCLuyeyo8Pe4tKgmwvxx/nOfg9gH9HaW87B3RGomKAAAAAvWDSyaHGboQkD6lavTe1Yxu2r9hDFlzi9EHEXg5ljeI5A4zOkBwYyfRFTTLUymtxa7Y6Ax8EIJ4DznyCjF24XtF39YyWc9YkAjTaP4njGDGiizknsN7Q400ccJuXxbmuRCB2k9TZv5jommHv+aGL0cYBA21X5AanEGQIf6UH8SxefqAWmt2dyDNGRKNDmaIct0T5jsx+AnZKiDF9GgElmLik96vkq/jNDj3n3IDEU4dtwIjlbeVzMCGteEPDHe37Lim2ogUkm4BXpcN1JdJr/5YmDZpfmvI5NGur0zcpL4DU4iaVF9RfE1VU10WQym+roZWZMcn3nwp1pPTLzfy151fcflBvhCvRz9niFnSABZH5K5u9Q3x5tbREUs9MFUNjRHF/Lqb23nu+MyLU/CLhJiap2vooJUWzzzvXimmr7S8Lu89eghI2ncQGnbNMiNyRQmfDn+ogEtHwZj/cKVYvTcZpxCjuUgtsajdeb4P3tjkMrckhrLIfzk8mMYy4HUssxbpuxoR6TZCthSw9lYs+VZtvOhUn6zr7GcZKRvCzIFfTJJ7oQI5LzTFxajshEBIpnDepfNrxn7ASwoybGBTfPSks+Ztc/bOx88EMjGhjuhOhwjs+oLfv2ztJNK2ZO6yu0CFD/IHIXhMo6g+fj3BfgFTlFGPaP/MxeQ4su3aOMuGM7unuWsiUsMphXRJ8gjq8EHHz86EY+1XTMjkJ9DduaNgCNgXAVOZpspnq1wC8r0p0jPxGxV099CquhbHAntWKCqy3dkS6AmsvsulF76bsF/NpNov7omTSzJbPzu5KUbik++GjqJ8LeM+E0DAPWF9I/nG5hru5Pfag08xNB1nFoTGw1lDcquXlm+rdKmk/l3gIe9pzi5PA1b2PfzUgTWMwDFrPgoIAYx3hL11M/wd0iI+T45iVsvMPPLhIUYhFkffsFRSUR75eOLTAHwWqOGVTK7mCcFtWLpOwgcV7A/lMAyT7Zzf15SNwSno8m40iuuQWUxfuy9pSg6DnLXN8Kc7ne8uUaArtX9ESDyF8rFMGjkE9wLJrL1hIWrUey6wuu9vKdSg+Q7GK9VYrD/vHbw6aJm1W1AufOa/9Sjimi9BOID8pAyqceN2og95wNyCSxh/KKJMg3AJMbPSPzjmMzr0xvqHH/6B/w6yuJ5brgxEvzcf9ZuHJKgYuBD+sUH4QQ1WzKVKARIB1uWWSUfclzbrUNn3zFsUzmaYlSis5ganaZEK0X7lAfx3vnEcE03prKS0KhaVgK2mM4sxCxVF29zya9Xv+47aRp/O/+zDDkZ2X3ILdTmhMfFNo1abbJumx9PMqk/tAMJbTcMltwHAIRzt/ooBW9Mk/X/3J+K6W+i1D/jOrz5/pesHZ/eEK3dFStUFi9kUF489+ZZkt3yXa5aXGnW0raQmFSVXKESJx1SmO5Vkb1dAMa1RSNW+vF8sd2PaaRr6hvs8oib4M+N2rGyXpL3YxGA5v5a+ca/QY8aw9VYHwTIO7CZ/JqW4w2jvDf1GPpg6hSKGYnY+61mrp+/vUv675EorwZfXW9FBxw2yg1JIAxTAfk2nbP9eLHDtAgcJLBvPYixPeghLGPq19rx1lMlrJC+sHmnLBIxMSIfwG+ePbfOmi+rYlPJuMbyC5pCJEfrmk2ZvTuOkQcwI+W7w14MzusONDMloDKcqxl1Frx3egxZ09OtQA58zdJahjlk46wJe7PNTwXB9negHKGvOYjWuKcsR4lO4Y62Dok7RnoRMNh+hbtnoBzua5MgsO4LFKCRmAIp1cf+WZPUJdV925oGrZ3Qptb34NWPtdevFNty4N6WbJCbI1oiiwO5AjEUmUeKALvWqYR0I4qYuktRucIvEJxlcw1KaVn0xhLxgRaN3TK9KjQB2RQWfHl6ls7QN2nXok6WEy/OT5cO5SrrUgyoxN3sZd+pn/MstBl4lFbQ3gE6rOxPKZaMvHxPjWKFgg9GvuoEmegtIi/9GT/8fPRuvpC3iNBsvK6/03Q7YzY0beH8BQvl+w0qm4xhqAg/BDn0b3qQdqNGBgkEvjrHPXqTzw1J79/g3Ebqsy+A9NXcfVqQQS/s/w3VJU1G3jJyKjxdtzNeVL3vSJwqFVlaK5FAAAABq+8/+mnZimemco1Wsm5jPuL4MvxV+b649CpKGAFcjEm2Jt19tQglu20Y6Js3ohcM3pVWgbs1Gb3dmCMX2lPyB7CtkwhIvXB8gOnNHaBVzu7CaqQATfpeK05rjxnkJuxdnkodJ2wpjrAuYpVbVEm8wKISuIXkXvpSVch0GthYaUqIjNcJm6qRBpODegr2fVqxu+LbubJW/ra3xvljuezC+V24mInwIlMmNrwKcpTXtucr42Nr3Z3yeP9AjfBUMs3kM7MYuAL+2icgUqUY/092N4zxdciK1ONZ5jLtpmA6oLSWV3L/TrDGuch6/X0Y1CPM52CmtfUn72wxEtK90FqZI2RnQfLhia1T2+zf/k+aLFBm8BOz1yKNTmqsjQhKUpiz6zlvFytctj49FG1HXHF9QBO7sjwH9OoS1YdzURoCJCE9GK7J88AL13UHY/lFsmRK+xtg5robt5NQoPYmh5PYRKESSsniZ4aF1WNUrVCcNhpQX3G4juGv4gGPFwcBPat2CJd2SktdqmVMrrK5oyAWRcw1Zcn4czraYvYKiSk+Vz/njb+9+Ehtc4bqrSOy1eIxVXqijtzdX96qaUgdbizs7/E7ityeMzj0IN3YWAyNDpC6D0ImkT8dWq1Un4pSHgbsa352XBtiFGfBsN3gX00NXklIOHVDZXGN1HM8IkAc4H9JRhbodApp5tKeo82hmb9dp3bBMAGnxhYA6a8MXYRjN+c4eDtNcPhVF5GulLswi+4hiSrQ8O89k/3HCesF/kIc9byozc6nVRhB3uZhBB9R+FuxADQAfw5BlEgIE97FFBMTAe2gudOU0yGlNy8mr/LIV3zNCZzbQoNsyJOzbTIcL40+YfoZmgpZfsi6XAnTVnRuE0zWk9FAi747nuuwh2bMDXwdfr6RgK01R52lW9wmWBp7L8DspyADjIY6dRKlMu2am20aO/dDdCiFLOcTbcbw/bYKDvzTcLHyL0GYpqf98VualQXGJRA2dJ2c/IxrE2f0apxrPMeL0t5jgNn2hJiDbRg3pbn83fQmtnGnqNloNVg8aASEZgHp+WZKdzPYhzYJpbyQ4029Elvppj4LD8BcZXuKSAcCefX9SQX8HpPAwuGXub5I7XKx6PaOjv8AqbrMKDUYwVvczu8rFSvgIGVu4D3+Dr9+zRtHK6T6TLeZEpFdmQXJt0S5yqqnKZJ1JgiGZXLa/RSrIXuyXV5paJR6TfXiZVMsyld+zqPjHxCxR60umUsA36+a9nXkWsVbaKprM/VjL8chVk11X+6g3t3DLVyn0mn1320fJaw9B9LCC3TmgdMqDfV48byD0S4Y7czQ9t7qdJ6BThtVMaMHbXHgu+fk9PCc8rRltUDKdqHevF/x6af9opqF9Z8vKYpOPqjHZ3mPt+3wWc4OkUlc0RTytzfY6UoHQPUnrxLbFw8gS9Dv5q0Gc7iqcxE1ESYGrd4ajEEvBJ+sgyl0OtI6rlGBNlEGXeTfQtw0N/pGsAPDhihscLYjf9RGG5qm/3FOrw9lFZQzKIcELELXuRy6VsQpZ8sG1ibI2mwWeLNYePIMkC9dzfPEyS72e9ypglpvyMFUOK6JPsxh3UFwRB6hD06H4Mcc6W7gj/tT/w8d2VDjYTdhSxwrT8UO+l5trdUnwQUu8Zg0XOZxDjXAWYpyEk/KCBhai/+6nmkggQ6W99K0/5FUGbGL2XfLz2jfRdURC3VrG8LOTGnP4gCGZvSqj/w5O49FZ/mZ7xGQCax+qa0fNRg45G1R1XGA+XMS0Ae/Uf3kzgUtmzo/e9Pm2P4Qui2KdyaOmYFbCBqhtLeuOFiC2TTV7WeDYRvmCwKdKk9O4Ixpop6CaOps6rlDGUhPuhY0zQpjCW31j5m6rHTM6dAAAALfQycbgfvjfyFL6R8xAckmlSBookFNFnqyu7Q25+I95K0tqpVtfOOe8UpKgjQSqWqiAAArMIwfZFR9pGtThOTcvoZ73nPmhsEa2H1Bwnx7F+uqSKKJrFsuZhqUcAqx+yJt2vML8xbKZTrxwRTlaz3F/RudSCipatXaXRlI9+xpWRptjeXC9kIWLMBvkC/c4LP1z0ZhtOZZJ956S7zzkRDPHsblh886AC4tEe1uTQRfqWoTNRT1VdMiRQIwh7ndlKbm/uzXRKVpDuKOlUcoPiIYPL3ElJW1RpdLrUOskN4262XEWhjpgGblFVPELw3i1PY5SQzRG2ybXqCXqsrDhkyrIBo34uCmdZy0/uYqAp80R0q0IPYQ80FtKCWCU1vMaDoX/HYN3o5PbRGvh6MvcoaNU6E47NCNzb6HZ27/zMu9F0GdtG/H0JmiShU8vTSAIn5GmLz9jK9U696v8phxWRwYcu7FdD6xxLdGiD6fAqaLJHw2ti0Cm+UAj4SvJLERXmkC0QWKrOhtT2rmO0HB9Vb9jdE7wXDjCJ8GLORhtxB5OtLNxJVnjwNPhz798qB3B6jdvWWMaqG5AMqJQt+Lep6ODfPZRt4qnZksubYQ6sM7I7zfLMdvhsTnoGgoYeqEf/M6LuyWRhxhW9+YlbXy4TTk9UQzPw6AsG54xgJZ7HFaQdRK4NJqtbcyIaqztA4GVptidzXi+O5AmyZxF2iro3RP48p+IslZ/z51EqtOK/FGRCiOgqpXy6ZcgSy+tllNys+ZWn2rsPm05CSLiCdu3M/dT6WyqW7aHxgSU36JjeWsHDuHeCVraiRfRVotYfzicumwAZGPFkbZClRVGVP6Rjz6QhTy9QbhVrcwtPm/D+fSRsFCficR4N+BYLl3zvzchED4RbXGi/+nsZJEpDY1/2FnFz773Ujutl0IDfc+FDHdxvz54vQPL11fJ2m7axyF4Y2S4R5ukGNF3XiC5sZSfn+nrYySaYGiUJUTw0+YFJbo8JVPC19Uzo0Pv2NKvEDP53BUbc18b0Ue8/4JjECMGkxeaYlIHGuwng2x82Ub0ZAJkgOvQqTW8vLzIJwHnIy6hiNxdeP16wJf3WEC58YoCnGZrri2E/0umzH3ENURYCCHL1nEK5IVs/8mCcPVkok+DeUYnHC1jnLY//6h0c4q0K38Y+gihSVwxayj9aYfzYvG0e4JwYOBI48wLCruvnf7AddhnxM1pWZgjDRebHA7G6j5IPiuDsH7NJm6anEY8po3YlXMQKNg1ZAr0L8DbZLXXd/f7+5Vqt8N+5jGLFQAYpxGzrvS7cDpQFvb3zolR0KbdSAAxE48GUjD+aK+d5OWs0jSnlFuejCbV4MXW2FO/Jc2r6XCyUqYOnORjwjhequnpddSxeqID7ocydZECS65YPfBgzdhbj/yKIrfXwhf9G/NP9pr2Bhd1pPnjxgWDPk+BCQaDhP/LnfxVwBl0LLDJ2Tqin1+J26t5TYZuwnoH85iqkUvO/ze7FhdAgDIk1l7ZPRfdq3A05hze7nmLGOWNoKw119M8D8gwsowRnDey1dSUfCKtD0O2oQJxWd8k1t/o4hO5f49O6nfz2lpmQenW8rPxYLOFeiaq9ECz+LwA8HLic8x1zs+KwY/+fc3DNaosbNfpbOvwVSOclxVGdpqstk10dD4zaQwc9WxNCQf/34gGRpO10kLmP7CUSHqv4u34xK3SA9poVVTrR2D7Dd95c8NvnV6sUs4HiKCYEtjbW/jFB12DqzYbacZe1rssJdeATn9fQC3/g7x2CXHbCWzgBh0gLp2IWZ9zsgpfBg7Fq8R6KKHCNF6ybNqSa+1MM/sVa8KAvbhHSucD3Tb116DfvGoDp3DnjkuE7WLYiwfm2esSnyfrAvnhwAxqvTTlKJ9wrFad+yN8BLZbUXTdZdmcM/FYCd+rVYxOJBgMOwvp8FLFYq9lYjYIUGmuwHxcxXLIGzxKvev94tbSfdpHO1z5lauV3bnH2GDksUGaI5WKYENhTbpeQ1YAPCqRDkaLhA7jvFhmKauyI8S0DZmYAAAAbt5u7sBypCe39vmeox2MzaXbU7/vx0mR6kdXpW1e4+q9ATDN3MeiKfqcfi/Pz9OD9kvzRrQgtkzyHEo+OQFLAteDlYm9hOkvSVxZ9JWWqCNvj8smxjPjNDB+WtB6BresgjkoupCONkIW/sHjc3S/m5vbo1OBKClYguBOyJ03cykwAbgkptAKGWkF1OrEIfIJ2eORwYZgW3fdSQ0nFB3/M9PyAAD/RCS543LzlYgNw9P+G2d2PbwJ9okU2G+WiK4sOFZ6UxDmaN2z9R6/qVttVYIp+P/JQfj4tn9ahtqxEfvaGGs2d0zN19GKfomX47VVTUHKezIs5qtl2P1BXDyYreHQlB6prxSSEJaQWLJEpN8LLhz1f3JytCZz7C9zNh5M6MskBJ3b8u9rwNsVgSKtUemSVvMil1rfEOLu4ZwjlRk/UhINUfJxWmPVPGma/ns6NR0m4PIGY+iBz3qmHYolxgx1LJKJot5PzqzAnDg+rvzqW7de+KdTJNcitRb37jiYLimJxanK1DiT/M3d5gxIz2tXj7TuuZQl/9Hp6HRJg9ls8P1t+H0jwiAc+949aCB4zBlaXjV6Ghwwd4VY/lRwLxPLieSjDmplSzknpp979PoTUamhb31Jkbj1d1dYNInPd2WWFPbqKl2lEuK67Uj5gxqMjIPrv5jJ6gvHOctgMEVhla2vtqoQPxaop+lFdwBxXULUcmUIG+frRMecmwBCZIuurEYosacKJDH5yQ7FbHFHdmXjKhlIcTlBMvakrLN1U51bzLJ18KM04HvWu2C7AHu9Rp4YBzmr1gFBMLAoSkAMsieXGF6Z4B9Tac+EwO3u3KsGD2nu/+f8/P/oNgHDJiWfvMdNkvvSeo49rDl1ACk9ZhQqix3XrWAzGV43UHDrWtH2+c3jwwajKgc4SrI68UoCwjm/+WI6GQYmelaIkktrKQvrw3J7UJ1hgV1ccnVp0U+UFi+g0OvuzPQpfpSpT/EQU7tgB1cjE80MFe5gjligLexzfDGG5sSjPVz5W/BBj5wzqo0PS92FoOsnzhke+X4FXSujEUGvu/ed5wTEEqETmW/sq40P4arVORvcVYs02H0EBDgrRcMloKdHmQ7vBpD2EPtZlHxb8X/LpvnHOwRlus9SoNeSgguqo/4AaGOp/3ZEpfDp+P01wsj+7bINIzuFsH1KQB4rGKfIm2HaNzUj8qZMsirxI1eRS2910td9CtLxcQMg9Xhb2/DFdXSB6uQpu3bgZ32bwsiv8B34upCbYMkwjUh9kxhwo5VvmnDgs+t3Y06XlPuiC33V8QAfR8JXv7haXAW8E6kEi/CvzWsST1wqS7be2l2JuHN54ZyZdmdc5hd7VPjctyNg7wywIeFJ5aEsIuNtA+uq0Cfgm4KrnJQVyew4OektKBM/KlyOYeHtDTf+yGVv0//9sG51xeprT8QSqXrdiOJOVX8r+X7rFLOaxBVoTqnQLPdS4DQBfRevCs+/GYhVIzLfwxJ96GZPpUBj/CVp2AKV8L2dZPflj/JBzr5BTqvvayF181JimifnWSIUwHPb6puX30risdT45xXCRBP7M9fzVpxcwdLJPlsLKwh1dU+uVuJem1+vsBdhKX3EC+37JcltYNuKnpkkY6b8rqvLlWmtrfMgOIAAABQE5ZWsdI9PlELRKJJsnRx5rCWizssjBqzohi50p9XgTUlivLTHYjGLs+NTTdHkVnUUfdp8aWFD/l6HyuEYKTDpTDHNtkRU0K/uwY5l4wBN7hHi6zzvKJZA2CVI9gHkMStK3zDnF1f1Yt9fehesk0pqeIalOKGhb8rTrny7sbKX2A0j1iNVpt8OOlEfeiasHAwJaje9zPWZ47rwbSJCJggkhRusakl/fGyjBMI1UCIJEwzeQl0UF7NJIOFUnMABIgbzURfDrXrDQoDq9vhg8QBjxpamlfD4lXOkeveISbuIKUqZG1Vtq5USxO2Bx/Bb5RzqJ4B1TAS/nrwQ4u/fJohnYlQ4Yn21Nzr4Pr/v0eeyfaiQ3QTURMwcnojtMO30/VoEDJxPwCgjZM1il4b86nunFmhZMZD8AolK4b+qbpYzjCTLVwImQJdgLhTNqr3d1dLHNvE73lYpkLXphVsqx07QD8ThqdsJNAgznHyx4HA3Uv9OrD3QKxH6t1yHAFFcgcGVzBZezk5bkUzYySZDxNdNQdtIK0jkY0BcKGoIgYbzZKaXM4lt3NlAg4PcCr9qhk4ncAsgE2yizsSzGKZ4vDtLNaffhavU1uncHq8/bMa59TDXxh/hUcqSeBXUVUW0k92E3RAhPj/cHD9zFSLtlw/lELTrPv4mpXkMsao/+1ojo4djRDh4OrsNOKOTfMcCGaTCnkBn0Jq7E6aIt6f39Tt3CCptvfD75/IEnz9eu++37IfQ2ncrA1wRU9TfLaXyVEBPh9znHYwT9ImZhlsqiA2x8vydSyiyeoo+Qxv2KB3GGz1l4WT1YSP3z3JLVoqdJ2ZpfN+1cFxQ2kB3svMHmsuZnCMSgvAxTvIaSa4iikaZiyUMBrtjM8v2qaTTGroh+My2m7hu4xEzMQMPnK9WGyl2ohXPoD4INnry/G8vpeG979dhF+eAYU76QZR2QBeYAq8e5R8/mmMD1VSI4TUVX4v6n0D/uAoteO8fNnunVhUiY6r/pptq44tnCc79D+ip5Llfal+IVVyP9KRU1xsF6WFI4Hu3h+CS6UzQbcJfy2N9uWGQDxNpmNgEF26ebmQvSft+hT26Cfeqg4vqW5Ov3mnnd9SnOCNtjA5aDJED5CVzMosSxP/F+2E6XS/CDZqtuIjPv7Y/6prqDFDqcUuxz5vF9NdDdxbHYyzMa5PH5b4xmaVz/A5U0N6rHBbE3mRoo3SiBeO6MmRpmbztS/U2LuLeyP2G6zdYWqMlBbaoQzGDREYshVFDe7ckUDuj/2ybclLSukmuXxx4cnd1CTtfOsAmbbCPQusv2INZAEbAAAAFEOaYd5YbcA+gXcn2DkJfEpd4tZSYIZGV4PIgXU0HPczkK6hmvFxgML+mP/6fDFTZBz5jiqySc5ROVM6d7+cJkc+rKBQzKtOOrTzZhwhRSW7clFHytI96x6dgWem59N25pJdpAGdq+ILpy19z8luThTKHBskktILaHUQ3Qh1mKSi8oDEEdDNlolzGNPWFQs2fYauoY1jnOoWl/5KUj7+9DfGO4/GpZ9taHtu0Wk3jhCoLyL3+lCedTPDtQfnJE8o/5eqjBqfXWgZbXuMlED2UiKW7QnlV5kvBDKJv7+1SZ0Ee4908oUBnQ/cNd2SiuuZTNp9lPwYSnFDHCBd8LoehSmHuxVDsqWngROzy2DvzmjdPepMxRkxDJ0zpQYAMT/crorXS/1r5C8SyE3UbN+BaP+xFmLI1yTo6n+vE1rwUmB2T3qEIL88TIsro3PnA9+rJS0s0GZtaW8HLmsurnY2E2jdCaxaNL+fmW/XCtNvkTHdz8ytAm6xDgIf8OHfJMlpT+jHBTQWhlbXuoA6YHVAqWc7/BsGw+kvga3TgPKx6ZdWTKVjqapISpvQ4wrVUjNa+mDeGqbSYJPn+xXerg+Jkc6m04gvaWOPamCyo1/0T4a9RVXYnqJINeWZVKfrKHRvVvKLnnGhYS1gSSROObfowcR8iXSCv7batu5CWzfnRsqDDc1fJMu+av4rOCOZHI4PoBcjkmD/WZ7jMgMsfbnRwgX8X83nEqES2YnRTQf0NecR+pt7f3xB4qIR3KzFsZa39bXFRWwBRgQcZVm4SCLx6E76n7rFQ99Tfoqc2gVxHkwgaJVHpSo7pUOEdZem40ZEctAfnozSYXvJTKBFLCQcNupesasgpdJzrqAs37RIV6p4QZNthx5LIKoXdYvibxGR3nyk4cDvDRU8rF1Ua3KgTqdlvzItEmli/PRMaJ8I6aZt+TBmfJEm6MVfyIHCOThNiRzN/AY87BHDkoA9eZ+zVLYyGmc4f11G1aEEk6Qti5BIer016rC0TfyrtDEoVfu81lPvVYyCfBtVrXVWlT/KOhBOn5gjsgLMffaCPA0VXdEbN78VWi8s+OS38mXOZCHdWK2BWtwaAAAADVlJ0mnjAXkIfxHINABBWd3XZvJh5kDqgw3rAaWeUfDXSxLIIez1LNR7sisP1LVwEMcd3HdymwKsGUWkl+CrBLlvooNvQB0EIBNdqiMv5o7quDm/NSJmsNpykWx0tYvh0jdv2cT2qKeavdnnohKZ76Vg3kLv1nbsCQAXP4pOGIS9qmwB9O0A0e/8TZdXPavazJA1FRVSXPE3KwEQxVOksbh6kPI3MWbt3kxZrwUdxIfHWG70DFqgW5nbGcsabw/CG8kJl6kpUcc0XMneCMZxIk5t9yLCdz1j6bd1VRjVZCFeKnmPVY0u6HyfSQiimViKIG/pedj9RC6DWESPo7qCdxaGeXhhGCYmiidouE/T+/CDzddAORZiyfU8ZVEPJ2i8fUDGOUih+bTv/ua0Y6p/6PHFBQcvPL5Yn6Y80rsqqzUYW6cWYYE18oXJ1ZbBPKIahWu8+KFoy6FcSr3ECZ23FuDFJgKrNLWlMnEuqhdQmo17o0dCnaXpAPo4jkZHM9QgT2doYBNd6ASV3M1lpQTsMWSdoU3qV/3Jgup6ZmTkD8syCZLBuLzqKNjEe3X6GZrLEP9hh5kUGpNOvazd6mg/gtSXwDE8rdbhO/5oepgnBX4fmVvyECixlbtbhm+/xYPDhCmLODz521ZseUwfNS56qSaWi9K4E0QzV3+NEZTX2aP/nsJZ2mYNdp1P63KSOacZF4Df1d58dAwU5aeUxu8nAx1ytw2gOyeTSrH7YBDnjQnFXocH87Z7C2peaWf9w2ngm0DGIydWqhQLhaRJKIdoFyCeNqov8hvcki5jmq/oWAZRACqwkaJAZTBQA7SVZlWswqVTmDFvoIQlTyiK0K99fUAxANp5rSe7goLkO2WhjbRCGPLlWoiwiGl9r3CFerDuRYgUgmlMWEc0rq44UEFd1P6ZKQ1vzXw4QyyU2wsRjyQz4EXW/8hu0Ezrk49rIaq1b3ynt4cGWUyalcKZJjDhd9faUUtytNU9FBjSYqV3y7TRWiL/RhGYddfnf6RDM317dW5uBU+T+6zaiyueceXTV35eQi+D4hKjDyW+MHyEJlaOCaZ6j0Y+7cAe+4ePVpQAAAAL1M3s/BNyAC5W6BBeJgFpSloNvwHHW+//DzHTyCTq83xOBnW/BTcHdHaBi02ai3F6SPiyOgsjhTkuYY0K8Muj2QNNH4rLCNQCSp1/TW5ygXlCfAzvyFc6gp2N7tN0btYYsLRoLBkptZ5xRnNYY0GaySx5rktVftEsd9WXtgVGSUk+mzmDguZ6vDIkhTKPBoHYBnAYS0uLa9BSRrZTk2DHikWvLClYJgag61dRHAwIHXSYUlSZkfCFPdzvmQ/ZETPOmAQ4k8O1NAAWP1hFHxQYkxr2lbgO17D9edRMFEJlO6/i2d+t4g9wTCfG7mcXX4KPi7mGpdjKlZs2zvW28TFYBEjtsBRIvbZoVpdCz+h8fu+dol+r0nlom9orDPgRvbabm1chMEeWikUvHjsGwKvHv1tIt0cbwp1igpcVT9OEkvylyE9vt1Sz7f4F3LeF/V05aizsov9BES2TfsWuuu6f0AWvT2ECInZC/zVCk9v8yfHWufsYUsq4fBIOPwKj5zxJRdZtIQ/2RFOLBqUSrTFDGaggDAJV0E02GkRDt2QlnYSDS1oT5JLrsMVzcqle5mf04GQ1qjGDnSuyvMXWAFIReX1WZCGXCdpeqSmlmsRDptFWpgkDyoru3e8hBeb/6td05cEpwJtipiZ/Z6w5Ox3TlbnwCj+gKweyDLqLzqLDBrp/9/1X+dyV2ESq/ehyE2A6ma+y+6sAsbbem5PCvbdAXA0lzbm33faadWwN+D2baFBvmihEh4cc6OQIObvGFnSj5cfd9vadVZopfjV2YK7yfu5RWiNm+G/hcPbkF0KVJX78Et+r/hdlfWlK5GQe/Z7e4XAgB8Zxbi7FdwO2uIKT0qlzkD6/fpHw/PgEEmEXBu0srIsB7jvNh3NZEMV4MX6rbQ3CAn8KpCFelR49lgf29F/C3j5DYYkil5Ie1R7wYb+Kh3lpMVMuN3ZBakwOIWYquZ6wyMykpyuhJ097SvRe16tJxUkwdUr67Q/R9xmVoqjT4/ovwkDtgMRStCN5fIQp4lOHkeyeGui+JY08py4H7mP2QFTEQIv9ZfTRMjaRaLwBTuNCHvO2XgBp8svcgLAywPNaWUTPpHtBcGgKavML0zesFVudMr3O6fjeOAuh2yuYgyidZPLeaL98/VRNCY+v4N01QOHfILjDH7cIbqxTzVwP6fB3WxXk9zJhCGaZ9QVWtFB3Ywevbt0QMSNT1wFBMpmIaK7j4AQZJcaVA45l57uK0WJKxqpq+GQ3yGZU0AlhONDac7AlZUwFeelQZM0LV8mbQSy4i1qVit/vFHY5IzkANcIXxfzrwiqo+AWCriiilAw7U8cbJDVs9sjF1PxybT5lqBp1Ck8tYhxqeKTMhmXuyI/9nvllcK3ndwzp1/4zOpOwzNUKxoGYhyE1lgszSm39BFCzLP4NXBJYyuLUjNFAAAAB2EpRqmWT6emxO/EbvSgpmwa5GnJii1qynZ6TpGSH4eL9rlYmTlDNrQe0zhjw6G2qHRQe2Ep32aadMo4Snl+ABJH7Yf2yqt1nwNiGta7QQU9cqb3bjLRnaIhIsAiW4AV3dvGhytWv+GfZmF/1geo/dH6NJlRpmUVU6sdbpsCbFc3Qk5y2eedyjZiqK4mvz+C7KMdFYx8bTjBFc6FyPVx+uadMUdZgDQv/a7UW6MyRA2I78QMYWteYuODH9ikbNVsL7Z5UAHHozmtBESvD6zIGEWn1ixCamCcxz1CZ1ysIsfsRAWdqjwVXPjWa2Sa5XngZFGUYHx/xSObAQXY1Dkf4ErefH2uOOjIv3HywL2lpzPH3Ed+FjtRmfWPSHK8SK3vjGrdemCnORCSbSOynubBTOz2Uu4ZoMIrFX2mxpEClHJdTV0ny8MCid9lVxlHwSm+dxfaK/mYX4VDf58msghNISNm0TqqrbW/VORcRtwAu0S9Evoldrj9KtiaLWAajPZNWzqa/9JLW81HTNrrLyAjmXHEhr+449AKzD0Vo4SQS6a5I0kihBYKTHjDHhuXGUpauYznPAW6Z4MO7lDKPEOMo5oDhJwEVcYIxn4rHrrAYlB5UgetqBxnkPwNNMSiO/hRMbk5dIx3rBak96eTK5qxBI3rqvcVnIp0Bna+/1Ht0Tc17iNqR9Yu+AM3lb+8IZjfYuBanRasTxpXyRASdkGaGqQCOWXG3EqI9nXHui62/QtCjA3E4pEPUdjv8RaW+ZseLTEnpwNxcuSNE+Fz398620ShPhZ5CBhIS9NjaSfOchjWVSc97+AYSXY8lKARumrAQSpcQFkhFdKu5vVWzivn3U+TQQF6BjvoZtwNMazwJfuzKmVA0Suq7MyXkwefv/aAhMMcJ8MhYX/UYHMF3XWchDKXK/7otz4rVTA5ERFh+/m0PsvT2/ua1FJoR2GwshvxW9LF+Mh6rDhW9nNOp5/ZO86SN5UZd3BaIrIzH1mDBA8Uqepb4CPz7QPgidV0V5jfT3oOTDbg84KHGAnVIJjbSybU5VkMgkUcEDvwNSEPPZYfYzhoofALhYQycblaIUQG2umKren2PFtDpwca2rqO1utWM1lSx0FREe47hf83B27aCD1B4Kh9KkRV5HT6L6yp3ycB2vrTV3Ym9o6hTwa88iIbxnZRBK/NQleaWfj+ZlBcM7HQ4CMZ9qmMXXvi0/1Q8yQa3vrrBwhLClXS2fglqJ5gLQlCrAz0CP1WhdyPv5dJ7he1w9MdFUKbQRAcm+XPb3/mNAsfqRs2PVyjy0GFVr+A5JDJElD5zKyRNUD6O02AAUntO4MSWLSZscYKoXlM8o0AqnZQIwUqyW0cD0UdyECLM24kYqh3FOIirD+VYU1wZvrTq7/y8RA8x4N/DeUuv48m2LRtXTc4GK/LIKKxCAsAwk/IQSXwjXi0vEeyEHSxPanuerahCLeeNzMwqxmKc5uzW536M6+Y9YT49Veh8lbaXisGMz1BgCE/Mrv5NZpxl7wHebw++Ump+Ou5bAhxSHGyNSXXESBT4J3IwDf/t9rFTC9TAjDfMMYDAAAAAI4Ls7PpkIt41wRgIl/JpTv6WSRSt5m9FpJ29TLQHSk2rupAYcwx7aCdSDjixpWkKs/BbDf1AL0YC8PIhHB8ZwLXVS/Tvu3HGuh7FXnhF0krnVNZM00BDnGcf/sQpdtf2FN9rFFLMk6CDZVcXKaNYgPEr6YUdNXIpgv1y4XL3odzxde2ItWq6wpMdp6Y6DgO0zN6enU6mZOsr/lzLgHtjhOmLj6KJL2Gr4PQgyFP2Sjlzlh2hauCrTCBni3tl0W+x+L29iE0hLRpIwXcKudI37SXyXslMPHzO0dNZAgd7/cHVFumufpJQghQs4EAt0RZOM8AoGb7ynX2ww5bA5zs2GPdWQwqrgZySzfakLe+GG2L5lxFrRkS5XrYwc7nwpfRt6No5eSGVV2abZ7fOiA0bqlibkEIsK0bG4yQ9SFdiosKG5ufYsrdKT0Jt9zwINtZuStUvG8SbeopaNDlXcE8mtuOb7U6d018u/SUJ58inuJclsNFqqGbxLxDA4j/Zw7xEhpeN5Xczoq/Izs5HHFUGDhqwgLf1npl00qFxrgFQnCVLmpZOvwNzVqZ8ydsIZJwbfVfVfQgX1YhihT83zOUn0kKUNJJwHJFZboh+8Ovu0RY6ZV5fCUPGUMSBsvoXj5xHtHT1jqLZYKUS1R56w39hbLcWdJ+zb2J+07sbe5fx5s3FoO7/xnsCHMkg8mqd8FLKgBJEjEGUg98Q/OgByws9IZY4Vr4yn9z1dYpK1iML3ZFP31fkx0MjB7lQjWcRalW6t+UgaLs9xcRCgDCCBZfBGdSDsbTOuUEFIRSVz0KuS79hYXZDQg2/oTBj67Yn5YpRB6NtFtSGbGRwfYWNeWacl0BpcEmo0vbM2I/TEGUx/IodtfrL48RZDtXO+2wg/3VI30mSO76D9VdHfC/MKRFQHVV70ponYS14q5qwv4dF1u4cgEbitB3dHeAXLh9mxkZ1JJtKs3+/R9kht5H0vKHpOkprV6bXHekPd5W9hdJjb8PMt0yrtfsWdcUCVK1PwnnBuBTLMnwU/rTs3acM4e+3CjI9cC35HDVAWKmv/pLc+bSKBDyk/DUK8GOQLGhS/NxONtFM9No3mE8BN3krCkGN9yQCE7/DCFVtYmhHibCQniqcnapH8BT9XJjy/vaOGd4njoy43jhkHgBBWkfl6yGpwI59/8wloEbJ/SQBTZNshFpOCvm7J6k2p4dT7ZZhZ80lJ2m6Jh4hWujvb7HVcVDDKYiSdGI4ohK4EZJXNGzlTQThYoM0rZKP1AY5Cv6WczjkoV+ooQtC51yXEHZF4yuqTpWJhZp/cMmvcRG7C+uGLDFI+0fA4HX0pHw64ivm7c6qyh0zEEueWAAAAACUQPoHtWiIFe+of9/SuporCOLwtcEW/nlpO+pBde3xyTA19JWQqPg4PdLNTRP9hE9xlA7e6tK9OA4vAs5RkCFlOKP06At6B46RfT+uba+QFXR99Sn4UyxZdNqrIqWlzhkvAUAcwakig4jOzrSLH2SUExAareTspkPMwSVKCkdVL7blnYM7Dv61Cp1kmR2gVa3CzIs10z1NneOXcvKskd6KPvBRqzau7OXk3V2pZr+r6yw6jzEc230qt/vFawmVmKeHdoSAG7psITAu9eWfs8ne61/J60Syle9en+Vu/vQJaOIzIDqDMJJ9JCerOD1+oAXxXDazx5ZiSrJHYeN3i0I/6pYaRe03VWDhH2OoP81aQrd5mulFPA6UbnHheeNywEe7az/NhlLWJBYHlHBdIaojlHjSEFOuqeNZHce7oKDuQO7CMcWon1XqSPCbVL0r9cMvdOn7gQ45BFqw+5Nv53NiAgsT7lyP5PR+PgI2zsgYiuQhjIFUkFPqTIFSPzzX/qdIZmUjoixlQe/EMuVlCvpvdTshPv7TT9D2rcVa9r5MHERz4TggxMifTHBr7u0/Z1kBEE/+JCgXZYIOLyYgzA9uUVBojEyje48mxDOCrEYopJ1i0uCnPj6+LRQgOlsxq7z1Vbr5pDhqfmXpoevv6VJfasKbfGUf3wXTj6oUDDBhfyi2bYOtMq0W7Z/8tDeQXGXXEjLYFrn0EKnX/qUN4sPUMSX5XzhKpHMkotUqmnOrZfOV0jekUZsz2VLZRMX7PbGSxbLqj+O6lzs+bu60svnuTZbQ0KE+gCMB/+J42C+caPsfAJf4AvVIaFfdjxFa2dOVSlmS0eageOIO9KWI2lYhv6k620p7EeCulzOdhQJ531ijxMErm2DNA0ZokvNlK7t2pp/hzf9G8QtY4eH24wOqN/dBM4Chtif+a+kbSvy+HTry75lKr/ziq0VY6GXq5GwiDJj25QTn481fxxyRoIS02p4/ttetA/gl1lXXNLWcBuR2Iy2cfi+fqm8VrCsHkhj3DWFRQwH/VB/Whl0Nd7DLPb/mwMHPIypyLQz0FEHt47Zx4RjnyqQJGaj1aQYRwefocbNQhf9XmIqARReorWiFyuVCFHHkZL5NSMUbTmAdsWp436XiS4xcAIAAAATmGukagaOT/RueBqzWK41p2AYUr0QG5SuOF1RzQ5nfVBqTCheYXz6TlOBgSVGd2kRxjQuyFU+IFZB9dnY8lSyJIG24OFIqlS9izyk7IldV2glE3sqTevFfNuU+qBuckeeEAJm84RgmyrA6Bd60on5uH5v19jqCIarbp8o2xNO5K7cLqVcTnJVHqev7kXN4N/FfxfNpp1ac4o9oBubQ2vWkQO0WOzm0mtG395txiQgD9G6Vr96R4h44HtPVYLugOUfvhLjhDwhBd4eRHjkVI3rm3hK6Z3YQdvRlXVOM9+QLiDm4uSOBnruz6sp51ky5+0YB+DKMLzZUWe+HH5YkQbOj9ZYitymkp6g/goezpOzG1R5T2lr5M9rE0Hn68zALdS7hnEC4UZBQfcSUpbyKYYVaf4WpJ8OFP+9rTsbA1758/u0xmapC7sOdSB7NYWRwkbZzsExnIrwt29cs4AMSry7SZsaihgBZCdCYqsSqmkc1SRFvj+CXiBWLqYTGUqpWACMnzWBmicKwUiJgYqC/Cdngr1/2adZxeF/74Md+olGcpxGbdTdznpBPnF+GysEvKhtlgRTz/5+0VwQa19rNpIbmaeoioYj6L6pk4v4a3nOBoz15ncj7XnNQXzoUb/xxtL5eHnA5ex7Uh1/VCOw8wgwMKkiy/it/JYMlrmq3G9uU6sUEK5gVPcZmIeskMWKhknC5EMZl5+QtwD8V1Q/ANtgk/dHn6UjV6S2XJ30CYdx+Pm6tqhpRbQiuX2mvsQA/bMFXaMqOcMxq+jrLuWEG/Qv4eIkPN1WPi8VvkaMN17Pd+Zv49Ip1E5VklvzuKPCbkxdPUTfLiyVlu7OkLuigZwlwwSizwOeR7r/68xl2GUQWv5Tj6fQMjlkPPmEhCKiqBm12SUNCBil/P/vvw+0/GmR93pYjY8PXWa2vYu9FXlXItSu7UG/IBhGfZEF3wymp/m8HIEbN4qkdREjW59sDxh7E5QCiThqVw0rDkB69oNjoSu8tvN8sM3sbnIgAAAgOchY8rGVm/mjltR6zxezh2v3l94DBsnMU5aVAY2Le+gw2yFXfvQBb43KUpVncCkG545KC46IsLNZgOngaSnpCk7EsRH1OrV98NdzMELF319Do6prtDIn/yphIO5kvZLflomqgpPVRsURIqGTgghxOy6qugKERrFoRemBOITKEMJ9cg9ey2UIiTgy4MauRsnWLpBObSXEhBsMj34WbbTGtanX2V2ol2SyioPAgz3ePCIR55eRIf2dze6n416tL4GeZNZMiZefCiwbMVym3P5ckY0BFARLM1EljuN5y1wPjSteDw7vrjob0u2JQ62J5VsJhrcv7xm0ixfpXHkvjbd7YW/LPP2C/jT17o5FcCZLYcGmh49UsiZhfr1M0ORprzHYBPxQjduoC/fwi1hDHBmF4kukPyt2BK/7oWjsVNlkX2hl6fAjCN4G7q67dgmaEAhXWHGRKH6yaykABQm8Is74+kYfc4ret5SdQcLlzbGY+uMo2Gc1pL4jAmZWKJvpfigpqJmmhMmPx2d6JOgZ7092JjYcggBGV+A9iQ5BrrjJtADe6HbhyE2Bg3waUYEMmbI6i3YOcWKlRXQQMISA6DSCZzNbgD4C/L8OaEbF0mJojCPhyb1k0wEsiiGtZUOL5gqsIgCPK/IkXFdOOyx/q0L1FnZZ+wygGhnRhMRncawbf887QQ3+vBd1UnX692SpOytrWIyGh1qPphXRl1b/6IRmXDzVmUUGQiesWvOBgbvr0j20RJHjoybJlj0Ckc5ZA9wAfp1AYF6a0XeWJh5Y2sPJ/SpCAosJRL1z0d6vIpLffWONKpvhTiw7yA8P74ncaL6IB8YRD/KGrLMs/5GtahW4PysvwpzBZzGDH2tUDPuqc20J/QF42r0WXOVSMYkMT0i0u3G8O6HI78HeDytoBBKuBWpg/viY5L0suAxs3/nZfTkZ6GpxH4udnuRQve9AtBmqJ1euTY39DVbMA79S+YNGf7Snw1WB6GTtzXAf0ojDbUytW1fxxj/hAfnP/dVcV30CCTXlw2lsuztUbSitG9qAty5DYAAACkOGFwGLiafRrUvckgRx+Skh9UPhbuFr6bbsXoLhOz4bDrg8EtOoP8IqUW6BNckc2lY1Snmhe9KZF13VaWyrFptr7dHco/ckY9wKc53rvzCQg12lVS/UxeBFy2Dj2B7ZQnhp9Eel98yt7J3vtXv/DNd7xXy/mBYnzUW21mGXyMu76h22GzjSuxV/8MKNkOdDZxNCxhGowJq2ZxXX7Svu7Bl4XmrFpDRq/F9f5kP2L/7TZ+OrdEcnLmOUj35fv7S6aAU6y5YWMFXHRle+brxl4puoT2gUbDfdM1QncFpEn550UktiAqD+1UFlcmBnv9mooT3N+NhFwgMpkSkPl+Jw+2kIbFv2l9kNekjqisCJUbms8jwaERta6m/UsrtEz35zvUBA7Ng5+2YdWDHlUeD8fiQWLWoSyRCruO8OV2U+UYeJlss2pktLtXbsoIkSknhPLtzbV6Ahe/94w3swXUpsF+myynnmyqmVIgjSKi7igZVHVk16rQ/QfWTOjLTMRhwv/HzN9B4vLO3AiKFRD5z+2mdur+66Aew/d/ImcW+7SLLcvAbQXaZZzTO7fmmN+YGNGLc/b8sRkzx2DMuBoj+Yw+Fpi6d+QYxHnZBVzpjNbUtUPF+xAZXMpEheIOE/5vEjhwWmovckgSceEFfDl2aOq+P9/Z/rOcbFTb8n3BlkEG1elh/Jaxzpnh+o+tax2/RnxUZk3aSXnu0BdXlhkJD+suEDFaEiHli9ys7ea577KWE67A0xjciYS+dZqdP9ByVbfcBWiEY0MI5ANSs302RYPDcd//xzJq/gpZiAPu3GvtI+akX4KTK1RxS1CAAAAnWRrQLb4xxpHCJOXf9+ydUu5prj0XTYOrx3wMKx2jtjNEwt6vpibN6JXhAfrxUZPtJoWyGS/CBQJkIBLY+hXawGzGgwjsAoVS1EVmTY+LZj5BbbpugPfXhL/6HgJ6T9lkoFlNqCSni6elPDcyRt+AiT6rO4VwMGyjVUk+B4v2lT1Vz38tn2BmS69qlR5thK+z3NA1wM9GP8F0NY+KvhPjOjle/zImnTNQ1bD+Bwcy0yremE18N0PVXlUiA1wS3JpVpFxrhRvt1HSa9gqfIbK/3AgApP4LkXRGhzJKu+luNlBoxLetBA1r/DoPxhjJNOKK0hpDlsxnfVHFoeYdB8mbgQ2ASLzHz9nXoYm8QC6xQ0WI1lS4j68On8A+QCh0MoCpa7BPVg0rD+xBHH4QeR86T2S6RiquLdBq0UJbZknvYXd6QnMTAegA6ALb2HIMp8/jJHbv7AyVjVs7cag8BYvVGwov7KvNa3y4gZhiIpKKbub9fVkQxRx5ie+UuncyUEGA1y+82PWGCA1tlsclBsf3LyDEeNoKtNiGNMUNbwbmoZo/QUcrp/xELkYKxnCV7nzzF2fOaESeXudXao7ANmygnht9Y8ACy80FQ7CIngdCrYV4G3LBGE0AkJiAFLgEP8R2/8nXJ4N/z/uT4TOARUGMcuKpDNYooPL3XjTPcv9ulA59LiAAACgTCG8ym+xz740nb8yzVTSVOnD1mXRQK0cher6ve2t+9EtsxqJwTuHk+iymieiU1SFDEn4aSzU4lv5jdExRe2KHdY3yLv8BRygys9TBaA2FrZZ/miSmOFCmRhaAQKbFJzbiJrdv31AHOfn267URoYEe71to6VhhADLSBTyaJZxA1xCsyHhS+0KowQDpwuX+Ps70pKrbQOMKUCu02Y/9XDd+2vrRg7KjcVugX6+iTOkHoKc4ZjAYHESimzk+7SYbfBwqRF3Q0TJPNyVcQmgyvOFF9Zed89LbEoWbwxtVJ70wxUgNUAqhCEyWdBp4vi2MGUs341Js03Ag7ZE3HXe5970uvCwuhhUDThVc6rnFdh4fAGTKlBObraqSU7rJnMfwnx3vPtpsrIml03RgAAAMbPSoX48FDTNreDer9l33W/7LMyvksY8e2oJFp8mUJ3yhPXa46IFRbeGBZfOTIn3Xcq+P/Fybk2Cq1qpkgjvsAQVUydeb1eZM5DKukbC2tcKsgzEySeGJp9wMvYoYJrxZJOYg5oHpLVnnUmfqKvfvPB+hDyeS81GoL3RJ1R9UXAqIKWEGHJgFd0A5z7DRG1/O0EIDkGpY7v9jIkC5bXfz0ZyElKPer6G+MQKm7Y1+mYa3zLgJV97vN7z21A2ibE+19XpTxinKw+dFryLnESCfkWYDlO7fMw0voH3TQVdJYOpffaBzaTqyVS0qoqo3XINMlxkaUXfkBuiYp8t6yJLv9jbw6GYGrQiFF9v1h50MKuRlaWN+BjdPdknklbH9PRg6Ajk4nvg70fFmJqO+W17ItNjUO2M7RlkGKIZuW3xhmWgdlFUFwoE/jQMmFU9u0ush4R+2vYoiKOuoM7GW9Et8MwSyhnsHWxVXxSrKT/1nyRizzOzLtHGWilp6gjx93YZvJW+7vH1X0O3swA9qMmllz7ap4K9dK8upwKhTuAm3SQcSqtjpHR/s7lt5ayMAglbaCf92bUC/QA5bbRNNBk/xDMBLxXbVZVrJxGQCEk4C1YvXhQWgKVYMtzEW5zorb9bc92/ds11oG9GU/pSKcta8INJZsNp1hqPNjiWLSGXosM7eq7RkkjJBHmgGue0NI7gFhB1IGsWS3keO9ZGnhzzhRmrsYN058loloUQ/gedik4LF0cj6ZvWt1HXUr4bAPbpQuDSU4xGzY4ceAuqu0IGReEuK4V4WLiL8HYCCg+qK79GgbwAjBRwb2VkAdggGF0w7CbOxHXGMZneiXGaJMp3svmqOzkLKyICLn/itqK2FnXhfhG6rUEBQ16XYioSPBaXLq6NyC9GLcHEzYxCly8ewFR1cNYpcv+Xdq5vB0UXxNUFd+KVjhR/OTj0oriJICLJ/renAoKuDxAFyi8dCUz5Gu1TlnplYUEzxBP4IGp0A6tDW45Ser27sOHFpxy+xFwqkMNqJRo1lJhtsFSE03NuPSsCzNxNlDm3kanzps4hyTTEqTUs+iiUeMV/Mp6eZzW9WnxA8EVdiPfcEqT3QAAAAJjXU0HSRDnr7VRMSUUrkAkVDz0oqHLOgGX5UmdXySLC23w9o+aVYdqccQKSVySy90sqrT8Z/QuNq/QVgtZcumBb7Qbbwbi0MWeB98ppOmeSrJ2fcGD3bmaEyvuhKZq73o5A5zj9vNw/P9jt6v8KpoqeZT00/WR2TqaN2FGqfKmL7cT92a02+LsNyIkvubFle590jp6zfrTMMkGB+4j/unHA8PzwzjP54g+Ga16pwN2UDyId4tWGYtopmJxD8Ed0FuEFw0pqwfQy/zsjYE188Vx5jSasIGM/fsC9mzflnPfShDGf/GkzXIjdqkK7BseQBw2BZj0euTiS5ESg8yXqR/4BZVxQf9qkhTCwVpTnl5AsGyaZfRnb5kPL1dT7SOvi5MNbZ3LIy9anZv1LhCxKfK5p3QH/iQ1bMgP0sqKW4N3xW+T24qg9a6OnGpW865bAg2l1EqmClc85miBzME9zKEjwVM3j9KkfP7GDvv2h4+ZU1qyb/7nHZjI8fvk6yHr83g7q0hgDvdJEdn/ekafEhP6Nh6dvzJqRMbi7I8oPmutEPsl421PhnZ7gUzJ2kmQ/llPHaELxzJXiilcQr7/Duf8ueUct23dhciSak2m/sEquKCNoUwFOuMbLsTH6eI3jYvLHQY9EZEvM92Jj+GKxitoO0Yxic8nbL39tcsQspsfgiMGlVl5Fjz9onPhj6JQyK9UykgultNj6n8D6lXf8D6fg70Ty8cXkIZnieLVdm87lVsmR8Qtfy3QuiDgDfeyUMCVUuwLJZycZz7rX+uj6w47yqBfOhO09090H3xI3Lc+WfNnngRGevJRo7drHQYWUzwI//CrTujf6fSTU69o9QHWV+oFX0RqAQSuPtdPhPvB43RYncLN1RLxDjOXPeyY8CNwJjMmak8PERYbdhpBEZaLbi0g+tXDYgHNaeoemPbZwoQF+C6JaFNtX7SbzRPWaK9SVYN7Rl6CA15+8XUyOVaIFM3N3yag4pxRz1x8Vq0jaaOzWl0ZwTOKdTbcZaA0jG8IdxBh9SaHH5dZ2B0w/tbsNAHSPEENS3VT2p6WZg9mEf8stMZve6IoFQW/szjyei3Xn1fqSj3k25gdRZoxn4Kl9c/ME3sO7Ww33ZpGmu6KJn9srUBPzVpxN04i3r7u+LN0L8mDbarS0AAABOJeLAqgeJsiLzjx+1xwskS4k0qIT+Tzax9Tlup+wcbqmw2da3Vq3U6qUAZTfcMFGiilcofn1oQSMae9SFgNDer9vD5sr/OBiaH1PE05ey7LwK59j9s06CmXyBlLJaAkTAiL28kGeHCtMBSp84VmyOV5tKDX2WXXp2VRZo4N1fb76HgRxdmdN5N20zGbpuSz1ZMy36IClWrj9lOzA8cM3WZHTw4/SDvavxp5cyrxUnaFV30sGxodAwv3rJMjM+lJO4OBFCNlzfvpCgP7bIjnb4vI/5ZaVKGaPOiOEmVyCd1FJ+BxbtDxQHZ3U3m4eNpWcRk12dpw3X4Sf4zjinZBjBcdWBJgz8VAdgmtjOrI2DcuEniGC/xWEaWW/yvrC4vtajPsgX2XURBrLB9BeaiF1Bf3RuQfzxs7KMrN62W+xhMWOhrzOVp50R01CiL3D6RA4Q+upRxSHvpIzGO+yn1kLxO4DKgOrP1WC3zHbekP44hKjEwFIsSV0Hg0SDvYsDWvh0TQpWP3f3Nnnycxv+WLtbTEHfRQldVXfWlJAqEUp2ARnLE3KSYtPHfcgu0kUDaIHATQFfqMlJWxT5mjNKylLpSH1Kk8x1TPDlBcg99nhFznIjBjpsSFCJKfjvOuHiLG6JLNCm9EPCtyUVJUWnr8p6H0m8OLBqpQ4Pb4x3N3AsLw5UOP+XAtWT6wjQG/mhESxJpndhPupMyWXZMFLMYrbe65DS/rBJL36depuli2A5N5bQAAAAL+3eVO728HSxr/tZHYcKhTte6TSV0Gr8s2IE9pKxH/VRb68QGLVM+EmfaO3iX+lk5Y/GQCM5AE+1NGf5jKF5QJS0pf0cBEz5aAFpfqqZhGbSeFmyYz5mWrgG+PLbOPdVCfRGYeQ2H8bqsJhcl0GwFoS+4ZsOaVugtyyovDbpuhxz22uVvBmCRAcnVRXtgN/574QwQWE11y49/qzjF7rErJy0Otb8CTvfIEjAEke9XOtYrs8WzSG0a8cxcBOMELawqDAOKop6txOPiF0ne3rMtbGlOfNlUplwRxsMObAGFdFNA8SBZ78I3x0OP+vfEMjvSlU8D9VWH2CnxgTezy11I9t2ZAMLASrQF8Um5FmgokTKxYQR0KGpB1A7DsjDwbC5432RY6cCgnhsd98mP89gwSs6Mspf231941B9IsouqSSlS8pq+a4kW1JrIak3hIjGtEWn16bKJzN7zQORmgewPC5HmqItgfhUx2tbhfD15Jb6GPVWZcjhJwWf1a+KVpzyZFMb/Zgy+K5pe2O6E6we0iyEPdRvVi7+HYHBxuiUrwDkr9Fz3bJJv29K5UUAFy9PULBy7wmMEAJ3qCWA8IrdMekTqDaFzyQ260THN1WXtS5yvqyEdhaPsbX+EiN3CNjc+7rTlOXHv5+2AACB95UOFaIpT0oq6Sh9NioJx/ws6Ml9FInC+gz4yFhDHnL/M6BFZesB1ipEFD8ZGjjGM+EUWeV7KS2U/PmChxQ+d6xlMv7Tj4CsU5xiE1Q86KefHP5y7mwgfSnu0WiVnRzw6+b3P19W1NF/9OJKcOb5vRamZzfdn4BTI7YPpZo8U5xb2tqj4J4Niu/uTXlHZexlPvT3TMZu57uw1bLdEmq2Y3vSu4myO0Jc4Br5EqWWGts3nzyexqXBX4MaF5W7OYbuLjPp7cbbFF2077rUw0oZEO/tuI4Taj7qxsq0SEoJ8LryVXa2oS9N87PfAaYv9/8n5nnorqm34VKs8/SMDfvm7Pm9K4UOmPeJ3go3ZD33iVNoI7RXJMmIWsj5zlmm+tgkt3gLtMt2THJ8QUA7SOpSv6eUWvazOZqxGllyZZ6siKlJuE0W7YnAKLjQpxXtyXQMIbWaU+NMjjgPHUqsIQvag0BCLV+z8uFt+iR3Z348nvthqpmbUv1uweThF5dbLncaFZsePl2L8abcXHgHC8hu5nUUeZpLVprf9xSAaNJ2M2QvmbrVDC89cCGr29tySR7Nkc4YOI+O+4k/quUaPqFcTA7I/CyrXqieAvjkKemq+ojMVNWqEOkbeoHuT+xxQxoZCYTpJ6tg0H6w8ruI3J1M98j/WPQEk1TjeyvozMALqFgO/6zkQET7oTA2IOX46LbZWlTQ0Ny2kgaei66MCarCsBqtiaI/Od99C5g6Y/SAu4+DHxIuOH5XEI/fBM8u62r7sTZphaha8cT0uPWLXUZBavvbECMB/uC04FT1ytdTTaV5KMXB8Fzuwf0hmP9wnaZmlNlyxW1TBKfZSV5UFmhf08XugL0FAGbUC7Eekrtwd7YX0VwlySpgi/hmQmJi4/uD5KutmAMXipMKkgCLJaOoZ/IfjYg6hvwRooEvmIAt+EkQesOKvP+gNAJ7rhCPGr/SHlDBMzG9yUCdUS1PtJfeyf+SHy2NW0mWJ9T5z6FWC+5Vh1vW0/WfetuJ3kJ7H25kQ0r9ApUW0yez6so6hOEgk+a+7sTcFH1OpATd1a9NgN4ASJ7Eg7ZBUDvoDkknHrppZ0KBxkdDeE6rJHWgwIqKBLehENYazIBUUqV1IHeNBcs/JFrBuC78wnWMJ8cTq05Blb9DuJK04cTsbwLL3MhnReAh7jdq15EVdzCULycLWBtLzQXyVcMElGy9/l1iEt0jbyZE0GrlO6/5g7tt3qhmZ7Ug2tivhVBROo5TYP4jn/J0dAxidGa2RX+/+Q6U7kyVIthX7av34iwUfiYTFzpeKBbegSsuQxJiK4jlHWpglPDGX2N3b01RiIrWpFPcDRGlENZVkhZWabcWyHQJEhRp+svVExfqnMz84ptPFHSycWzfXf37nOaIm6rLOTyIMbrINxjJQLsobFgm/BkXO0sJaFSFzW9BKIM/vuUyR2h+RDodxz5MzGzh86F0Te4SgHdyGjAeowEltXbC7lqMkLYuu4QY+frN0lGzRHHCZM/quFA0sSa/A8tPYDF2emqq1w1/7znhxVYvjAX5tTcfIfWL9w6UkHUSzJtaC9lWREt1VTfPPrP0wnt/E+WKQFXNEjHwOOsIaKd1yoxJhNj4oed/aYLMd4U4xK+QMozbfqcNo/7w4k4+oWZNa++fkTzaxSXDU8jr8eL7XB9tCvYonkFc9jMK6YlUc9XaDn4yvkBwbZZlfB3EJf/xrV9eY1W1vBAc9VKZlHE8L9jbkoXxdVzkZA4aY62CePwRns8EJGGWovczgWbPEH6QbAXhJ8qp2HyTsTAw1eFumOC7wUqs2uIlByCiRVQfR3Bo5Pl5mgHE5VE6Xy9dSFevsl8trzEZXoSTsTXmqJYQYFBtUpQ/92UV3xU1Z83shJNUDR7i9wc43Mx7kkAoIS0hihb8tEEUb+TSp2ou3BqgGN3itKQRh+UN48tBfsUu9Sxve3xUIChHGnY9kiQjdhgDqEhYWsF6WGBAh06k5XAcy5evCGfy+Lpo9MPLeFu2hyuHZnvCCYwSYCDuin9fx74I5qBHMMFWjOkfGjQ6fFa0nXGip6Dsi6pBBvQ3oLn9vQwa8eMM+Xi52ytGorn0ZGr4PWF1HfgcTylJwOeZfKP6gF9LjwxniXqfI4/nPfH6EWIbTDhPJjv4AaAvOX66JGfBRspgf+nYTQNWkitQIRQE2EWwtvo/b/czAr8A4o6nlHyY1H+QucO6hT6NdER+ljORPKO0A7bnoiG2VU9WSljY45U5rFd9AKKzTKGZOghFpZbj7YC33u/5V/D9NEyCMzQLVxSjKVkMJKPtrtbNLyAvoAw958Q9n65FlezbRcJqNzmWZ1Bc46ak/m8DpJKOcLVeTdSQEpQin6zp9PIo3tZQ21urG8Ddx0S5mm18gA4upRqgHa7ydNwO64+/fxpT0NEZupnxAzWlJJqPHvylqm9OHYQMaBxsUurPPcLjP+DMEbCSEDVNPzO+R1zNRKI3lnFEHUoFjyoTWLzztIi+kdpF+jdn41iFAwIOVEQSr3UYpFn4iQ/ludeuMGq3nIt8RSj4gdyRIxQBqI84fMRzW2Ft6bz/bJV7YHePzN1s/OsptYFQ7x9Ung0RiQ2ULsQGP3JFgohuNfn4ayHkRBx7AZxh7qYCMIc8Iti8tEQeOZT47dfJf1orisWJWp0gaYmWyOPuP2tCMwFhZhIsOh6l8GbJe8NjbHOoFdx9POaiLNwGwLFhyf+v8/X1oCRI2PUNKiNJ+qHv3mw2WQspZUAYKUHby/L3Rohv7zfZq/oHDmkR2fqq5I4DkiTJFgrO2Lb9RxseqH8DNcvkRK+bfP3Efl6uhJsd52ELHPTt5vEITYR2RxueaHwIPLxXAviiFUzRzTUV+Wgbjf5y1dOor8lj1/OV0tLqK0LuP2C9NHYpDe3t8D/8ONQ7AhKtvIbApn1jiOqLEFDG4SM38v1iY6cBOEb/nsGzUxuifujiFyC/LNVDjM7Quv7Id97RwI/8ecZroJYw6kffxN2YooBJ761+HCcgA3O8ySVEp5+hJbC8sYZETyKg5Lts1Y10d+CHcKjpPopt5FFwqwve1o4khK9MpOabaTsjN6ezd6dcbCoHU3hHzskXA0FkHWE61dd1xoMMkfX0nT7VNrMs8LSKm7voHrmRvhUUzQm3w8WExenXFsHUAyrRm3y5wctc0Bn+iiQqeXP6SiS6X0WmoT5AVLhwwvPxuM4/ei63ChhOwAkCQTEaByva44BtzkrVGuSg+UMsgPALaZtiYmJNdw1aK3l/MSLZHT4TPimCZZhlKJQan4/JmwpUSYhMytge20/tr3TCz52AlEsukT7ebw00s6ouP5scfhYfKfNssAiAK8qPiFWQYxPNItVWpOpY+2arEK6xy0zCkFIA8XWw67bT7Z7KmhG1jog4j517ohDqZBRozkiiUjtYvIiWeG1OgQi5TFPycMYPVyo21zaNuXfbrK6Y8dHC0n4RyLmUAhvqs7D8kpkG5n2TPbFUZRcVODPB1e/htSXkVszhz36BBbN+u7lqy5UoU+PEIs1aUgt0N6i+jf3fDua9AZRyq/CiricjCBIQonp5jHgXn7BrvsJqSJ6Gko0zPkjHB6Hcbkq3P+hr/t7sC7ChGwzXziSBLOAflXLzXiJnMnToiFGXV1r35M7uivcLehFgkzrEp7I5GWk542z4N5wPKoGJRL/vp0sUSOvZex5V493np/X9CzaCQFfj0IDvCyaTKt8PvObvxOnPh7HdIF1il1B+kWFWiyI39gFIQTs6R8sExqHAtUon/WRuQjTuymAf81MAsCTJRB+OzhYNs1AEPY4ROnkcJYsuh/wv/NIpUqdCePWkhJ8wVvmuPzDDVYYShc7v3yHLGS74wAD2Uc2PmN1+cw0lIV7afw99kRwjTmqjBYEue6VzdYsal+A4ihHK/OMpblq+1iUYHPE66RAWX+tDJWMlLZdpRLD+zTyRFnKSspRHqgPgkjpwCGjj+FR7z2yaFxb+r5WI96/Od2u3PS8FgrbLfxgMzvFAtwGMmtOODD5IFcW04TmW8eYwq9x8rBFvkRMoTcgJA6deCy76brs8xsTHKZsskS6pI7mZ2msIsp2AVBHmjSj0K3Re7Bakoqi80TWCt13gyBESHk5hzjwWbfmjaQTMurOz6Iy6I16VMC44jaEPlmKSbh46txqcaxNlu27ni0QZkRvtHnefHcRCPj9FqDHxm2wBAecvEaUJZ3jlZ+2Ng799m+f4U2JV/m6CKqAZsTjW/jKbn7hfovsTbyAGwZyTa1sl4Dgh39xlpWbAitkzdu3aCMZq7j5gVLZKYxWqrSXG2h62Z/BqkIrZ3UyJCkAAZnXHMJ6cSP/qGVogTRtPwNNDKaw5a0mn0Bdpg4/lyoQZpr+jIa0pIuAAS4wNV3a5KnR8SPt894sXvCNj4ZYSCvCo15qFfFq8tCZkWpzfgKESQhMwJIvBapwiDKAyVs+anuMZdLXR1w7DDQkeBxNa57MQ/678lx5WvnMG3q7aqatuUqF+EQcVmW2yFZidyZDoaR2KztlAQDRaykqMuJPF/afmxFRPQ8Ixqrg2vqMHiFumtPHalFdChiu/2a0vdjcd1iY4mWwz9DjfRAYx8xQeRDgU+FpRnd/dB/wYIXsU8OqYhug1N2k/gJgHSMj6DyfhoSXv6rIrso/iKEZOslghNJPsHtL9I1FJxG/4wXWm0NWEK6IQTFcVdNTrpQGjSL0bTUU+SXVwRT7buz3Mw5LduWcTmyUzSfiQaCOgRsXUB06/NnfI5O5PyhD/4z6Arn2ADtUF5jibCLBJcO9tvs2N56N5ITMCIAg4J1vAgNOhQyZohjLjamFDOkul5E45090FYLnMq4hzYq3qqMI+frmJOLyTloIbz5WanA+BP5RNFqQ2ZEhfC61KnsC3a2mzlZkS609q2wpq0Xi98dVlvNlpToR8ETq1U/Ov06qiYX098DSFYwWDMPhlAjFvCL9wEUIhgqx29BKwg3XF0JmEbZGzss7V8ABBZvN2gJwqAAAvAKCU1q6O45qBngELS5nZdIgs3xydIZS4AtvpKQ2HKeqjZCXqR8T+5PibJvznCpfm+D53Igw45dvMLMqj9g3Rtd2H6Ndq1gq6z4ezkuogSI50g3N9U0sPXC69DrXQNlVAT617yehCx4Kw0QVBMw7g+bramKfazeWwgkSsjiiK3909hHQJh+c1nMcIlqhIC3u18BhuVTkbrbDtf9/ZOsLa6fsBAPNMjpa7OvxlZH9crugeDt8uMGe5BhCSJhLCvF8iAg9+BcSCqiT6HmhF4WlujhBsYkdWEZguY436SXWDEYglPHn2EYCATtwYYZ6pYqXpVU2qkjZLySafSULdMb66NLC/R0ZxoInUlsiAoQOyppSQoJkjXq32qqGsJSh5PWkZgEX3oHtDuoZw5mfEePCqK5ZTXuuKxG4pcwTCnwCOSwEluCBmKOWPp9sC9N+t/hPogHnK/ntFHAJo80pG0xHa+Aj6zdbX60+HjWLRu7vx7mVDOGLF4D+woScYSSmhxUUOQZstg8HeLvDP9ZOcTMI/A2jIlZuSm4JQmThjf3coNcDzipZNtbWF16R4+2PeKgtBFB2Grua35okUfPMmJRT/jq2wBDUZdjjCm87C3O+oNxDrGIK8Q4JomGiWVN0uElVTSfxAZm9+2b/f7akT+Y+CbAVCGChWzLJJi7faQ7NjAUPCmesC1Fh6fOa/6AAAAAKrXvOKtMKmbQeG0ni0dhZvTCY0hNjIe3hxbmBHsjxrbgAfGnd89hMC5czcwx3mK+Sc/YZfgfw9YPQh3XY6FW9auhFNSld7d8M9jVJYVmuw3Kuii09avAAAAi3RGseG2fQYEasj5LkhYEweY3HYaCL3i1LkktoS+eiHQHoGkKOXUD3GHvwY66HC1i+2EJEW/GMWfDRpzETedBKmWgRbC4XHXilOyE86LKyNytLzyiyStRDnFRW9A4/FvLfJa+IiFK4m/ZFGsntXkU7qLsTH56nKBil6eMzfXQSrIh5dhegHSGT+ZBIAqfC8UB2JhxQSk9ahpKVvbVdNdMy9Ha3kpVVWYb3aPRDIN1IAwiNHEJtl+Elj/FCUCNhCiVaXPOo+CF14TzNSnF1yKlUeyW6MjwtMQxWU7044kCJr2eVMbTacIMqMgGo658RIZWkXwTcODUZSqv3nAQaWGsx+sgNXcXNvXTREGJkZR23JzZ4//IRCLuifmxw5AXWQ6Toy+eXkOGh8464a0Dk80yx6ECsiQCMSvxJS2BexVRewBr/u3M1ZSUkwA4E1cd0BM9HefMB232RQH0LJ6pCdAfGAe7TnkaoeR/bvWxmjL3Jq/ykSwGYEHmQPfModaEgkJeJoIce09lQKrLMfGatWQklDwWUB/UC42piidEENX2U5JA4FyFLABTxI2C8AAAARAoYyJGgDuJAftbBcO7TsOnCELjEQo3HbfWfJLS6JZHWAHJ4/DvRfTHNhXFX4rkTi56jDzuIO/pD5UayYtnloBXh9Qw1AkYRXJLRH3iz6AA3N68uG942LjgnwNwnoEwhWLEegkl7iAiTzC5vH8NfLBKsiDdCPwclEvwSQ++wPFUgvoh1wBFp1bMFFBm3T/X33ugPjd+GBOJNTBNaLIKOLYXcF/xNFBv/qBKrIKCezadHESCrCs9RqQ/v5qSCUg6YyxTdU1rO6bTHT4ZytrVBJpd6rmjwbYNjglVGJm2uXWhUnmRuTmnGMgT1DQgOR9it1MYRgDicgRB428lFw9qwnhAfuwCKBdEbt3FMeodHfgFaPjYAAAAAAAAAAAAAYU2ua9QXtS+QpMX80hVDVa7EwgAAhIABQFmIWgyuq7XClloKZYJViEAMPIaqzRmW98PUYrwlu9hUEiWTPx3eRP/Q2gAAAAAAAAAAAAAAAAAAAAAAAAAAAAAAAAAAAAAAAAAAAAAAAAAAAAAAAAAAAAAAAA==;clipPath=inset(0% 4.67% 4% 1%);" parent="1" vertex="1">
          <mxGeometry x="302.49" y="238.3" width="295.03" height="200.16169611307419" as="geometry" />
        </mxCell>
        <mxCell id="NiiU2VCiYCkFJVUC2qcE-20" value="Forklift" style="text;html=1;align=center;verticalAlign=middle;resizable=0;points=[];autosize=1;strokeColor=none;fillColor=none;" parent="1" vertex="1">
          <mxGeometry x="420.01999999999987" y="427" width="60" height="30" as="geometry" />
        </mxCell>
        <mxCell id="NiiU2VCiYCkFJVUC2qcE-21" value="" style="shape=image;verticalLabelPosition=bottom;labelBackgroundColor=default;verticalAlign=top;aspect=fixed;imageAspect=0;image=https://mm.digikey.com/Volume0/opasdata/d220001/medias/images/4845/MFG_828_BMI160.jpg;clipPath=inset(6.67% 2.33% 7.33% 0%);" parent="1" vertex="1">
          <mxGeometry x="385.0200000000001" y="89" width="130" height="114.47098976109214" as="geometry" />
        </mxCell>
        <mxCell id="NiiU2VCiYCkFJVUC2qcE-22" value="" style="shape=image;verticalLabelPosition=bottom;labelBackgroundColor=default;verticalAlign=top;aspect=fixed;imageAspect=0;image=https://content.u-blox.com/sites/default/files/products/NEO-M9-top-bottom.png;clipPath=inset(17.34% 15% 14.92% 16.33%);" parent="1" vertex="1">
          <mxGeometry x="373.39" y="458" width="153.27" height="125" as="geometry" />
        </mxCell>
        <mxCell id="NiiU2VCiYCkFJVUC2qcE-25" value="&lt;p style=&quot;margin: 0px; font-stretch: normal; font-size: 12px; line-height: normal; font-size-adjust: none; font-kerning: auto; font-variant-alternates: normal; font-variant-ligatures: normal; font-variant-numeric: normal; font-variant-east-asian: normal; font-variant-position: normal; font-feature-settings: normal; font-optical-sizing: auto; font-variation-settings: normal; text-align: start;&quot; class=&quot;p1&quot;&gt;u-blox NEO-M9N GNSS module&lt;/p&gt;" style="text;html=1;align=center;verticalAlign=middle;whiteSpace=wrap;rounded=0;" parent="1" vertex="1">
          <mxGeometry x="340.0100000000001" y="573" width="220" height="30" as="geometry" />
        </mxCell>
        <mxCell id="NiiU2VCiYCkFJVUC2qcE-27" value="SIMCom SIM7080G" style="text;html=1;align=center;verticalAlign=middle;whiteSpace=wrap;rounded=0;" parent="1" vertex="1">
          <mxGeometry x="134.1599999999999" y="368.37" width="152" height="30" as="geometry" />
        </mxCell>
        <mxCell id="NiiU2VCiYCkFJVUC2qcE-29" value="&lt;p style=&quot;margin: 0px; font-stretch: normal; font-size: 12px; line-height: normal; font-size-adjust: none; font-kerning: auto; font-variant-alternates: normal; font-variant-ligatures: normal; font-variant-numeric: normal; font-variant-east-asian: normal; font-variant-position: normal; font-feature-settings: normal; font-optical-sizing: auto; font-variation-settings: normal; text-align: start;&quot; class=&quot;p1&quot;&gt;Bosch BMI160 Accelerometer and Gyroscope&lt;/p&gt;" style="text;html=1;align=center;verticalAlign=middle;whiteSpace=wrap;rounded=0;" parent="1" vertex="1">
          <mxGeometry x="315.0100000000001" y="199" width="270" height="30" as="geometry" />
        </mxCell>
        <mxCell id="NiiU2VCiYCkFJVUC2qcE-32" value="" style="shape=image;verticalLabelPosition=bottom;labelBackgroundColor=default;verticalAlign=top;aspect=fixed;imageAspect=0;image=https://www.iqhome.org/image/cache/catalog/post/thingspeak-1200x750.png;" parent="1" vertex="1">
          <mxGeometry x="834.3" y="1075" width="153.6" height="96" as="geometry" />
        </mxCell>
        <mxCell id="NiiU2VCiYCkFJVUC2qcE-33" value="" style="shape=image;verticalLabelPosition=bottom;labelBackgroundColor=default;verticalAlign=top;aspect=fixed;imageAspect=0;image=https://mm.digikey.com/Volume0/opasdata/d220001/medias/images/3705/ESP32-C3-DEVKITM-1.jpg;clipPath=inset(14.33% 8.67% 11.33% 9.67%);" parent="1" vertex="1">
          <mxGeometry x="145.4600000000002" y="1028.37" width="153.82" height="140" as="geometry" />
        </mxCell>
        <mxCell id="NiiU2VCiYCkFJVUC2qcE-34" value="ESP32-C3" style="text;html=1;align=center;verticalAlign=middle;resizable=0;points=[];autosize=1;strokeColor=none;fillColor=none;" parent="1" vertex="1">
          <mxGeometry x="182.37000000000006" y="1168.37" width="80" height="30" as="geometry" />
        </mxCell>
        <mxCell id="NiiU2VCiYCkFJVUC2qcE-38" value="" style="shape=image;verticalLabelPosition=bottom;labelBackgroundColor=default;verticalAlign=top;aspect=fixed;imageAspect=0;image=data:image/jpeg,/9j/4AAQSkZJRgABAQAAAQABAAD/2wCEAAkGBxISEhUQEhIVFRAVFRcVFRcTFxUXFRgVFhUWFxYVFxUYHSggGBolGxcVITEhJSkrLi4uFx8zODMsNygtLisBCgoKDg0OFw8QFysdHR0tLSsrKystLS0tLSsrLTctNy0tKy0rLSsrLS0tKzIrLSstLSsrKy0tKy0tLSsrLSsrK//AABEIAMIBAwMBIgACEQEDEQH/xAAcAAEAAQUBAQAAAAAAAAAAAAAAAQIDBAUGBwj/xABAEAACAQIEAwUDCwMDAwUAAAABAgADEQQSITEFBkETIlFhcTKBkQcUI0JSYqGxwdHhM3KSQ4LSY8LwU3OTsrP/xAAYAQEBAQEBAAAAAAAAAAAAAAAAAQIDBP/EAB0RAQEBAQADAQEBAAAAAAAAAAABEQIhMVFBEhP/2gAMAwEAAhEDEQA/APcYiQTAmJF4v5QJiReTAREi8CYkXi8CYiICIlmviVXc6+HWBelqtXVdz+811fiDH2dB+MwyevWXBt6WOQ+XrMpWB2nOyunWZdiRGDoImpp8SYbi/wCEzKWPQ+IPnIMqJSjg7G/pKoCJF4vAmJF5MBESCYExIv5ReBMSAZMBERASGkyGgDKUlUhRaBPWTLbmSrwK5TKXeVLtAgGFOkm0xq+MRNL3PgJRlyxXxarubnwG81tfGs2gNh5fvMWMGXXx7Nt3R5b/ABmITIkyhF5EiBN5g8V4zQwy561VUHmdT6CZs0vG+VcJizmrUQam2dSVf4jf3yUcHxj5Rq+JqDDYBCpY5Q7WzHz+6POddwMvh0Cs7VXOrs5JLN1IvsPKW+CchYbCu1SkWJYWu+pUdQp8/SdNQwirsNfE7wMbh2PrvUP0PZ0QNHZrOx+6g+r5mbyjxBhv3vXf4zCi8DcUeIId7g+cyAwNrG85+8lWINwbekYOitpKpz7cXKbm/kZn8K4iKqk2sQbW8vGMGxkHeQzSlDrIJvrF9ZJEW6wJEmQsmAiIgIiIEWlLJK4gW0EqMXmJiccqm258v3gZcwsRjVU2Gp8tvjNficYzbnToB/5rOV49xs4dS7Kb6hE6sf28TA6jGcUAF3dUTzIHxPWaHEc34BGCtiaYJ1G5HqSBYTyzFjEYpi+JqFrn2FuEHlbrOl4ByVTrKHfKKfTKNT8Rp6yj0XDYlKih6bK6HZlIIPvl2YXCuGUsNTFKiuVASbam5O5N+szLygZBMSYESYvBgQJNpIiBBEiVGUmAi0t1cQq77+UxHrO22g/GTRlVayjc+6Yz1mbYWH4y2i+MrBMmri2KVpteBi1T/af0mvmw4GPpD/af0gdCJTUElZUYRSq+MqtJkAwJiIgIiICIiBF4vGWLQOW554liqdPJhKSvUYG+Y2IHTKNLn1PxmJhKtTslzsBWKDNde7ntrt0v+Uvc/YlqNGrWS2dKLMt9RcXIuJwPCufwQBXp6/ap7f4n9DIbI63C4OrRLYh6r1qpGndGQL9lEBtr4k3mqxnDK+LqGtWGRNlQWJC+ZGg1m34XxSlXBNF7+I1BF9riZb1gurWt43y/xEqtLh+XE0zCyDoNz6nrOjw6BQAug2lpKqnr7m0Px2l243Nx+XxmtiLtpMpB85IlEykkdTKazNY5Bdh+HrOB5r4zXUHD0mtUPtufqDqqj7R/CTR1vE+Y8JhyBWroh8CRf4TVJ8oOALFTUZRe2ZkYJ65vCefYDguZwbNUqMfafVifKeicK5NoKA1Ydq29j7A93X3yjpUcEAg3BFwRsQdiJVLFWuiC3hsBMZ67tt3RJauMuriFXczEeu7bd0SlaIGp1MuXk0UJRA1Op85XESKSZFpIEIwsfxKnSyhibsyqABfVjYek3vAv6h/tP5iaqpwVqp7+VUBBGl2upBB3sNZueE0MtYi+mS4+IEQbv3xJtFpULxFotAmIEQEREBERAREQOa5swiVg1F7lHplWtobG43nlmO+T0gn5tiQxH+nWsWGlwM66j3ies8eP0g/t/UzwP5Q8Q6Y+u6MUcdnZlJBHcXqJlcdvyFwvEUKlYV6RTurY3DKdTsRNDzhz3RrUK+ENN0qh8o2ZWyN4jbY6TQ8J+UvG0bBytdP+po3+a/tOR4hiu1qPUtlzsWte9sxva/WXE9NpwvmvF4f+nWbL9l++vwO3unacG+VhhZcRRt96kdD6o36GeXEwJcH03wjilPEUkr09UcXBF1Ommol7HU3qIUSs1Mn6wC57dQCdAfO084+TnnTDJRpYKpmSqCVU2ujFmuBcbb21na8Z48mGdEqKxDXNxbS1tx75m3GmUO1wtLs8MGckm5qEN3jvUdza81WF5V1z1Wz1Dckna/6mbTBcVpVP6dTXwvY/AzjMbgeLUXdqFU1A50BYFRc75SLiJ0Y6urUwuBXtKjgHpfVifAAfpNNwfnv53ivmtOllp2Yhie8So+z4TScO5LqM5xHEaxZ/sKfwLdB5CbinwqhSxK4jDgKwpZOzUaZiTd2N9Taw90upI66nQA85cljAs5UF/al3OL26jeBMiLyC3Xp+EKmTeVUKDPsLL9pv0G5mXXNPDo1V72UamxLG5AAAHUkgWEYi1SwhO+g/GZlOiF2Hv6zn63HqjGg6IadNq/ZVBUW73z5Laex0N/MCdGJrEVS/gE+kzdMlr/7pYmTgahzZehBPwIH6wNhERIEREBERAREQEREBERA5/mA/SD+39TPCOcuD4yrWqV6lJKSOwGr5vZAFxYa7X98925g/qD+0fmZ57z6bUV9T+Uz+q8axfD+zF84bW2gIHxP7TAM2/F6wI0PumomkRESQIGfwOsqYmi7GyrVQk+ADC89q5o4Y2MFOrh3RwoI0bfNYggjTpsZ4PaZGBx9WiwajUemw6oxX4gaH3zNmq9Hq4etR0qU2XzI0+I0nccuVS+HpsTe999dnM4TkXnjE18RSwmIy1FqXXOVAcWQtrbQ7T1BaCrZVAA8BoN5jnj+bqsEYao7sXsFB7qk308TaZeHwQDZ9ASOg/mYZOIqMcpFKmDa5sXa3gNh75nYYkaEk6bmaguPSJ0LH0Gn8ytUsP0lVK7ewLjx+qPf190y1pKgzuRYaknRQB19JuIxkw7N6eJmWuFRO8dba3Owt1A6TC4hxgfNnxFAF9wunUNlJIOwGpPpNZiKKVsW65r1FWpTZQx0o9iltOmZ2GsuDOxnHb1aVKk1P6VA5ao2U5WVipVfrHS/oJrsNTr1sO+HYOy9vleozjtLCtSYBSv3SxvpltbcTIq8Jp08mIxDqtKnQpo6so9pFKrepuB3joNyBHz4IjYbDJ2VJEutYWKgAqapVdyQG67n0gXMPwhKCJ2lZilDtHVFOjJnLozr9dgTv1M3PD8WtVFqKGAN9GFmBBIII6G4M42rQqNVBUiri1op2qto91NFwM3shSBt9pm8J1/C6TLTUOLOSzMAb2Z2LEX62vaEZl5lYAd6/3fzI/aYNWsqjMxCjxJsJVwzjdAj27XOhYEKemjbHaBvIlKuDqDceUqkCJEmAiIgIiICIiAiIgc7x8fSW+4PzM+eOeqVRMRVptiK1RUYZRUdmtmANrXt1n0LzA1qv+0frPn/n/XGYgdc6/wD5pM/quOMplbqRuJTNIpl0UzoBufyk0SoNyL+W3xmYoBGVTes/tE6Kq+RMlqxh5f8AFdz4xlsLnrsJnphAxKqfoaYzO/QnyPXwEt5dO2YWW+Wmvj4e4TOrjc/J0tuJYYdcz3/+J57uy6ieEcnYQ/PcPTLFarsWJX2kAVmHxIHunvNtpRg1sTlNgLsTYDxJ2E2mH4aNGqamw7v1B/ynO4anXbErWZAKCMSASMxIU2PpfXfpOno4sHofw/eWDMS3QACcvxqqvbO/edkzL2QJsVWmrC6Dxdl1903ZxZGy/E/sJrMfikpFsQ2VXIGZlXUgEKua3eYAsBLqYucM4YGo5qwqIz02DqzbZmzu2UaBidfG2kx63HQwd8LRGYOFepUUoGAy6AgZmYl1Cg+JjhlarV+aVqlQMrNVtZcuYFHyOV6d0ez943l1+GVagp2qdkBXqV3sAWJLt2a2Ogsp312EqNE2PZhVqVKdUvUqL2Sq3aCzGqgK0tlKoG33NjNxT5eZ1enUbLQJPZimSKmRnWqyuehuoXS+gm4w+Fo0AxRVTMxdj1LHc3PvnP8AMPOtHDgjN3ug3b3L+8DofoqCAaKAAB1YgbXJ1M5TmLn6nQuq+15at8Ok854/zxXrkhCUQ9b94+p6e6a3hXAqtd1DnIHOmf22v9kHx+0bCTRteI8z4vHNkp5rHSym518W6TpsFTqphstWoGFBR9GrHLc3sGIHtXtoNddxLHCuHH5uKlNStOnU+kCMuY01vcnxIZTp+E3iYq5ZcOFbD1yWZqyWAbTba4v1tpDNz9bLhmM7CqlSrmSm6ItIU+8oJBLjKpJzXtr5TLpc61qbHtKWalc2axU5b6a7Tk6Ffs7KEK1Uvqe9qfUjIP7ZfLtVIZ9ABYKtwo66/wAzNsiSddevD1PgvF6eJTtEuNbEHcH3TYzmuS8K6IzEFVa2UEWva9zb3/hOlljZERKEREBERAS3XrBFLsbKoJJ8hvLkxOKUy1KooFyUYADqbbRRzWI4kmIY1Evl9kX306+W85njnJ2FxLGqylKx3dDYmwsLjY/CYuIr1aDGwKPfVWFvwMv4bmQ7VE96n9D+85Tr6c3w4/i/yd4hbmkUrr9lrI/uPsn8JxvEOCvSNqlOpRbwcae5tj8Z71huJUqnstr4HQ/Ay/WppUGVgGU9GFx8DNytY+bqmCYa2uPKY1iP5nunFOQcHVJamGoOf/TPd/wNx8LTkOLfJ9ik1RUrr5WV/gTY/GXUx5/84bKEuezvfL0J8/GZacRzOr1VzBBZEXuqPDbpLuM4SUbK6vSb7NRSv5zBqYJx0uPKP5lNrqeS8XTTG0alRwatSocx1sgKtYX2uTlE9wnhXyZ0A/EKauAQFqNYi+oQ20M90trJmLrU4DH1quIFMUsuHJYZ20csqn2V8POdHTwYHWajD0XOJpuCOzTMG8SSh/CdEFl5K5bitWsMSFS/ZK+HzHMqjvv3ltbM7EdNrAy9wrC1aoU1KbUxRCJ9Ja7stXO7AX9nurY+c27cKomt85Zb1QAASTZbXFwNgdTrvNfx3mfD4ZczuB69fQbtNMtjh8LTorZQAuZmFzsXJLBfAanSafjvNVDDC7OB4X1J9FnmvMHyjVat1o91ftNvbyGwnFPWq13+vUqH1J/iTU113MXP9atcUrov2j7VvLwnL4ehVrtmW51GZ3Pdv5sd/SdBwjlEns3r95XcIFUgIGtezN108NN9Z2FbA0MKlXDYtmpq+VqDKqsMqsGQAKLX3HTeTRouBco3qtSYFq/ZZ0qErbMy5kKqfPTXUeU3Ir00SllzHiGHvmR1utiwZi1Q90AEnrJxeJrV0U1VROyU2y5kqsoNlzOtyFIP1QfUTFVmv3TamaZTLfRSSTnV921PtnXxvaNZ83xEU8QtVxUrpkZiSQgvQYDoMhIZj1LXl+liH7MUwFprc91Bob+IN9fTT0lKKEGZjYHq1vDex3O003EePHLUWgCXQasVudRuPISea3OZz78ttWxKUQSxtubD2yB4eAnY/JglPFI+IamO6wCA627t7kdW85wHAeX6mIxNAurPTrqQ2h0VWIbMfXWev8i8tHAUDRLh2LXJUEDQAAC/kJZzItuujtJiJUIiICIiAiJBMCYkRA0/N1JTg8QzKCVo1CCQDYhSQR754NR4qw9oX8xoZ9B8cwRr4etQBAapTZATsCwIuZ5Jxn5NsRRCZKiVHbQqO7Y+RN7+slkpjV4PjNFgFLAMdgdCT75sl4nUTVHuPBtR+M57hnKVTE0Xqp7dKqqWuAtmVsx8yLDaewYbkTC5mqOHYuqgrmsiEKASgUC23W85/wCWXZU8z05DB81AaVEI811Hw3m8wnE6dQdx1PlfX3iU8U+Tnc4er/tq/wDMftOO4rwDE4c3qUnUD663K/5Lt77TXlf6+u3xeEp1RlqIrqejAH85yvEvk7wz3aiz0W8FOZP8W29xEwsJxzEU9mzr4P8A8txN3g+bKZ0qKUPj7S/hrGrLK1HKvKFfC4wVXyPTCOA66NciwBUjrr4zu+ss4XGpUF0cMPIg/ltLplVg0uKBMVSoH/ULEm/s2pm1x0HnN9isaqDxPl+84zi3H8NhWZqjAOR7K6ubbafvNfwfmY4wVW9imlQKgt3rFb6n6x/iJcGz5i4/VytlvsbADS4Gk8RxmOeq2d2LuepN/h4egntdPBvVDIgKAixYg310msp/JutJGZapFbKQGZVAU+IuNPWWVizHl68NygPXOQHUIP6jDxCfVHm34y62NOXs6ainS6hdWa3V33b00E2mP4dRpr32dqxchrMM500bKQQy6b5gdZg4ThzOdj8Iefru+o6nhnNdRsJ8yyUNrBqmYWN73B2Da7m20yOFMR3qi1PnCrYPnLK6k90XJZVAHgCDaYnD+Cqur/AfxvM/GYqnQUsxsB0W1z5+Xu+Mm/Hbjjq+emYGZ7hjoNcgNlB8wdAb+Q9JrsbxRKRCjvO17AeyCB18Zrmx1bEVloL3VdQF06s2UXPkCJsuXOT3r0Va2V6dcJnbMFK5XD5R1NwplnP113PEadqVfFJUdrk0agJWx9nOoACjffrO84FyUFd6riyNhhnQ5s+dks1z9XpOmw/CKVD5xURfpGdAzXPiBoOg0E2xQu9RV3NJba+KiVlZ4ThadFqFOmuVBTNgPNjcnxnSCYOFwAGR2vnVcu+mpvM68CYkRAmJAkwEREBIaTIaAIlKSq8gWECZq+Kf1aA+9+02Lma7G0matRYA5VJueggafIFoVQAADX2AA1sJ1SjSYGGwKorKe+C+fUbGwsLe6Z6nSAU9JAFxKpEDR8U5Qwle5NPI5+tT7p+GxnI8U+TyqutGotQeDd1v2P4T02LSZEx4NieGVcO/fV6T9DqvwbYzLTHYhhl7VvXS/vPWe1VqKuMrKGU7hgCPgZz3EOS8M92S9Jvuez/if4mOuL+Hl5KnDqSOXq0BWB3BZxr4mx1+M3XA8dgEunYfNwzhit2ZbgW9o+Vpu+J8o4mmCVAqr93Q2/tP8zj8Th8rFXUq3UMCD+M5c3rn2mfHpFfjeGw9NqzMoQjSxB9APEzzXmbm+viiaaKaVHqP9RvDN4Dyl/BVjTdXCq4GysLgeYHQzb8TxJqnPUy6eyFtYaa9/czpO1vPXU+ONwXBWYZ30Ua+4+J6Tf4TCKtlpoSxGgAJY+gAuZ0HAeXKuKAe/Z0OjnUkDfIn6md/wjg1HDC1Ne8d2Ort6maktXnjnj15rwTH8bZWNKmCGDWbNe4OxFiLiV8M5fqYjEPRe57Wiaq6mwHYsyZj9UZ1FxPW+OcLp4hMSlQaZ0NxYNo6ne3lMnD0EpXpoLKmGAHoFJ3mvS2657lvlOnTXBmsA1VGqMMpOUXdSAfE3UGbwt9Gv/vn8pmYKgzdg49lc2bX702eDwS0xYG/eza23lRiLwwsaoe4V2zCxF9CTNpTpgWt4AeekkmUK1oF2QZBeUKdYFRNjHWSbRKJEmQJMgREQEREBKWW8qiBbpiVE6yZSw1gVCW8tzLggQAEmQTJgIiICIiBBnjPyvVmGPXKSLYdP/vUns85jmXkvD4yr29ZnDCn2YCEAaFmDbbgkwPE8NxZgwVhcG+o0MjGcSrYhGZAQlNhex2QMFudutvjN7xXkWrTKPSY1Q9Q01AWxGgN2N7dRO+5V5OoUq2KLKr03OUUyoyAZr2sb3N1GsmQbvkRLYDDj/p3+JJm9kU0CgAAAAWAGgA8AJMo516Zc4lFF2zLp6OCZtMPw8BhUJ1yBSultBYzLSioJIUAnUkDU+suSYIVQBYCw8oMmJRaZZcMhpLQIBkVJKyTApVZXEgGBMREBERAREQIvF4tFoEGJNotAj3yQYtFoC8Xi0WgTERAREQEoq+yfQ/lK5TUFwR4giBzdId2j51D/wBs2XB1IesSCLvpfrq0rwnDQFUPYsjEgi/WbC0gmIiUIiIEXi8Wi0BeRaTaLQIiTaLQF4vFotAmIEQEREBERAREQEREBERAREQEREBERAREQIkxEBERAREQEREBERAREQEREBERAREQP//Z;" parent="1" vertex="1">
          <mxGeometry x="145.4600000000002" y="854" width="133.51" height="100" as="geometry" />
        </mxCell>
        <mxCell id="NiiU2VCiYCkFJVUC2qcE-39" value="&lt;p style=&quot;margin: 0px; font-stretch: normal; font-size: 12px; line-height: normal; font-size-adjust: none; font-kerning: auto; font-variant-alternates: normal; font-variant-ligatures: normal; font-variant-numeric: normal; font-variant-east-asian: normal; font-variant-position: normal; font-feature-settings: normal; font-optical-sizing: auto; font-variation-settings: normal;&quot; class=&quot;p1&quot;&gt;MICROCHIP LAN8720A Ethernet module&lt;/p&gt;" style="text;html=1;align=center;verticalAlign=middle;whiteSpace=wrap;rounded=0;" parent="1" vertex="1">
          <mxGeometry x="142.2200000000002" y="954" width="140" height="30" as="geometry" />
        </mxCell>
        <mxCell id="NiiU2VCiYCkFJVUC2qcE-40" value="" style="rounded=1;whiteSpace=wrap;html=1;fillColor=none;strokeWidth=2;fontColor=#ffffff;strokeColor=#D80073;arcSize=22;" parent="1" vertex="1">
          <mxGeometry x="105.31000000000012" y="820" width="230" height="390" as="geometry" />
        </mxCell>
        <mxCell id="NiiU2VCiYCkFJVUC2qcE-41" value="&lt;b style=&quot;color: rgb(96, 169, 23);&quot;&gt;&lt;font style=&quot;font-size: 17px;&quot;&gt;Forklift and sensors&lt;/font&gt;&lt;/b&gt;" style="text;html=1;align=center;verticalAlign=middle;whiteSpace=wrap;rounded=0;" parent="1" vertex="1">
          <mxGeometry x="333.22" y="610" width="193.56" height="30" as="geometry" />
        </mxCell>
        <mxCell id="NiiU2VCiYCkFJVUC2qcE-42" value="&lt;b&gt;&lt;font style=&quot;font-size: 17px; color: rgb(216, 0, 115);&quot;&gt;BLE Beacon&lt;/font&gt;&lt;/b&gt;" style="text;html=1;align=center;verticalAlign=middle;resizable=0;points=[];autosize=1;strokeColor=none;fillColor=none;" parent="1" vertex="1">
          <mxGeometry x="152.2200000000002" y="1210" width="120" height="30" as="geometry" />
        </mxCell>
        <mxCell id="NiiU2VCiYCkFJVUC2qcE-48" value="&lt;b&gt;&lt;font style=&quot;font-size: 17px; color: rgb(240, 163, 10);&quot;&gt;Backend Cloud&lt;/font&gt;&lt;/b&gt;" style="text;html=1;align=center;verticalAlign=middle;resizable=0;points=[];autosize=1;strokeColor=none;fillColor=none;" parent="1" vertex="1">
          <mxGeometry x="836.0999999999999" y="1210" width="150" height="30" as="geometry" />
        </mxCell>
        <mxCell id="NiiU2VCiYCkFJVUC2qcE-51" value="" style="endArrow=classic;startArrow=classic;html=1;rounded=0;fillColor=#1ba1e2;strokeColor=#006EAF;" parent="1" edge="1">
          <mxGeometry width="50" height="50" relative="1" as="geometry">
            <mxPoint x="230" y="813" as="sourcePoint" />
            <mxPoint x="230" y="620" as="targetPoint" />
          </mxGeometry>
        </mxCell>
        <mxCell id="NiiU2VCiYCkFJVUC2qcE-52" value="&lt;span style=&quot;color: rgb(0, 110, 175);&quot;&gt;BLE&lt;/span&gt;" style="text;html=1;align=center;verticalAlign=middle;whiteSpace=wrap;rounded=0;" parent="1" vertex="1">
          <mxGeometry x="220" y="700" width="60" height="30" as="geometry" />
        </mxCell>
        <mxCell id="NiiU2VCiYCkFJVUC2qcE-53" value="" style="endArrow=classic;html=1;rounded=0;strokeColor=#006EAF;" parent="1" edge="1">
          <mxGeometry width="50" height="50" relative="1" as="geometry">
            <mxPoint x="597.38" y="620" as="sourcePoint" />
            <mxPoint x="597.38" y="750" as="targetPoint" />
          </mxGeometry>
        </mxCell>
        <mxCell id="NiiU2VCiYCkFJVUC2qcE-54" value="&lt;span style=&quot;color: rgb(0, 110, 175);&quot;&gt;NB-IoT + MQTT&lt;/span&gt;" style="text;html=1;align=center;verticalAlign=middle;whiteSpace=wrap;rounded=0;" parent="1" vertex="1">
          <mxGeometry x="596.81" y="670" width="60" height="30" as="geometry" />
        </mxCell>
        <mxCell id="NiiU2VCiYCkFJVUC2qcE-56" value="" style="shape=image;verticalLabelPosition=bottom;labelBackgroundColor=default;verticalAlign=top;aspect=fixed;imageAspect=0;image=https://cdn-icons-png.flaticon.com/512/4207/4207230.png;" parent="1" vertex="1">
          <mxGeometry x="547.5" y="1031.37" width="100" height="100" as="geometry" />
        </mxCell>
        <mxCell id="NiiU2VCiYCkFJVUC2qcE-57" value="" style="endArrow=classic;html=1;rounded=0;strokeColor=#006EAF;" parent="1" edge="1">
          <mxGeometry width="50" height="50" relative="1" as="geometry">
            <mxPoint x="355" y="1080" as="sourcePoint" />
            <mxPoint x="540" y="1080" as="targetPoint" />
          </mxGeometry>
        </mxCell>
        <mxCell id="NiiU2VCiYCkFJVUC2qcE-58" value="" style="endArrow=classic;html=1;rounded=0;strokeColor=#006EAF;" parent="1" edge="1">
          <mxGeometry width="50" height="50" relative="1" as="geometry">
            <mxPoint x="595.1400000000001" y="890" as="sourcePoint" />
            <mxPoint x="595.5" y="1020" as="targetPoint" />
          </mxGeometry>
        </mxCell>
        <mxCell id="NiiU2VCiYCkFJVUC2qcE-59" value="" style="endArrow=classic;html=1;rounded=0;strokeColor=#006EAF;" parent="1" edge="1">
          <mxGeometry width="50" height="50" relative="1" as="geometry">
            <mxPoint x="656.81" y="1080" as="sourcePoint" />
            <mxPoint x="790" y="1080" as="targetPoint" />
          </mxGeometry>
        </mxCell>
        <mxCell id="NiiU2VCiYCkFJVUC2qcE-60" value="&lt;span style=&quot;color: rgb(0, 110, 175);&quot;&gt;Ethernet + MQTT&lt;/span&gt;" style="text;html=1;align=center;verticalAlign=middle;whiteSpace=wrap;rounded=0;" parent="1" vertex="1">
          <mxGeometry x="400.01" y="1050" width="100" height="30" as="geometry" />
        </mxCell>
        <mxCell id="NiiU2VCiYCkFJVUC2qcE-65" value="" style="shape=image;verticalLabelPosition=bottom;labelBackgroundColor=default;verticalAlign=top;aspect=fixed;imageAspect=0;image=https://cdn-icons-png.flaticon.com/512/17/17239.png;" parent="1" vertex="1">
          <mxGeometry x="540" y="755" width="115" height="115" as="geometry" />
        </mxCell>
        <mxCell id="NiiU2VCiYCkFJVUC2qcE-12" value="" style="shape=image;verticalLabelPosition=bottom;labelBackgroundColor=default;verticalAlign=top;aspect=fixed;imageAspect=0;image=https://www.4gltemall.com/media/catalog/product/cache/1/image/650x650/9df78eab33525d08d6e5fb8d27136e95/s/i/simcom_sim7080g.png;clipPath=inset(27% 3.67% 28.33% 2.67%);" parent="1" vertex="1">
          <mxGeometry x="105.30999999999979" y="273.37" width="209.7" height="100" as="geometry" />
        </mxCell>
      </root>
    </mxGraphModel>
  </diagram>
</mxfile>
